<?xml version="1.0" encoding="utf-8"?>
<!-- Generator: Adobe Illustrator 28.1.0, SVG Export Plug-In . SVG Version: 6.00 Build 0)  -->
<svg version="1.1" id="Calque_1" xmlns="http://www.w3.org/2000/svg" xmlns:xlink="http://www.w3.org/1999/xlink" x="0px" y="0px"
	 viewBox="0 0 160 250" style="enable-background:new 0 0 160 250;" xml:space="preserve">
<style type="text/css">
	.st0{fill:#1C1642;}
	.st1{fill:#85C8EE;}
	.st2{fill:#FFFFFF;}
</style>
<g>
	<g>
		<path class="st0" d="M114.5,163.4L114.5,163.4c-0.1-0.3-0.2-0.6-0.4-0.8l-1.5-2c1.3-1.1,1.9-2.4,2-3.8c0-0.9-0.2-1.8-0.7-2.5
			c-0.2-0.5-0.5-1-0.9-1.4c-1.1-1.2-2.9-1.8-4.5-2.1l0.1-4.4c0-0.5-0.1-0.9-0.4-1.3c-0.1-0.3-0.2-0.6-0.5-0.9
			c-0.3-0.3-0.6-0.4-1-0.5c0.2-0.3,0.3-0.7,0.3-1l0-2.8c0-0.5-0.2-0.9-0.4-1.2c0-0.2-0.1-0.4-0.3-0.6h0.3c1.1,0,1.9-0.9,1.9-1.9
			l0-3.1c0-0.5-0.1-0.9-0.4-1.3c-0.1-0.3-0.2-0.6-0.5-0.9c-0.4-0.4-0.9-0.6-1.4-0.6c0,0,0,0,0,0l-10.7,0.3c-0.4,0-0.8,0.2-1.2,0.4
			c-0.3-0.1-0.6-0.2-0.9-0.2c0,0-0.1,0-0.1,0l-3.1,0.2c-0.5,0-1,0.3-1.4,0.7c-0.3,0.4-0.5,1-0.4,1.5c0.2,1.5,0.3,2.9,0.2,4.4
			c0,2-0.2,3.4-0.6,4.4c-0.4,1-0.7,1-0.9,1h0c-0.1,0-0.2-0.1-0.3-0.2c0,0,0-0.1,0-0.1c-0.3-1.1-0.5-2.8-0.5-4.8
			c0-1.3,0.2-2.8,0.4-3.7c0.1-0.5,0-1.1-0.3-1.6c0,0-0.1-0.1-0.1-0.1c0-0.2-0.1-0.4-0.3-0.6c-0.3-0.5-0.8-0.8-1.4-0.8l-4.4-0.6
			c-0.1,0-0.2,0-0.2,0c-1,0-1.8,0.7-1.9,1.6c-0.2,1.3-0.5,3.3-0.5,5c0,2.5,0.2,4.9,0.7,6.9l-2.3,0.1l0.4-11.1c0-0.5-0.1-0.9-0.4-1.3
			c-0.1-0.3-0.2-0.6-0.5-0.9c-0.4-0.4-0.9-0.6-1.4-0.6c0,0-0.1,0-0.1,0l-5.2,0.3c-1,0-1.8,0.9-1.8,1.8c-1.6-1.6-4.5-2.5-8.4-2.5
			c-2.5,0-5.1,0.4-7.4,1c-0.9,0.2-1.5,1.1-1.4,2l1.1,17.5c0,0.2,0,0.4,0.1,0.5c-1.6,0.6-2.7,1.5-3.5,2.3c-1.5,1.6-2.3,3.7-2.3,5.9
			c0,1.4,0.4,2.8,1,4c0.4,1,1.1,1.9,1.9,2.7c1.6,1.6,3.9,2.4,6.4,2.4c1.1,0,2.3-0.2,3.5-0.5c0.5-0.1,0.9-0.5,1.2-0.9
			c1.4,1,3.1,1.5,4.8,1.5c1.7,0,3.4-0.4,4.8-1.2c1-0.6,1.9-1.4,2.6-2.3c0.6,0.8,1.4,1.6,2.4,2.1c1.4,0.8,3.1,1.3,4.8,1.3
			c1.1,0,2.2-0.2,3.4-0.5c0.1,0,0.2-0.1,0.3-0.1c0.1,0,0.1,0,0.2,0.1l2,0.4c0.1,0,0.3,0,0.4,0c1,0,1.8-0.7,1.9-1.7l0.1-1.3l2.3,2.3
			c0.4,0.4,0.9,0.6,1.4,0.6c0.4,0,0.8-0.1,1.1-0.4l0.9-0.6c0.3,0.4,0.8,0.6,1.3,0.6l7.4,0.6c0,0,0.1,0,0.2,0c0.4,0,0.8-0.1,1.1-0.4
			c0.2,0.1,0.4,0.1,0.6,0.1c0.1,0,0.1,0,0.2,0l2.8-0.3c0.8-0.1,1.5-0.7,1.7-1.5c0.1,0.2,0.1,0.3,0.2,0.4l0.1,0.3
			c0.3,0.7,1,1.2,1.8,1.2c0.3,0,0.6-0.1,0.8-0.2l2.7-1.3c0.5-0.2,0.9-0.7,1.1-1.3C114.9,164.4,114.8,163.8,114.5,163.4z M93.8,150.4
			c0,0.2,0.1,0.4,0.2,0.5l-1,0c-0.1,0-0.2,0-0.3,0l-0.8,0c0.5-0.5,1-1.1,1.4-1.8C93.4,149.7,93.6,150,93.8,150.4z M91.7,159.5
			l-0.7-0.7l0.7-0.9V159.5z M55.3,159.8c-0.4,0.1-0.8,0.2-1.2,0.2c-0.6,0-1-0.2-1.3-0.4c0-0.2,0-0.4,0-0.6c0-1,0.8-1.6,2.2-1.6
			c0.1,0,0.2,0,0.4,0c-0.1,0.5-0.1,1-0.1,1.6C55.2,159.3,55.2,159.5,55.3,159.8z M70.1,152.7l2.2-0.1c-0.5,0.4-0.9,0.9-1.2,1.3
			C70.8,153.5,70.4,153.1,70.1,152.7C70.1,152.7,70.1,152.7,70.1,152.7z M68.1,151.3C68.1,151.3,68.1,151.3,68.1,151.3
			c-0.4-0.2-0.9-0.4-1.3-0.5c0.3-0.2,0.6-0.3,0.9-0.5C67.7,150.6,67.9,151,68.1,151.3z M62.9,160.1c0-0.6,0.2-1.6,1.4-1.6
			c0.3,0,0.6,0.1,0.8,0.3c0,0.1,0,0.2,0,0.3c0,0.4-0.1,1.7-1.2,1.7c-0.5,0-0.8-0.1-1-0.3C62.9,160.3,62.9,160.2,62.9,160.1z
			 M59.1,144.6c0.4-0.1,0.9,0,1.2,0.2c-0.3,0.1-0.7,0.2-1.2,0.3L59.1,144.6z M58.3,137c0.2,0,0.4,0,0.5,0c0.2,0,0.5,0.1,0.7,0.2
			c-0.3,0.3-0.7,0.5-1.2,0.6L58.3,137z M80.4,159.6c-0.1,0-0.2,0-0.4,0c-0.2,0-0.5,0-0.7,0.1c-0.4,0.1-0.8,0.2-1.2,0.2
			c-0.6,0-1-0.2-1.2-0.4c0-0.2,0-0.4,0-0.5c0-0.9,0.8-1.5,2.1-1.5c0.2,0,0.4,0,0.5,0.1c0.2,0,0.4,0.1,0.5,0.1c0.1,0,0.1,0,0.2,0
			L80.4,159.6z"/>
		<g>
			<path class="st1" d="M52.6,150.7c1,0.2,2.1,0.2,3.3,0.2c4.6,0,9.8-1.3,12-3.9c0.3-0.4,1-0.2,1,0.3L69,150c0,0.3,0.3,0.5,0.6,0.5
				l10.7-0.5c0.3,0,0.5-0.3,0.5-0.6l0-0.8c0-0.5,0.7-0.8,1-0.3c1.2,1.5,2.7,2.4,4.6,2.4c5.6,0.1,7.5-6.7,7.7-13.2c0-1.7,0-3.4-0.2-5
				c0-0.3-0.3-0.5-0.6-0.5l-3.1,0.2c-0.3,0-0.5,0.3-0.5,0.6c0.2,1.4,0.3,2.9,0.3,4.6c-0.1,4-0.8,6.8-2.9,6.7c-1.9,0-2.6-3-2.5-7.3
				c0-1.2,0.2-2.8,0.5-4c0.1-0.3-0.1-0.6-0.5-0.7l-4.4-0.6c-0.3,0-0.6,0.2-0.6,0.5c-0.2,1.4-0.4,3.3-0.5,4.8
				c-0.1,2.7,0.2,5.3,0.9,7.5c0.1,0.3-0.1,0.7-0.5,0.7l-4.7,0.3c-0.3,0-0.6-0.2-0.6-0.6l0.4-12.9c0-0.3-0.3-0.6-0.6-0.6l-5.2,0.3
				c-0.3,0-0.5,0.3-0.5,0.6l0.3,8.6c0,0.5-0.6,0.7-0.9,0.4c-0.7-0.6-1.7-1.1-2.9-1.3c-0.5-0.1-0.6-0.7-0.2-1
				c1.5-1.1,2.3-2.3,2.3-3.7c0-2.8-3.6-4.2-8.3-4.2c-2.4,0-4.9,0.4-7.1,1c-0.2,0.1-0.4,0.3-0.4,0.6l1.1,17.5
				C52.1,150.4,52.3,150.6,52.6,150.7z M62.4,144.2c0,1.4-1.8,2.2-4,2.4c-0.3,0-0.6-0.2-0.6-0.5l-0.3-2.5c0-0.3,0.1-0.5,0.4-0.6
				c0.6-0.2,1.3-0.3,2-0.3C61.3,142.7,62.4,143.1,62.4,144.2z M56.9,135.2c0.5-0.2,1-0.2,1.4-0.2c1.5,0,2.6,0.6,2.6,1.8
				c0,1.2-1.6,2.2-3.5,2.4c-0.3,0-0.6-0.2-0.6-0.5l-0.3-2.9C56.5,135.6,56.7,135.3,56.9,135.2z"/>
			<path class="st1" d="M95.2,149.7l10.8,1.1c0.3,0,0.6-0.2,0.6-0.5l0.1-4.8c0-0.3-0.2-0.6-0.6-0.6l-5.7,0c-0.3,0-0.5-0.2-0.6-0.5
				l-0.1-1.5c0-0.3,0.2-0.6,0.5-0.6l4.1,0c0.3,0,0.6-0.2,0.5-0.6l0-2.8c0-0.3-0.2-0.5-0.5-0.5l-4.3-0.1c-0.3,0-0.5-0.2-0.5-0.5
				l0-1.4c0-0.3,0.2-0.5,0.5-0.6l5.8-0.1c0.3,0,0.5-0.2,0.5-0.5l0-3.1c0-0.3-0.2-0.6-0.6-0.6l-10.7,0.3c-0.3,0-0.5,0.2-0.5,0.5
				l-0.1,16.7C94.7,149.4,94.9,149.6,95.2,149.7z"/>
			<path class="st1" d="M56.5,161.4c-0.1-0.3-0.4-0.4-0.7-0.3c-0.6,0.2-1.2,0.3-1.7,0.3c-1.7,0-3.1-1-3.1-3.2c0-1.5,1.1-3,3.6-3
				c0.3,0,0.6,0,1,0.1c0.3,0.1,0.6-0.1,0.7-0.3l0.8-2.3c0.1-0.3-0.1-0.6-0.4-0.7c-0.9-0.3-1.7-0.4-2.4-0.4c-5.2,0-7.8,3.8-7.8,7.3
				c0,3.8,3.1,6.9,7.6,6.9c1,0,2-0.1,3.1-0.5c0.3-0.1,0.5-0.4,0.4-0.7L56.5,161.4z"/>
			<path class="st1" d="M80.4,161.4c-0.1-0.3-0.4-0.4-0.7-0.3c-0.5,0.2-1.1,0.3-1.7,0.3c-1.6,0-3-0.9-3-3.1c0-1.5,1.1-2.9,3.5-2.9
				c0.3,0,0.6,0,0.9,0.1c0.3,0.1,0.6-0.1,0.7-0.3l0.8-2.2c0.1-0.3-0.1-0.6-0.4-0.7c-0.8-0.2-1.6-0.4-2.3-0.4c-3.5,0-5.8,1.8-6.8,4
				c-0.2,0.4-0.8,0.4-1,0c-1-2.4-3.3-4.2-6.6-4.2c-4.6,0-7.2,3.3-7.2,7.3c0,3.9,3.2,6.8,7,6.8c3,0,5.7-1.5,6.8-4
				c0.2-0.4,0.8-0.4,1,0c1.1,2.3,3.5,3.8,6.7,3.8c0.9,0,2-0.1,3-0.5c0.3-0.1,0.5-0.4,0.4-0.7L80.4,161.4z M63.8,162.1
				c-1.9,0-2.8-1.4-2.8-2.8c0-1.8,1.1-3,2.8-3c1.7,0,2.6,1.4,2.6,2.7C66.4,160.9,65.4,162.1,63.8,162.1z"/>
			<path class="st1" d="M101.1,161.5l-3.7,0.1c-0.3,0-0.5-0.2-0.6-0.5l0-0.8c0-0.3,0.2-0.6,0.5-0.6l2.6,0c0.3,0,0.5-0.3,0.5-0.6
				l0-1.7c0-0.3-0.2-0.5-0.5-0.5h-2.8c-0.3,0-0.5-0.2-0.5-0.5l0-0.7c0-0.3,0.2-0.6,0.5-0.6l3.8-0.2c0.3,0,0.5-0.3,0.5-0.6l0-1.9
				c0-0.3-0.3-0.6-0.6-0.5l-7.9,0.4v0.1l-3.4-0.2c-0.2,0-0.4,0.1-0.5,0.2l-2.4,3.3c-0.3,0.4-1,0.2-1-0.4l0.3-2.8
				c0-0.3-0.2-0.6-0.5-0.6l-3.4-0.1c-0.3,0-0.6,0.2-0.6,0.6l0.4,12.1c0,0.2,0.2,0.5,0.4,0.5l2,0.4c0.3,0.1,0.6-0.1,0.7-0.5l0.3-3
				c0-0.5,0.6-0.7,0.9-0.3l3.5,3.5c0.2,0.2,0.5,0.2,0.7,0l1.7-1.3c0.4-0.3,0.9,0,0.9,0.4c0,0.3,0.2,0.5,0.5,0.5l7.4,0.6
				c0.3,0,0.6-0.2,0.6-0.5l0-3.1C101.6,161.7,101.4,161.5,101.1,161.5z M92.1,162l-3.2-3c-0.2-0.2-0.2-0.5,0-0.7l3.1-3.9
				c0.3-0.4,1-0.2,1,0.3l0.1,6.9C93,162.1,92.4,162.3,92.1,162z"/>
			<path class="st1" d="M112.9,163.4l-2.5-3.4c-0.2-0.2-0.1-0.6,0.1-0.8c1.3-0.9,2.1-2,2.2-3.3c0.1-2.8-3-3.9-6.4-4
				c-1.2,0-2.3,0-3.5,0.2c-0.3,0-0.5,0.3-0.5,0.5l-0.1,12.2c0,0.3,0.3,0.6,0.6,0.5l2.8-0.3c0.3,0,0.5-0.3,0.5-0.6l-0.2-2.7
				c0-0.2,0.1-0.5,0.4-0.6c0.2-0.1,0.4-0.1,0.6-0.2c0.3-0.1,0.6,0,0.7,0.3l1.6,3.9c0.1,0.3,0.5,0.4,0.7,0.3l2.7-1.3
				C113,164.1,113.1,163.7,112.9,163.4z M106.2,158.2c-0.3,0.1-0.6-0.2-0.6-0.5l-0.2-1.9c0-0.3,0.2-0.6,0.5-0.6c0.3,0,0.6,0,1,0
				c0.8,0,1.6,0.3,1.5,1.3C108.4,157.4,107.5,158,106.2,158.2z"/>
		</g>
	</g>
	<g>
		<path class="st1" d="M79.2,76.8c0.3-0.7,1.6-2.3,2.6-2.5c-0.9-0.7-0.8-1.6,0.5-1.6c1.3,0,3.1,0.5,3.7,5.5c1.7,1.9,3.5,2.3,5.5,2.3
			c2.3,0,2.7,3,2.2,3.1c-0.4,0.1-0.8-0.1-1-0.5c-0.1,0.4-0.9,0.8-2,1c-0.4,1.2,0.1,4.3,0.9,5.4c1.4,0.1,7,2.4,9,7.4
			c1.6,4.2-1,6.2-1,6.2c3.3,4.1,3.8,10.7,0,14.7c-0.7,0.7-1.9,0.9-1.7,0c-1,1-3.1,2.1-4.4,2.2c-1.3,0.1-1-1.1,0-1.5
			c-2.5-0.1-5.5-1.7-5.9-5.6c-0.3-2.9,0.5-6.4-2-7.5s-4.5-2-5.5-3.3c-0.9,0.3-4.3-0.5-5.4-1.5c0.3,2,4.7,8.5,5.6,9.4
			c0.9,0.8,0.3,1.8-0.8,1.4c1.9,5.8,0.6,8.9-2.8,11.4c1.2,1,1.2,2.3-0.6,2.5c-1.7,0.2-6.1-1.2-7-2c0.9,0.8,1.1,1.9-0.8,1.7
			c-3-0.3-8.1-3.6-9.4-9.7c-1.4-6.3-0.2-12.1,0.7-13.4c-1,1.5-2.3,0.6-1.8-1.1c1.5-5.5,8-14.1,14.9-17.2
			C73.2,79.8,77.5,77.1,79.2,76.8z"/>
		<path class="st2" d="M79.6,88.1c-1-3.2-0.5-8,3.2-7.4c3.7,0.6,2,6.7,0.4,8.4c0,0-0.5-0.4-0.9-0.6c0.4-0.7,1-2-0.4-2.2
			c-1.4-0.3-1.4,0.8-1.1,1.7L79.6,88.1z"/>
		<path class="st2" d="M89.3,89.5c1.1-1.4,1.6-3.5,0.6-5.1c0,0-1.5,0.4-1.9,1.8v1l1.2,0.4c0,0-0.3,1.1-0.8,1.3l0.3,0.9L89.3,89.5z"
			/>
		<circle class="st0" cx="88.2" cy="96.9" r="0.8"/>
		<path class="st0" d="M85.3,100.4c0.4,0.1,0.9-0.2,1-0.7c0.1-0.4-0.2-0.9-0.7-1c-0.4-0.1-0.9,0.2-1,0.7S84.8,100.4,85.3,100.4z"/>
		<path class="st0" d="M88.8,100.5c-0.1,0.4,0.2,0.9,0.7,1c0.4,0.1,0.9-0.2,1-0.7c0.1-0.4-0.2-0.9-0.7-1S88.9,100,88.8,100.5z"/>
		<path class="st0" d="M98.6,101.7c0.2,0.1,0.5-0.1,0.7-0.5c0.2-0.4,0.2-0.8,0-0.9c-0.2-0.1-0.5,0.1-0.7,0.5
			C98.4,101.2,98.4,101.6,98.6,101.7z"/>
		<ellipse transform="matrix(0.4546 -0.8907 0.8907 0.4546 -26.8503 137.7372)" class="st2" cx="99" cy="90.8" rx="0.8" ry="1.6"/>
		<path class="st0" d="M84.2,89.9c-0.1-0.1-0.1-0.2-0.2-0.4c-0.1-0.1-0.2-0.2-0.3-0.3c0.3-0.4,0.7-0.9,1-1.5
			c0.4-0.7,0.6-1.5,0.8-2.4c0.1-0.9,0.1-1.9-0.2-2.9c-0.1-0.2-0.2-0.5-0.3-0.7c-0.1-0.2-0.3-0.5-0.5-0.7c-0.2-0.2-0.4-0.4-0.7-0.6
			c-0.3-0.2-0.5-0.3-0.8-0.4c-0.1,0-0.1,0-0.2,0l-0.1,0c0,0-0.1,0-0.1,0l-0.2,0c-0.1,0-0.1,0-0.2,0c-0.1,0-0.3,0-0.4,0
			c-0.1,0-0.1,0-0.2,0l-0.1,0c0,0-0.1,0-0.1,0L81,80.3l-0.2,0.1c-0.1,0-0.1,0.1-0.2,0.1c-0.1,0-0.1,0.1-0.2,0.1
			c-0.1,0.1-0.2,0.2-0.3,0.3c0,0-0.1,0.1-0.1,0.1l-0.1,0.1c-0.4,0.4-0.6,0.9-0.8,1.3s-0.3,0.9-0.4,1.4c-0.3,1.6,0,3,0.5,4
			c-0.6,0.2-1,0.4-0.9,0.6c0,0.1,0.4,0.1,1,0.1c0.6,0,1.4,0,2.2,0.3c0,0,0.1,0,0.1,0c0,0,0.1,0,0.1,0.1c0.1,0,0.2,0.1,0.3,0.1
			s0.2,0.1,0.3,0.1c0.1,0,0.2,0.1,0.2,0.1c0.1,0,0.2,0.1,0.2,0.1c0.1,0,0.1,0.1,0.2,0.1c0.1,0.1,0.3,0.2,0.4,0.3
			c0.1,0.1,0.2,0.2,0.3,0.2c0.1,0.1,0.2,0.1,0.3,0.2c0.1,0.1,0.3,0.1,0.3,0.1c0.1,0,0-0.2,0-0.3C84.3,90.1,84.2,90,84.2,89.9z
			 M82.5,87.3c-0.1,0.1-0.2,0.2-0.3,0.3c-0.2,0.1-0.4,0.1-0.6,0.1c-0.2-0.1-0.4-0.2-0.5-0.3S81,87,80.9,86.9c0-0.3,0.1-0.4,0.2-0.4
			c0.1,0,0.1,0.1,0.2,0.3s0.2,0.3,0.4,0.4c0.1,0,0.2,0,0.3,0c0.1,0,0.2-0.1,0.2-0.1c0.1-0.1,0.2-0.2,0.3-0.1
			C82.6,86.9,82.6,87.1,82.5,87.3z M82.7,88.3c0.5-0.5,0.8-1.2,0.9-2.1c0-0.1,0-0.2,0-0.3c-0.4,0-0.9,0-1.2,0
			c-0.3-0.1-0.5-0.4-0.2-0.8c0.3-0.4,0.7-0.8,1.1-1c-0.2-0.4-0.6-0.7-1-0.8c-0.9-0.1-1.8,1.1-2,2.6c-0.1,0.7,0,1.3,0.2,1.8
			c0,0,0,0,0,0c-0.2,0-0.3,0-0.5,0c-0.1-0.2-0.1-0.3-0.2-0.5c-0.1-0.3-0.2-0.6-0.2-1c-0.1-0.7-0.1-1.4,0.1-2.2
			c0.1-0.4,0.2-0.8,0.4-1.1c0.2-0.4,0.4-0.7,0.6-1l0.1-0.1c0,0,0.1-0.1,0.1-0.1c0.1-0.1,0.1-0.1,0.2-0.2c0,0,0.1,0,0.1-0.1
			c0,0,0.1,0,0.1-0.1l0.1-0.1l0.1,0c0,0,0,0,0.1,0l0.1,0c0,0,0.1,0,0.1,0c0.1,0,0.2,0,0.3,0c0,0,0.1,0,0.1,0l0.1,0c0,0,0,0,0.1,0
			l0.1,0c0,0,0.1,0,0.1,0c0.4,0.1,0.7,0.3,1,0.6c0.1,0.1,0.2,0.3,0.3,0.5s0.2,0.4,0.2,0.6c0.3,0.8,0.3,1.6,0.2,2.4
			c-0.1,0.8-0.3,1.5-0.6,2.1c-0.2,0.5-0.5,1-0.8,1.3c0,0,0,0,0,0c-0.1-0.1-0.2-0.1-0.3-0.2C82.8,88.4,82.7,88.4,82.7,88.3z"/>
		<path class="st0" d="M102.9,109.7c0-0.9-0.2-1.7-0.4-2.6c-0.2-0.8-0.6-1.7-1-2.4c-0.2-0.4-0.5-0.8-0.7-1.1
			c-0.1-0.2-0.3-0.3-0.4-0.5c0.2-0.2,0.4-0.5,0.6-0.7c0.2-0.3,0.4-0.6,0.5-0.9c0.3-0.6,0.5-1.4,0.5-2.1c0-0.7-0.1-1.4-0.4-2.1
			c-0.1-0.3-0.3-0.6-0.4-1c0-0.1-0.1-0.2-0.2-0.3c2-2.1,1.3-4.4,0.4-5.4c-0.6-0.6-2.3-1.8-4.7-1.8c-0.7,0-1.5,0.3-2.2,0.6
			c-0.3-0.1-0.7-0.2-1-0.3C92.9,89.1,92.5,89,92,89c-0.2-0.3-0.3-0.6-0.5-0.9c-0.1-0.4-0.3-0.8-0.3-1.2c-0.1-0.4-0.1-0.9-0.1-1.3
			c0-0.4,0-0.8,0.1-1.1c0.1,0,0.3,0,0.4-0.1c0.1,0,0.3-0.1,0.4-0.1c0.1,0,0.2-0.1,0.3-0.1c0.1-0.1,0.3-0.2,0.4-0.3
			c0,0,0.1,0.1,0.1,0.1c0.2,0.2,0.5,0.3,0.8,0.3c0.3,0,0.7-0.2,0.9-0.5c0-0.1,0.1-0.2,0.1-0.3c0,0,0-0.1,0-0.1c0,0,0-0.1,0-0.1
			c0-0.2,0-0.3,0-0.5c0-0.2,0-0.3-0.1-0.5c0-0.1,0-0.1-0.1-0.2c0-0.1,0-0.1-0.1-0.2c-0.1-0.3-0.4-0.7-0.6-0.9
			c-0.3-0.3-0.6-0.5-0.9-0.6c-0.3-0.2-0.6-0.3-1-0.3c-0.3-0.1-0.6-0.1-1-0.2c-0.2,0-0.3,0-0.5,0c-0.1,0-0.1,0-0.2,0h-0.1
			c0,0-0.1,0-0.1,0l-0.4,0c-0.1,0-0.2,0-0.4,0c-0.5-0.1-1-0.3-1.4-0.5c-0.7-0.4-1.2-1-1.6-1.4c-0.1-0.6-0.2-1.1-0.3-1.7
			c-0.1-0.6-0.3-1.2-0.6-1.8l0-0.1l-0.1-0.1c0-0.1-0.1-0.1-0.1-0.2c-0.1-0.1-0.2-0.3-0.3-0.4c-0.1-0.1-0.2-0.3-0.4-0.4l-0.2-0.2
			c-0.1-0.1-0.2-0.1-0.2-0.2C83.5,72,82.7,71.9,82,72c-0.1,0-0.1,0-0.2,0c-0.1,0-0.1,0-0.2,0c-0.1,0-0.1,0-0.3,0c0,0-0.1,0-0.2,0
			c0,0-0.1,0-0.2,0c-0.2,0.1-0.4,0.2-0.5,0.3c-0.1,0.1-0.2,0.3-0.3,0.5c0,0.2,0,0.4,0,0.5c0,0.2,0.1,0.3,0.2,0.4
			c0,0.1,0.1,0.1,0.2,0.2c0.1,0,0.1,0.1,0.2,0.1c0,0,0,0,0,0c-0.1,0-0.1,0.1-0.2,0.1c-0.2,0.1-0.4,0.3-0.7,0.5
			c-0.4,0.4-0.8,0.8-1.1,1.4c0,0,0,0,0,0c-0.9,0.1-1.6,0.5-2.4,0.9c-0.7,0.4-1.4,1-1.9,1.6c-0.6,0.6-1.1,1.3-1.5,2
			c-0.4,0.7-0.8,1.5-1,2.3l0,0c-0.5,0.3-1,0.6-1.6,0.9c-0.9,0.5-1.8,1.2-2.7,1.9c-2.2,1.7-4.3,3.7-6.1,5.9c-0.9,1.1-1.7,2.3-2.4,3.5
			c-0.1,0.1-0.2,0.3-0.3,0.5c-0.1,0.2-0.2,0.3-0.2,0.5c-0.2,0.3-0.3,0.6-0.5,1c-0.1,0.3-0.3,0.7-0.4,1c-0.1,0.2-0.1,0.3-0.2,0.5
			c0,0.1-0.1,0.2-0.1,0.3l-0.1,0.3c0,0.1-0.1,0.3-0.1,0.4c0,0.1-0.1,0.3-0.1,0.4c0,0.1,0,0.1,0,0.2c0,0.1,0,0.1,0,0.2
			c0,0.1,0,0.3-0.1,0.4c0,0.1,0,0.3,0,0.4c0,0.1,0,0.1,0,0.2v0.1v0.1c0,0.2,0,0.3,0,0.5c0,0,0,0.1,0,0.1l0,0.1l0,0.1l0,0.1
			c0,0,0,0,0,0.1c0,0,0,0.1,0.1,0.2c0.1,0.2,0.2,0.4,0.4,0.5c0.2,0.1,0.4,0.2,0.6,0.2c-0.1,0.2-0.2,0.5-0.2,0.7
			c-0.3,1-0.6,2.2-0.7,3.5c0,0.2,0,0.4,0,0.6l0,0.6c0,0.4,0,0.8,0,1.1c0,0.4,0,0.8,0.1,1.1l0,0.6l0,0.3l0,0.3c0.2,1.5,0.5,3,1.1,4.5
			c0.1,0.4,0.3,0.7,0.4,1.1c0.1,0.2,0.2,0.3,0.2,0.5c0,0.1,0.1,0.2,0.1,0.3l0.1,0.2c0.2,0.3,0.4,0.7,0.6,1c0.2,0.3,0.4,0.6,0.7,1
			c0.9,1.2,2,2.4,3.3,3.2c1.1,0.7,2.3,1.2,3.4,1.4c0.1,0,0.3,0,0.4,0c0.1,0,0.1,0,0.2,0c0.1,0,0.1,0,0.2,0c0.3,0,0.6,0,0.8-0.1
			c0,0,0.1,0,0.1,0c0,0,0.1,0,0.1,0c0,0,0.1,0,0.1,0s0.1,0,0.1,0c0.2-0.1,0.3-0.2,0.4-0.3c0-0.1,0.1-0.1,0.1-0.2
			c0.1,0,0.1,0.1,0.2,0.1c1.1,0.5,2.3,0.9,3.6,1c0.3,0,0.6,0,0.9,0c0.3,0,0.7,0,1-0.1c0.3-0.1,0.7-0.1,1-0.3l0.1-0.1l0.1-0.1
			c0.1,0,0.2-0.1,0.2-0.2c0.2-0.1,0.3-0.2,0.5-0.4c0.3-0.4,0.4-0.9,0.2-1.3c-0.1-0.2-0.2-0.4-0.4-0.5c-0.1-0.1-0.2-0.1-0.3-0.2
			c0,0-0.1,0-0.1,0c0,0,0,0,0,0c0.1-0.1,0.2-0.1,0.3-0.2c0.1-0.1,0.2-0.2,0.3-0.2c0.2-0.2,0.4-0.4,0.6-0.6c0.5-0.5,0.9-1.1,1.3-1.7
			c0.1-0.2,0.2-0.3,0.2-0.5l0.2-0.5c0.1-0.3,0.2-0.7,0.3-1c0-0.2,0.1-0.3,0.1-0.5c0-0.2,0-0.3,0.1-0.5c0-0.3,0-0.7,0-1.1
			c0-0.7-0.1-1.4-0.3-2.1c-0.1-0.6-0.3-1.1-0.6-1.5c0-0.1-0.1-0.2-0.2-0.3l0,0c0,0,0.1,0,0.2,0.1c0.3,0.1,0.6,0.1,0.8,0
			c0.1,0,0.3-0.1,0.4-0.2c0,0,0.1-0.1,0.1-0.2c0-0.1,0.1-0.1,0.1-0.2c0-0.1,0.1-0.3,0-0.4c0-0.2-0.1-0.3-0.1-0.5c0,0,0-0.1,0-0.1
			l-0.1-0.1c0-0.1-0.1-0.2-0.1-0.2c0-0.1-0.1-0.1-0.1-0.2c0,0-0.1-0.1-0.1-0.1c-0.1-0.1-0.2-0.2-0.2-0.3s-0.2-0.2-0.2-0.2
			c-0.2-0.2-0.3-0.3-0.5-0.5c-0.3-0.3-0.6-0.7-1-1.1c-1.4-1.7-2.6-3.5-3.4-5.6c0.1,0.1,0.3,0.1,0.4,0.2c0.7,0.3,1.4,0.5,2.1,0.5
			c0.3,0.1,0.7,0.1,1,0.1c0.1,0,0.2,0,0.3,0h0.3H80c0.3,0.3,0.7,0.6,1,0.9c0.9,0.6,1.8,1.1,2.8,1.5c0.8,0.4,1.5,0.9,2.3,1.5
			c0.1,0.3,0.3,0.6,0.4,1c0.1,0.5,0.2,1,0.3,1.6c0.1,0.7,0.1,1.5,0.1,2.2c0,0.4,0,0.8,0,1.2c0,0.4,0.1,0.8,0.1,1.3
			c0.2,0.8,0.5,1.6,1,2.3s1.1,1.3,1.8,1.8c0.3,0.2,0.6,0.3,0.9,0.5c0.3,0.1,0.6,0.2,0.9,0.3c0.1,0,0.2,0,0.4,0.1
			c-0.1,0.2-0.1,0.4-0.1,0.6c0,0.3,0.2,0.6,0.5,0.8c0.1,0.1,0.3,0.2,0.5,0.2c0,0,0.1,0,0.1,0s0.1,0,0.1,0s0.1,0,0.1,0l0.1,0
			c0.1,0,0.3,0,0.4,0l0.2,0c0.1,0,0.1,0,0.2,0c0.1,0,0.1,0,0.2,0l0.2,0c0.1,0,0.2,0,0.3-0.1c0.4-0.1,0.9-0.3,1.3-0.5
			c0.4-0.2,0.8-0.5,1.1-0.7c0.1-0.1,0.3-0.2,0.4-0.4l0,0c0,0,0,0,0,0c0.1,0.1,0.2,0.2,0.3,0.2c0.1,0,0.2,0,0.4,0
			c0.1,0,0.3,0,0.4-0.1c0.1,0,0.1-0.1,0.2-0.1c0,0,0.1,0,0.1-0.1l0,0l0,0c0.1-0.1,0.3-0.2,0.4-0.4c0.1-0.1,0.2-0.2,0.3-0.3
			c0.2-0.2,0.4-0.4,0.5-0.6c0.3-0.4,0.7-0.9,0.9-1.5c0.6-1.1,1-2.4,1.3-3.8C102.9,111.5,103,110.6,102.9,109.7z M97.9,90.3
			c0.1-0.3,0.7-0.3,1.3,0c0.6,0.3,1,0.7,0.9,1c-0.1,0.3-0.7,0.3-1.3,0C98.2,91,97.8,90.6,97.9,90.3z M97.2,100.7
			c0.2-0.7,0.4-1.3,0.5-2c0-0.3,0.1-0.6,0.1-0.8c0.7-0.3,1.5-0.7,2-1c0,0.1,0.1,0.2,0.1,0.2c0.1,0.2,0.3,0.5,0.4,0.8
			c0,0.1,0.1,0.3,0.1,0.4c0,0.1,0,0.1,0,0.2c0,0.1,0,0.1,0,0.2c0,0.1,0,0.3,0,0.4l0,0.2v0.2c0,0.3-0.1,0.5-0.2,0.8
			c-0.1,0.3-0.2,0.5-0.3,0.8s-0.3,0.5-0.5,0.7c-0.7,0.9-1.8,1.6-2.9,1.9c-0.6,0.2-1.2,0.2-1.9,0.2c0.5-0.4,1-1,1.4-1.5
			C96.6,102,97,101.3,97.2,100.7z M86.2,104.5c-1.3-0.2-2.5-0.7-3.6-1.4c-0.6-0.3-1.1-0.7-1.5-1.2s-0.9-0.9-1.2-1.5l-0.1-0.2
			l-0.1-0.2c-0.1-0.1-0.1-0.3-0.2-0.4c-0.1-0.3-0.2-0.6-0.2-0.9c-0.1-0.3-0.1-0.6-0.1-0.9c0-0.1,0-0.3,0-0.5c0-0.1,0-0.3,0-0.5
			c0.2-1.1,0.8-2.1,1.7-2.9c0.4,0.2,0.7,0.4,1,0.5c0.4,0.3,0.7,0.5,0.8,0.4c0.1,0,0.1-0.1,0.1-0.3c0-0.2-0.1-0.4-0.2-0.7
			c-0.2-0.3-0.4-0.6-0.8-0.8c-0.2-0.1-0.4-0.2-0.6-0.3c-0.2-0.1-0.4-0.2-0.7-0.2c-0.5-0.1-1-0.1-1.4-0.1s-0.8,0.2-1.1,0.4
			c-0.3,0.2-0.5,0.3-0.6,0.5c-0.1,0.2-0.1,0.3-0.1,0.4c0.1,0.1,0.5,0.1,1,0c0.3,0,0.6,0,0.9,0c-0.2,0.2-0.4,0.5-0.5,0.7
			c-0.4,0.6-0.7,1.3-0.9,2c0,0.1,0,0.2,0,0.3c0,0.1,0,0.2,0,0.3l0,0.3l0,0.1v0.1c0,0.2,0,0.4,0,0.5l0,0.3l0,0.3
			c0,0.4,0.1,0.7,0.2,1.1c0,0.2,0.1,0.3,0.2,0.5c0.1,0.2,0.1,0.3,0.2,0.5c0.1,0.3,0.3,0.6,0.5,0.9c-0.1,0-0.3,0-0.4,0
			c-0.6-0.1-1.2-0.2-1.7-0.5c-0.4-0.2-0.8-0.4-1.2-0.6c-0.2-0.1-0.4-0.3-0.5-0.5c-0.1-0.6-0.3-1.2-0.3-1.8c-0.1-1.2-0.2-2.4,0-3.5
			c0.1-1,0.2-1.9,0.4-2.7c0-0.1,0-0.2,0.1-0.3c0-0.1,0-0.2,0.1-0.3c0-0.2,0.1-0.4,0.1-0.6c0.1-0.4,0.2-0.7,0.3-1
			c0.1-0.3,0.2-0.6,0.3-0.9c0-0.1,0.1-0.2,0.1-0.4c0-0.1,0.1-0.2,0.1-0.3c0.1-0.4,0.1-0.6,0-0.6c-0.1,0-0.2,0.1-0.5,0.4
			c-0.1,0.1-0.1,0.2-0.2,0.3c-0.1,0.1-0.1,0.2-0.2,0.3c-0.1,0.2-0.3,0.5-0.5,0.8c-0.1,0.3-0.3,0.7-0.5,1c-0.1,0.2-0.1,0.4-0.2,0.6
			c0,0.1-0.1,0.2-0.1,0.3c0,0.1-0.1,0.2-0.1,0.3c-0.3,0.9-0.5,1.9-0.6,2.9c-0.1,1.3-0.1,2.6,0,3.9c0.2,1.3,0.5,2.5,0.9,3.7
			c0.9,2.4,2.2,4.6,3.9,6.6c0.3,0.4,0.7,0.8,1,1.1c0.2,0.2,0.3,0.3,0.5,0.5c0.1,0.1,0.2,0.1,0.2,0.2c0,0,0,0,0,0
			c0.2,0.2,0.1,0.6-0.3,0.5c0,0-0.1,0-0.1,0c-0.2-0.1-0.5-0.2-0.6-0.2c-0.4-0.1-0.6-0.2-0.6-0.1l0,0c-0.1,0.1,0,0.5,0.3,1.2
			c0.1,0.3,0.3,0.7,0.4,1.1c0.1,0.4,0.3,0.8,0.4,1.3c0.1,0.6,0.2,1.2,0.2,1.8c0,0.3,0,0.6,0,0.9c0,0.1,0,0.3,0,0.4
			c0,0.1,0,0.3-0.1,0.4c0,0.3-0.1,0.6-0.2,0.8l-0.2,0.4c0,0.1-0.1,0.3-0.2,0.4c-0.3,0.5-0.6,1-1,1.4c-0.7,0.7-1.4,1.2-1.9,1.6
			c-0.3,0.2-0.5,0.3-0.7,0.4c-0.2,0.1-0.2,0.2-0.2,0.3c0,0.2,0.4,0.3,1,0.4c0.1,0,0.3,0.1,0.4,0.1c0.3,0.1,0.4,0.4,0.1,0.5l-0.1,0
			c-0.2,0.1-0.4,0.1-0.7,0.2c-0.2,0-0.5,0-0.8,0c-0.3,0-0.5,0-0.8,0c-1.1-0.1-2.1-0.4-3.1-0.9c-0.8-0.4-1.6-0.8-2.1-1
			s-1-0.4-1.1-0.3c-0.1,0.1,0,0.5,0.5,1c0.1,0.1,0.3,0.3,0.4,0.4l0,0c0.3,0.2,0.1,0.6-0.2,0.6c-0.1,0-0.2,0-0.3,0c0,0-0.1,0-0.2,0
			c0,0-0.1,0-0.2,0c-0.1,0-0.2,0-0.3-0.1c-0.9-0.2-1.9-0.7-2.9-1.3c-1.2-0.8-2.2-1.8-3-2.9c-0.2-0.3-0.4-0.6-0.6-0.9
			c-0.2-0.3-0.4-0.6-0.5-0.9l-0.1-0.2c0-0.1-0.1-0.2-0.1-0.2c-0.1-0.2-0.1-0.3-0.2-0.5c-0.1-0.3-0.3-0.6-0.4-1
			c-0.5-1.3-0.8-2.7-1-4.2l0-0.3l0-0.3l0-0.5c0-0.4,0-0.7-0.1-1.1c0-0.4,0-0.7,0-1.1l0-0.5c0-0.2,0-0.3,0-0.5
			c0.1-1.2,0.3-2.3,0.5-3.3s0.5-1.9,0.7-2.7c0.1-0.3,0.2-0.6,0.2-0.8c0.1-0.4,0.3-0.7,0.3-1c0.1-0.3,0.1-0.5,0.1-0.6c0,0,0,0,0,0
			c0,0,0,0,0,0c0,0,0,0,0,0c0,0,0,0,0,0c-0.1,0-0.2,0-0.3,0.2c-0.1,0.1-0.2,0.2-0.2,0.3c-0.1,0.1-0.2,0.2-0.3,0.4
			c-0.2,0.2-0.3,0.5-0.6,0.9l0,0l0,0c0,0,0,0.1-0.1,0.1c-0.3,0.5-0.7,0.3-0.7-0.2c0-0.1,0-0.2,0.1-0.4c0-0.1,0-0.1,0-0.2
			c0-0.1,0-0.1,0-0.2c0-0.1,0-0.3,0.1-0.4c0-0.1,0.1-0.3,0.1-0.4l0.1-0.2c0-0.1,0-0.1,0.1-0.2c0-0.1,0.1-0.3,0.2-0.5
			c0.1-0.3,0.2-0.6,0.4-0.9c0.1-0.3,0.3-0.6,0.4-0.9c0.1-0.1,0.2-0.3,0.2-0.4c0.1-0.1,0.2-0.3,0.2-0.4c0.7-1.2,1.5-2.3,2.3-3.3
			c1.7-2.1,3.7-4,5.8-5.7c0.9-0.7,1.7-1.3,2.5-1.9c0.8-0.6,1.5-1.1,2.1-1.5c1.2-0.8,2-1.4,1.9-1.6c-0.1-0.1-0.6,0-1.4,0.3
			c0.4-0.8,0.9-1.6,1.5-2.3c0.4-0.5,1-0.9,1.5-1.3c0.4-0.3,0.8-0.5,1.2-0.7c-0.2,0.4-0.3,0.9-0.3,1.2c-0.1,0.8-0.1,1.3,0.1,1.3
			c0.2,0,0.5-0.3,0.8-1c0.4-0.6,0.8-1.6,1.4-2.5c0.3-0.5,0.6-0.9,0.9-1.2c0.1-0.2,0.3-0.3,0.4-0.4c0.1-0.1,0.1-0.1,0.2-0.2
			c0.1,0,0.1-0.1,0.2-0.1c0.2-0.2,0.5-0.3,0.7-0.3c0,0,0.1,0,0.1,0c0,0,0.1,0,0.1,0c0.1,0,0.1-0.1,0.1-0.1s0-0.1,0-0.1
			c0,0,0,0-0.1-0.1c0,0,0,0-0.1,0l0,0c-0.2-0.1-0.6-0.4-0.7-0.5c0,0,0,0,0,0c-0.1-0.1-0.1-0.2,0.1-0.3c0,0,0.1,0,0.1,0
			c0,0,0.1,0,0.1,0c0.1,0,0.1,0,0.2,0s0.1,0,0.2,0c0.1,0,0.2,0,0.3,0c0.1,0,0.2,0.1,0.3,0.1c0,0,0.1,0,0.1,0.1c0,0,0,0,0.1,0l0.1,0
			c0,0,0.1,0,0.1,0.1l0.1,0.1c0,0,0.1,0.1,0.1,0.1c0,0,0.1,0.1,0.1,0.1c0.1,0.1,0.1,0.2,0.2,0.3c0,0,0.1,0.1,0.1,0.2l0,0.1l0,0.1
			c0.2,0.5,0.4,1,0.5,1.6c0.1,0.6,0.2,1.1,0.3,1.7c0.1,1,0.4,1.9,0.7,2.5c0.1,0.3,0.3,0.6,0.5,0.7c0.2,0.1,0.3,0.2,0.4,0.1
			c0.1,0,0.1-0.2,0.1-0.4s0-0.4,0-0.7c0-0.2,0-0.4,0-0.6c0.2,0.2,0.4,0.3,0.6,0.5c0.6,0.3,1.2,0.6,1.8,0.7c0.2,0,0.3,0,0.5,0.1
			l0.5,0c0,0,0.1,0,0.1,0h0.1c0.1,0,0.1,0,0.2,0c0.1,0,0.3,0,0.4,0c0.5,0,1,0.2,1.4,0.4c0.4,0.2,0.7,0.5,0.9,0.9c0,0,0,0.1,0,0.1
			c0,0,0,0.1,0,0.1c0,0,0,0,0,0.1c0.1,0.5-0.4,0.4-0.7,0.1c0,0,0,0-0.1-0.1c-0.2-0.2-0.3-0.2-0.3-0.1c0,0,0,0.2,0,0.3
			c0,0.1,0,0.2,0,0.2c0,0.1-0.1,0.1-0.1,0.2c-0.1,0-0.1,0.1-0.3,0.1c-0.1,0-0.1,0-0.2,0c-0.1,0-0.1,0-0.2,0c-0.2,0-0.4,0-0.7,0.1
			c-0.1,0-0.2,0-0.4,0.1c-0.1,0-0.1,0-0.2,0s-0.1,0-0.2,0.1c-0.6,0.2-1.2,0.5-1.7,1c0-0.2,0.1-0.4,0.1-0.5c0-0.1,0-0.1,0-0.2
			c0-0.1,0-0.1,0-0.2c0-0.1,0-0.1,0-0.2c0,0-0.1,0-0.1,0.1c0,0-0.1,0.1-0.1,0.1c0,0-0.1,0.1-0.1,0.2c-0.2,0.3-0.4,0.8-0.5,1.4
			c-0.1,0.6-0.2,1.4-0.2,2.2c0,0.4,0.1,0.9,0.2,1.3c0.1,0.3,0.2,0.6,0.3,1c-0.2,0.1-0.3,0.3-0.3,0.4c0.1,0.4,1.8,0.1,3.8,0.1
			c0.6,0,1.2,0.1,1.7,0.2c-0.6,0.6-1,1.3-1,1.8c0,0.5,0.4,1.4,0.8,1.8c0.3,0.3,0.8,0.6,1,0.7c0.2,0.1,0.4-0.1,0.3-0.2
			c0-0.1-0.1-0.2-0.1-0.4c0-0.3,0.3-0.6,0.8-0.6c1.1,0,1.5,1.1,1.6,2.6c0,0,0,0.1,0,0.2c0,1.3-0.2,2.7-0.7,3.8
			c-0.2,0.6-0.5,1.2-0.9,1.6c-0.4,0.5-0.8,0.9-1.3,1.3c-0.5,0.4-1.1,0.7-1.7,0.9c-0.6,0.2-1.2,0.4-1.9,0.5c-0.6,0.1-1.3,0.1-2,0.1
			C87.5,104.7,86.8,104.6,86.2,104.5z M89.5,87.2c0-0.1,0-0.2,0-0.3c-0.3,0-0.7,0-1,0c-0.1,0-0.2-0.1-0.2-0.1l0,0c0,0,0,0,0,0l0,0
			c0,0,0,0,0,0c0-0.1,0-0.3,0.1-0.4c0,0,0,0,0,0c0.2-0.2,0.4-0.5,0.7-0.7c0.2-0.2,0.5-0.4,0.7-0.5c0.2,0.2,0.5,1.2,0.4,2.1
			C90,87.6,89.5,89,89,89.3c-0.1,0-0.2,0.1-0.3,0.1c0-0.1-0.1-0.2-0.1-0.3C89.1,88.7,89.4,88,89.5,87.2z M88.6,88.4
			c-0.1,0-0.2,0.1-0.3,0c-0.1-0.3-0.1-0.6-0.1-0.8c0,0,0,0.1,0,0.1c0,0,0,0.1,0.1,0.1c0,0,0.1,0.1,0.1,0.1c0,0,0.1,0,0.1,0
			c0,0,0.1,0,0.1-0.1c0.1,0,0.1-0.1,0.2-0.1s0,0.1,0,0.3C88.7,88.2,88.6,88.3,88.6,88.4z M90,89c0.2-0.2,0.4-0.7,0.5-1
			c0.1,0.3,0.3,0.7,0.4,0.9C90.6,89,90.2,89,90,89C90,89,90,89,90,89z M88.9,106.1c1.4,0,2.8-0.3,4-0.9c0,0,0,0,0.1,0
			c0.4,0.1,0.9,0.2,1.4,0.2c-0.3,0.5-0.8,0.9-1.3,1.1c-0.4,0.2-0.9,0.4-1.4,0.5c-0.5,0.1-1,0.1-1.5,0.1c-0.5,0-1-0.2-1.5-0.3
			c-0.4-0.2-0.8-0.4-1.2-0.7C88,106.1,88.5,106.1,88.9,106.1z M101.4,112.1c-0.2,1.3-0.6,2.5-1.1,3.5c-0.2,0.5-0.5,1-0.7,1.4
			c-0.1,0.2-0.3,0.4-0.4,0.6c0,0.1-0.1,0.1-0.1,0.2c-0.4,0.5-0.7,0.2-0.6-0.1l0,0c0-0.1,0-0.2,0-0.2c0-0.1,0-0.2,0-0.3
			c0-0.1-0.1-0.2-0.2-0.3c-0.1,0-0.2,0-0.3,0.1c-0.1,0-0.1,0.1-0.2,0.1c-0.1,0-0.1,0.1-0.2,0.2c-0.3,0.3-0.7,0.6-1.2,1
			c-0.3,0.2-0.6,0.4-0.9,0.6c-0.3,0.2-0.7,0.3-1,0.4c-0.1,0-0.2,0-0.2,0.1l-0.1,0c0,0-0.1,0-0.1,0s-0.1,0-0.1,0h-0.1
			c-0.2,0-0.3-0.2,0-0.4c0.1,0,0.1-0.1,0.1-0.1c0.4-0.2,0.6-0.4,0.5-0.6c0,0,0-0.1-0.1-0.1c-0.1-0.1-0.2-0.1-0.4-0.1
			c-0.2,0-0.5-0.1-0.8-0.1c-0.8-0.1-1.7-0.4-2.7-1c-1.1-0.7-1.9-1.9-2.2-3.3c-0.1-0.3-0.1-0.7-0.1-1c0-0.4,0-0.7,0-1.1
			c0-0.8,0-1.5-0.1-2.3c0-0.5-0.1-0.9-0.3-1.4c0.5,0.2,1.1,0.4,1.7,0.5c0.2,0,0.3,0,0.5,0.1l0.5,0h0.1h0.1H91l0.2,0
			c0.1,0,0.1,0,0.2,0c0.6-0.1,1.3-0.2,1.8-0.4s1.2-0.6,1.6-1.1c0.4-0.4,0.8-1,1.1-1.5c0.2,0,0.5-0.1,0.8-0.1
			c0.9-0.2,1.8-0.7,2.6-1.2c0.1,0.1,0.2,0.3,0.3,0.4c0.2,0.3,0.4,0.6,0.6,1c0.4,0.7,0.7,1.4,0.9,2.1s0.3,1.5,0.3,2.3
			C101.6,110.5,101.5,111.3,101.4,112.1z"/>
	</g>
</g>
</svg>
