<?xml version="1.0" encoding="utf-8"?>
<!-- Generator: Adobe Illustrator 28.1.0, SVG Export Plug-In . SVG Version: 6.00 Build 0)  -->
<svg version="1.1" xmlns="http://www.w3.org/2000/svg" xmlns:xlink="http://www.w3.org/1999/xlink" x="0px" y="0px"
	 viewBox="0 0 160 250" style="enable-background:new 0 0 160 250;" xml:space="preserve">
<style type="text/css">
	.st0{fill:url(#SVGID_1_);}
	.st1{fill:url(#SVGID_00000106827354731553688960000017969221024271812758_);}
	.st2{fill:url(#SVGID_00000038400041597238130340000010057803088197823365_);}
	.st3{fill:url(#SVGID_00000083778692876518843490000010027914206320281004_);}
	.st4{fill:url(#SVGID_00000006666039628673338580000013411298115705185677_);}
	.st5{fill:url(#SVGID_00000015337332200597895440000012683604018122456465_);}
	.st6{fill:url(#SVGID_00000172412987045866651210000011231964390374592919_);}
	.st7{fill:url(#SVGID_00000159453472855573108060000016406840831873454756_);}
	.st8{display:none;}
	.st9{display:inline;fill:#201D1E;}
	.st10{display:inline;fill:#FFFFFF;}
	.st11{font-family:'AcademyEngravedLetPlain';}
	.st12{font-size:20px;}
	.st13{font-size:21px;}
</style>
<g id="PATTERN">
	<g>
		
			<linearGradient id="SVGID_1_" gradientUnits="userSpaceOnUse" x1="-136438.6562" y1="57700.5234" x2="-136192.3906" y2="57946.793" gradientTransform="matrix(1 7.172954e-05 -7.172954e-05 1 136389.4688 -57692.2578)">
			<stop  offset="0" style="stop-color:#F7F7F7"/>
			<stop  offset="0.4134" style="stop-color:#F4F3F2"/>
			<stop  offset="0.8751" style="stop-color:#ECE7E5"/>
			<stop  offset="1" style="stop-color:#E9E2E0"/>
		</linearGradient>
		<path class="st0" d="M0,239.29L0.02,10.7C0.02,4.79,4.71,0,10.5,0l139.02,0.01c5.79,0,10.48,4.78,10.48,10.68l-0.02,228.62
			c0,5.91-4.69,10.7-10.48,10.7l-139.02-0.01C4.69,249.99,0,245.2,0,239.29z"/>
		
			<linearGradient id="SVGID_00000135660919118662190860000017682935896320364710_" gradientUnits="userSpaceOnUse" x1="-8365.0596" y1="-7918.3979" x2="-8037.915" y2="-7591.2529" gradientTransform="matrix(0.9952 0.0976 0.0976 -0.9952 9013.416 -6802.1958)">
			<stop  offset="0" style="stop-color:#41403F"/>
			<stop  offset="0.6642" style="stop-color:#1E1E1E"/>
			<stop  offset="0.7689" style="stop-color:#1E1E1E"/>
			<stop  offset="1" style="stop-color:#1E1E1E"/>
		</linearGradient>
		<path style="fill:url(#SVGID_00000135660919118662190860000017682935896320364710_);" d="M135.46,242.83L135.46,242.83
			c0.81,0,1.47-0.67,1.47-1.51l0,0c0-0.83-0.66-1.51-1.47-1.51l0,0c-0.82,0-1.48,0.68-1.48,1.51
			C133.98,242.15,134.64,242.83,135.46,242.83z M119.77,242.82L119.77,242.82c0.82,0,1.48-0.67,1.48-1.51l0,0
			c0-0.83-0.66-1.51-1.48-1.51l0,0c-0.81,0-1.48,0.68-1.48,1.51C118.29,242.15,118.96,242.82,119.77,242.82z M104.09,242.82
			L104.09,242.82c0.81,0,1.48-0.67,1.48-1.51l0,0c0-0.83-0.67-1.51-1.48-1.51l0,0c-0.82,0-1.48,0.68-1.48,1.51
			C102.61,242.15,103.27,242.82,104.09,242.82z M88.39,242.82L88.39,242.82c0.82,0,1.48-0.67,1.48-1.51l0,0
			c0-0.83-0.66-1.51-1.48-1.51l0,0c-0.81,0-1.47,0.68-1.47,1.51C86.92,242.15,87.58,242.82,88.39,242.82z M72.71,242.82
			L72.71,242.82c0.82,0,1.48-0.67,1.48-1.51l0,0c0-0.83-0.66-1.51-1.48-1.51l0,0c-0.82,0-1.48,0.68-1.48,1.51
			C71.23,242.15,71.89,242.82,72.71,242.82z M57.02,242.82L57.02,242.82c0.82,0,1.48-0.67,1.48-1.51l0,0c0-0.83-0.66-1.51-1.48-1.51
			l0,0c-0.81,0-1.47,0.68-1.47,1.51C55.55,242.14,56.21,242.82,57.02,242.82z M41.34,242.82L41.34,242.82
			c0.82,0,1.48-0.67,1.48-1.51l0,0c0-0.83-0.66-1.51-1.48-1.51l0,0c-0.82,0-1.48,0.68-1.48,1.51
			C39.86,242.14,40.52,242.82,41.34,242.82z M25.65,242.82L25.65,242.82c0.81,0,1.48-0.67,1.48-1.51l0,0c0-0.83-0.67-1.51-1.48-1.51
			l0,0c-0.82,0-1.48,0.68-1.48,1.51C24.18,242.14,24.84,242.82,25.65,242.82z M9.96,242.86L9.96,242.86c0.83,0,1.5-0.68,1.5-1.53
			l0,0c0-0.84-0.67-1.53-1.5-1.53l0,0c0,0,0,0-0.01,0l0,0c0,0,0,0-0.01,0l0,0c-0.82,0-1.49,0.69-1.49,1.53l0,0
			c0,0.85,0.67,1.53,1.49,1.53l0,0c0.01,0,0.01,0,0.01,0C9.96,242.86,9.96,242.86,9.96,242.86z M150.6,241.72L150.6,241.72
			c0.65,0,1.25-0.45,1.43-1.11l0,0l0,0l0,0c0.22-0.8-0.25-1.64-1.02-1.86l0,0c-0.79-0.23-1.61,0.24-1.82,1.04l-0.01,0
			c-0.21,0.8,0.24,1.64,1.03,1.86C150.33,241.7,150.47,241.72,150.6,241.72z M8.34,227.75L8.34,227.75c0.82,0,1.48-0.67,1.48-1.51
			l0,0c0-0.84-0.66-1.51-1.48-1.51l0,0c-0.81,0-1.48,0.67-1.48,1.51C6.85,227.07,7.53,227.75,8.34,227.75z M150.66,225.62
			L150.66,225.62c0.81,0,1.47-0.67,1.47-1.5l0,0c0-0.84-0.66-1.51-1.47-1.51l0,0c-0.82,0-1.48,0.67-1.48,1.51
			C149.18,224.94,149.84,225.62,150.66,225.62z M8.34,211.74L8.34,211.74c0.82,0,1.48-0.68,1.48-1.51l0,0
			c0-0.84-0.66-1.51-1.48-1.51l0,0c-0.81,0-1.48,0.67-1.48,1.51C6.86,211.06,7.53,211.74,8.34,211.74z M150.66,209.62L150.66,209.62
			c0.81,0,1.47-0.67,1.47-1.51l0,0c0-0.84-0.66-1.51-1.47-1.51l0,0c-0.82,0-1.48,0.67-1.48,1.51
			C149.19,208.94,149.85,209.62,150.66,209.62z M8.34,195.73L8.34,195.73c0.82,0,1.48-0.67,1.48-1.51l0,0
			c0-0.83-0.66-1.51-1.48-1.51l0,0c-0.81,0-1.48,0.68-1.48,1.51C6.86,195.06,7.53,195.73,8.34,195.73z M150.67,193.61L150.67,193.61
			c0.81,0,1.47-0.68,1.47-1.51l0,0c0-0.84-0.66-1.51-1.47-1.51l0,0c-0.82,0-1.48,0.67-1.48,1.51
			C149.19,192.93,149.85,193.61,150.67,193.61z M8.34,179.73L8.34,179.73c0.82,0,1.48-0.67,1.48-1.51l0,0
			c0-0.84-0.66-1.51-1.48-1.51l0,0c-0.81,0-1.48,0.67-1.48,1.51C6.86,179.06,7.53,179.73,8.34,179.73z M150.67,177.6L150.67,177.6
			c0.81,0,1.47-0.67,1.47-1.51l0,0c0-0.83-0.66-1.51-1.47-1.51l0,0c-0.82,0-1.48,0.68-1.48,1.51
			C149.19,176.93,149.85,177.6,150.67,177.6z M8.34,163.72L8.34,163.72c0.82,0,1.48-0.67,1.48-1.5l0,0c0-0.84-0.66-1.51-1.48-1.51
			l0,0c-0.81,0-1.48,0.67-1.48,1.51C6.86,163.04,7.53,163.72,8.34,163.72z M150.67,161.6L150.67,161.6c0.81,0,1.47-0.67,1.47-1.51
			l0,0c0-0.84-0.66-1.51-1.47-1.51l0,0c-0.82,0-1.48,0.67-1.48,1.51C149.19,160.93,149.85,161.6,150.67,161.6z M8.34,147.72
			L8.34,147.72c0.82,0,1.48-0.67,1.48-1.51l0,0c0-0.84-0.66-1.51-1.48-1.51l0,0c-0.81,0-1.48,0.67-1.48,1.51
			C6.86,147.04,7.53,147.72,8.34,147.72z M150.67,145.59L150.67,145.59c0.81,0,1.47-0.67,1.47-1.5l0,0c0-0.84-0.66-1.51-1.47-1.51
			l0,0c-0.82,0-1.48,0.67-1.48,1.51C149.19,144.91,149.85,145.59,150.67,145.59z M8.34,131.7L8.34,131.7c0.82,0,1.48-0.67,1.48-1.5
			l0,0c0-0.84-0.66-1.51-1.48-1.51l0,0c-0.81,0-1.48,0.67-1.48,1.51C6.86,131.03,7.53,131.7,8.34,131.7z M150.67,129.59
			L150.67,129.59c0.81,0,1.47-0.67,1.47-1.51l0,0c0-0.84-0.66-1.51-1.47-1.51l0,0c-0.82,0-1.48,0.67-1.48,1.51
			C149.19,128.91,149.85,129.59,150.67,129.59z M8.34,115.7L8.34,115.7c0.82,0,1.48-0.67,1.48-1.51l0,0c0-0.84-0.66-1.51-1.48-1.51
			l0,0c-0.81,0-1.48,0.67-1.48,1.51C6.86,115.03,7.53,115.7,8.34,115.7z M150.67,113.57L150.67,113.57c0.81,0,1.47-0.67,1.47-1.5
			l0,0c0-0.84-0.66-1.51-1.47-1.51l0,0c-0.82,0-1.48,0.67-1.48,1.51C149.19,112.9,149.85,113.57,150.67,113.57z M8.35,99.7
			L8.35,99.7c0.82,0,1.48-0.68,1.48-1.51l0,0c0-0.84-0.66-1.51-1.48-1.51l0,0c-0.81,0-1.48,0.67-1.48,1.51
			C6.87,99.01,7.54,99.7,8.35,99.7z M150.67,97.57L150.67,97.57c0.81,0,1.47-0.67,1.47-1.51l0,0c0-0.84-0.66-1.51-1.47-1.51l0,0
			c-0.82,0-1.48,0.67-1.48,1.51C149.19,96.9,149.85,97.57,150.67,97.57z M8.35,83.69L8.35,83.69c0.82,0,1.48-0.67,1.48-1.51l0,0
			c0-0.83-0.66-1.51-1.48-1.51l0,0c-0.81,0-1.48,0.68-1.48,1.51C6.87,83.01,7.54,83.69,8.35,83.69z M150.68,81.57L150.68,81.57
			c0.81,0,1.47-0.68,1.47-1.51l0,0c0-0.84-0.66-1.51-1.47-1.51l0,0c-0.82,0-1.48,0.67-1.48,1.51
			C149.2,80.88,149.86,81.57,150.68,81.57z M8.35,67.68L8.35,67.68c0.82,0,1.48-0.67,1.48-1.51l0,0c0-0.84-0.66-1.51-1.48-1.51l0,0
			c-0.81,0-1.48,0.67-1.48,1.51S7.54,67.68,8.35,67.68z M150.68,65.56L150.68,65.56c0.81,0,1.47-0.67,1.47-1.51l0,0
			c0-0.83-0.66-1.5-1.47-1.5l0,0c-0.82,0-1.48,0.67-1.48,1.5C149.2,64.88,149.86,65.56,150.68,65.56z M8.35,51.67L8.35,51.67
			c0.82,0,1.48-0.67,1.48-1.5l0,0c0-0.84-0.66-1.51-1.48-1.51l0,0c-0.81,0-1.48,0.67-1.48,1.51C6.87,51,7.54,51.67,8.35,51.67z
			 M150.68,49.55L150.68,49.55c0.81,0,1.47-0.67,1.47-1.51l0,0c0-0.84-0.66-1.51-1.47-1.51l0,0c-0.82,0-1.48,0.67-1.48,1.51
			C149.2,48.88,149.86,49.55,150.68,49.55z M8.35,35.67L8.35,35.67c0.82,0,1.48-0.67,1.48-1.51l0,0c0-0.84-0.66-1.51-1.48-1.51l0,0
			c-0.81,0-1.48,0.67-1.48,1.51C6.87,35,7.54,35.67,8.35,35.67z M150.68,33.54L150.68,33.54c0.81,0,1.47-0.67,1.47-1.51l0,0
			c0-0.83-0.66-1.5-1.47-1.5l0,0c-0.82,0-1.48,0.67-1.48,1.5C149.2,32.87,149.86,33.54,150.68,33.54z M8.35,19.66L8.35,19.66
			c0.82,0,1.48-0.67,1.48-1.5l0,0c0-0.84-0.66-1.51-1.48-1.51l0,0c-0.81,0-1.48,0.67-1.48,1.51C6.87,18.98,7.54,19.66,8.35,19.66z
			 M150.68,17.54L150.68,17.54c0.81,0,1.47-0.67,1.47-1.51l0,0c0-0.84-0.66-1.51-1.47-1.51l0,0c-0.82,0-1.48,0.67-1.48,1.51
			C149.2,16.87,149.86,17.54,150.68,17.54z M141.22,10.48L141.22,10.48c0.82,0,1.48-0.67,1.48-1.5l0,0c0-0.84-0.66-1.51-1.48-1.51
			l0,0c-0.82,0-1.48,0.67-1.48,1.51C139.74,9.8,140.4,10.48,141.22,10.48z M125.53,10.48L125.53,10.48c0.81,0,1.47-0.67,1.47-1.5
			l0,0c0-0.84-0.66-1.51-1.47-1.51l0,0c-0.82,0-1.48,0.67-1.48,1.51C124.06,9.8,124.72,10.48,125.53,10.48z M109.84,10.47
			L109.84,10.47c0.82,0,1.48-0.67,1.48-1.5l0,0c0-0.84-0.66-1.51-1.48-1.51l0,0c-0.82,0-1.48,0.67-1.48,1.51
			C108.36,9.8,109.02,10.47,109.84,10.47z M94.16,10.47L94.16,10.47c0.81,0,1.47-0.67,1.47-1.5l0,0c0-0.84-0.66-1.51-1.47-1.51l0,0
			c-0.82,0-1.48,0.67-1.48,1.51C92.68,9.8,93.34,10.47,94.16,10.47z M78.47,10.47L78.47,10.47c0.82,0,1.48-0.67,1.48-1.5l0,0
			c0-0.84-0.66-1.51-1.48-1.51l0,0c-0.82,0-1.48,0.67-1.48,1.51C76.99,9.8,77.65,10.47,78.47,10.47z M62.79,10.47L62.79,10.47
			c0.81,0,1.48-0.67,1.48-1.5l0,0c0-0.84-0.67-1.51-1.48-1.51l0,0c-0.82,0-1.48,0.67-1.48,1.51C61.31,9.8,61.97,10.47,62.79,10.47z
			 M47.1,10.47L47.1,10.47c0.81,0,1.47-0.67,1.47-1.5l0,0c0-0.84-0.66-1.51-1.47-1.51l0,0c-0.82,0-1.48,0.67-1.48,1.51
			C45.63,9.8,46.29,10.47,47.1,10.47z M31.41,10.47L31.41,10.47c0.82,0,1.48-0.67,1.48-1.5l0,0c0-0.84-0.66-1.51-1.48-1.51l0,0
			c-0.82,0-1.48,0.67-1.48,1.51C29.93,9.8,30.59,10.47,31.41,10.47z M15.73,10.47L15.73,10.47c0.81,0,1.47-0.67,1.47-1.5l0,0
			c0-0.84-0.66-1.51-1.47-1.51l0,0c-0.82,0-1.48,0.67-1.48,1.51C14.25,9.79,14.91,10.47,15.73,10.47z"/>
		<g>
			
				<linearGradient id="SVGID_00000168828185706133058190000014179181203498601113_" gradientUnits="userSpaceOnUse" x1="-136348.6719" y1="57886.7266" x2="-136269.8281" y2="57886.7266" gradientTransform="matrix(1 7.172954e-05 -7.172954e-05 1 136389.4688 -57692.2578)">
				<stop  offset="0" style="stop-color:#41403F"/>
				<stop  offset="0.6642" style="stop-color:#1E1E1E"/>
				<stop  offset="0.7689" style="stop-color:#1E1E1E"/>
				<stop  offset="1" style="stop-color:#1E1E1E"/>
			</linearGradient>
			<path style="fill:url(#SVGID_00000168828185706133058190000014179181203498601113_);" d="M120.28,173.21
				c-13.93,18.44-41.04,23.98-61.42,13.98c-6.82-3.25-12.9-8.04-17.41-13.98c5.81,4.59,12.08,8.26,18.75,10.69
				C80.45,191.57,103.48,186.97,120.28,173.21L120.28,173.21z"/>
			
				<linearGradient id="SVGID_00000126293261402342978540000008113699993821645990_" gradientUnits="userSpaceOnUse" x1="-136348.6719" y1="57765.9492" x2="-136269.8281" y2="57765.9492" gradientTransform="matrix(1 7.172954e-05 -7.172954e-05 1 136389.4688 -57692.2578)">
				<stop  offset="0" style="stop-color:#41403F"/>
				<stop  offset="0.6642" style="stop-color:#1E1E1E"/>
				<stop  offset="0.7689" style="stop-color:#1E1E1E"/>
				<stop  offset="1" style="stop-color:#1E1E1E"/>
			</linearGradient>
			<path style="fill:url(#SVGID_00000126293261402342978540000008113699993821645990_);" d="M41.45,71.33
				c13.93-18.44,41.04-23.98,61.42-13.98c6.82,3.25,12.9,8.04,17.41,13.98c-5.81-4.59-12.08-8.26-18.75-10.69
				C81.28,52.97,58.25,57.57,41.45,71.33L41.45,71.33z"/>
		</g>
		
			<linearGradient id="SVGID_00000051364099746809020300000011096822068221602712_" gradientUnits="userSpaceOnUse" x1="-135285.5" y1="58357.3008" x2="-135218.5469" y2="58424.25" gradientTransform="matrix(-0.9076 -6.391417e-05 7.292248e-05 -1 -122664.7266 58413.4727)">
			<stop  offset="0" style="stop-color:#41403F"/>
			<stop  offset="0.6642" style="stop-color:#1E1E1E"/>
			<stop  offset="0.7689" style="stop-color:#1E1E1E"/>
			<stop  offset="1" style="stop-color:#1E1E1E"/>
		</linearGradient>
		<path style="fill:url(#SVGID_00000051364099746809020300000011096822068221602712_);" d="M111.1,30.55
			c6.77,2.33,12.09,8.32,14.44,15.94c2.35-7.62,14.44-16.96,14.44-16.96l-0.53,0l0,0.67l0,0l0,0l0-0.67l-85.32,0l0,1.02L111.1,30.55
			z"/>
		
			<linearGradient id="SVGID_00000124154674643213000470000008022112346106138815_" gradientUnits="userSpaceOnUse" x1="-136363.125" y1="57829.9375" x2="-136362.1094" y2="57829.9375" gradientTransform="matrix(1 7.255869e-05 -6.641763e-05 0.9375 136389.1719 -54073.6094)">
			<stop  offset="0" style="stop-color:#41403F"/>
			<stop  offset="0.6642" style="stop-color:#1E1E1E"/>
			<stop  offset="0.7689" style="stop-color:#1E1E1E"/>
			<stop  offset="1" style="stop-color:#1E1E1E"/>
		</linearGradient>
		
			<rect x="27" y="61.88" style="fill:url(#SVGID_00000124154674643213000470000008022112346106138815_);" width="1" height="137.09"/>
		
			<linearGradient id="SVGID_00000152232564989366884020000012930435506862992791_" gradientUnits="userSpaceOnUse" x1="-135228.5469" y1="58361.9609" x2="-135161.5938" y2="58428.9141" gradientTransform="matrix(0.9076 6.391417e-05 -7.292248e-05 1 122772.4219 -58165.1406)">
			<stop  offset="0" style="stop-color:#41403F"/>
			<stop  offset="0.6642" style="stop-color:#1E1E1E"/>
			<stop  offset="0.7689" style="stop-color:#1E1E1E"/>
			<stop  offset="1" style="stop-color:#1E1E1E"/>
		</linearGradient>
		<path style="fill:url(#SVGID_00000152232564989366884020000012930435506862992791_);" d="M48.29,222.45
			c-6.77-2.33-12.09-8.32-14.44-15.94c-2.35,7.62-14.44,16.96-14.44,16.96h0.53l0-0.67l0,0l0,0l0,0.67l85.32,0l0-1.02L48.29,222.45z
			"/>
		
			<linearGradient id="SVGID_00000183206615748528001430000003117139054345623955_" gradientUnits="userSpaceOnUse" x1="-136414.8281" y1="57824.9648" x2="-136413.8125" y2="57824.9648" gradientTransform="matrix(-1 -7.255869e-05 6.641763e-05 -0.9375 -136281.4688 54321.9414)">
			<stop  offset="0" style="stop-color:#41403F"/>
			<stop  offset="0.6642" style="stop-color:#1E1E1E"/>
			<stop  offset="0.7689" style="stop-color:#1E1E1E"/>
			<stop  offset="1" style="stop-color:#1E1E1E"/>
		</linearGradient>
		
			<rect x="131.39" y="54.02" style="fill:url(#SVGID_00000183206615748528001430000003117139054345623955_);" width="1" height="137.09"/>
	</g>
</g>
<g id="Calque_3" class="st8">
	<polygon class="st9" points="139.29,206.6 123.71,206.6 115.92,220.09 123.71,233.59 139.29,233.59 147.08,220.09 	"/>
	<polygon class="st9" points="35.79,20.04 20.21,20.04 12.42,33.54 20.21,47.04 35.79,47.04 43.58,33.54 	"/>
</g>
<g id="Calque_2" class="st8">
	<text transform="matrix(1 0 0 1 19.28 39.6839)" class="st10 st11 st12">15</text>
	<text transform="matrix(1 0 0 1 121.9458 227.0452)" class="st10 st11 st13">15</text>
</g>
</svg>
