<?xml version="1.0" encoding="utf-8"?>
<!-- Generator: Adobe Illustrator 28.1.0, SVG Export Plug-In . SVG Version: 6.00 Build 0)  -->
<svg version="1.1" id="Calque_1" xmlns="http://www.w3.org/2000/svg" xmlns:xlink="http://www.w3.org/1999/xlink" x="0px" y="0px"
	 viewBox="0 0 160 250" style="enable-background:new 0 0 160 250;" xml:space="preserve">
<style type="text/css">
	.st0{fill:#60B17C;stroke:#000000;stroke-width:0.25;stroke-miterlimit:10;}
	.st1{fill:#297164;}
	.st2{fill:#F8FCF7;}
	.st3{fill:#77BE7C;}
	.st4{fill:none;stroke:#1B7063;stroke-miterlimit:10;}
	.st5{fill:none;stroke:#FFFFFF;stroke-width:0.25;stroke-miterlimit:10;}
</style>
<g id="Paysagiste">
	<path class="st0" d="M92.8,119.7c-0.01,0-0.03,0-0.04,0c-0.16-1.06-0.37-2.17-0.63-3.26c3.27-1.35,5.57-4.56,5.57-8.32
		c0-4.97-4.03-9-9-9c-3.62,0-6.74,2.15-8.16,5.23c-0.53-0.18-0.85-0.26-0.85-0.26l0,0c0.43-1.06,0.68-2.21,0.68-3.41
		c0-4.97-4.03-9-9-9c-4.44,0-8.12,3.22-8.85,7.44h-0.01c0,0,0,0.02,0,0.03c-0.08,0.5-0.14,1.01-0.14,1.52
		c0,0.41,0.04,0.82,0.09,1.21c-0.09,1.01-0.3,2.01-0.75,2.43c-0.38,0.36-0.8,0.22-1.19-0.09c-0.35-0.62-0.78-1.19-1.26-1.71
		c-0.01-0.01-0.01-0.02-0.01-0.02l-0.01,0.01c-1.64-1.73-3.96-2.82-6.53-2.82c-4.97,0-9,4.03-9,9c0,3.99,2.6,7.37,6.2,8.55
		c-0.04,0.28-0.13,0.57-0.23,0.85c-0.22-0.02-0.45-0.03-0.68-0.03c-4.97,0-9,4.03-9,9s4.03,9,9,9c0.68,0,1.35-0.08,1.99-0.23
		c0.61,0.13,1.25,0.32,1.71,0.58c0.35,0.2,0.5,0.54,0.54,0.94c-1.05,1.47-1.68,3.27-1.68,5.23c0,4.97,4.03,9,9,9
		c4.43,0,8.09-3.19,8.85-7.4c0.41-0.09,0.95-0.11,1.42-0.12c0.71,4.27,4.4,7.52,8.86,7.52c4.97,0,9-4.03,9-9
		c0-1.76-0.51-3.39-1.38-4.77c0.33-0.44,0.59-0.94,0.71-1.49v-0.01c1.38,0.87,3.02,1.38,4.79,1.38c4.97,0,9-4.03,9-9
		S97.77,119.7,92.8,119.7z"/>
	<g>
		<path class="st1" d="M102.57,158.32c-6.44,0-14.45-1.89-20.88-3.41c-1.62-0.39-3.16-0.75-4.55-1.06
			c-1.68-0.37-3.53-0.56-5.51-0.56c-3.36,0-5.94,0.55-5.97,0.56l-0.22,0.04l0.14-0.17c0.74-0.92,10.23-2.45,11.17-2.6
			c0.03-0.37,0.15-2.34-0.2-5.22c-0.35-2.9-3.64-9.71-4.24-10.35l-0.01,0.13c-0.03,0.4-0.04,0.59-0.31,0.59
			c-0.09,0-0.21-0.03-0.39-0.06c0,0,0,0-0.01,0c-0.34,0-0.78,0.99-1.17,1.86c-0.39,0.87-0.78,1.76-1.18,2.12
			c-0.08,0.07-0.15,0.11-0.22,0.11c-0.05,0-0.13-0.02-0.2-0.11c-0.46-0.65-0.07-4.34,0.29-5.37c0.24-0.69,0.21-1.37-0.08-1.77
			c-0.16-0.22-0.37-0.34-0.61-0.34c-0.04,0-0.08,0.01-0.13,0.01c-0.57,0.09-0.69,1.18-0.76,1.83c-0.03,0.25-0.04,0.42-0.08,0.52
			c-0.09,0.22-0.4,0.39-0.74,0.39c-0.23,0-0.59-0.08-0.94-0.42c-0.14-0.14-0.21-0.16-0.24-0.16c-0.13,0-0.19,0.37-0.26,0.73
			c-0.05,0.28-0.11,0.61-0.21,0.91c-0.27,0.76-1.16,1.17-1.88,1.5c-0.2,0.09-0.39,0.18-0.54,0.26c-0.04,0.03-0.09,0.04-0.13,0.04
			c-0.06,0-0.11-0.03-0.15-0.08c-0.37-0.52,0.74-4.09,0.75-4.12c0.2-0.58,0.95-1.07,1.61-1.51c0.25-0.16,0.49-0.32,0.67-0.47
			c0.15-0.12,0.19-0.2,0.18-0.24c-0.03-0.06-0.19-0.13-0.47-0.13c-0.15,0-0.3,0.02-0.4,0.05c-0.03,0.01-0.07,0.02-0.1,0.02
			c-0.2,0-0.3-0.19-0.42-0.44c-0.14-0.26-0.3-0.58-0.64-0.82c-0.08-0.06-0.15-0.08-0.21-0.08c-0.31,0-0.53,0.63-0.73,1.19
			c-0.09,0.27-0.19,0.53-0.29,0.73c-0.05,0.1-0.11,0.2-0.21,0.2c-0.14,0-0.18-0.2-0.24-0.49c-0.06-0.26-0.14-0.65-0.28-0.65
			c-0.03,0-0.09,0.02-0.19,0.11c-0.17,0.17-0.4,0.45-0.64,0.74c-0.67,0.82-1.17,1.4-1.51,1.4c-0.2,0-0.3-0.18-0.32-0.52
			c-0.06-1.45,1.23-3.91,1.96-4.77c0.46-0.54,1.54-0.86,2.88-0.86c0.47,0,0.94,0.04,1.33,0.12c0.32,0.06,0.61,0.09,0.84,0.09
			c0.39,0,0.66-0.08,0.8-0.25c0.11-0.11,0.15-0.28,0.13-0.48c-0.05-0.53-0.73-0.8-1.09-0.8c-0.09,0-0.13,0.01-0.15,0.03
			c-0.03,0.01-0.06,0.03-0.1,0.03c-0.16,0-0.37-0.15-0.7-0.39c-0.34-0.25-0.81-0.58-1.41-0.87c-0.13-0.06-0.28-0.09-0.46-0.09
			c-0.64,0-1.42,0.43-1.99,0.75c-0.37,0.21-0.58,0.32-0.7,0.32h-0.04l-0.08-0.06c-0.04-0.06-0.03-0.15,0-0.21
			c0.21-0.63,1.52-1.4,2.57-2.03c0.27-0.16,0.51-0.3,0.7-0.42c0.35-0.23,0.67-0.34,0.94-0.34c0.37,0,0.68,0.21,0.92,0.63
			c0.17,0.31,0.3,0.42,0.39,0.51c0.08,0.07,0.14,0.13,0.14,0.25c0.03-0.04,0.14-0.07,0.25-0.1c0.17-0.05,0.38-0.11,0.56-0.11
			c0.17,0,0.29,0.06,0.35,0.18c0.07,0.13,0.27,0.44,0.49,0.79c0.42,0.64,0.94,1.43,1.06,1.81c0.15,0.45,0.63,0.52,0.9,0.52
			c0.14,0,0.29-0.02,0.43-0.05c0.2-0.05,0.29-0.9,0.37-1.65c0.1-0.92,0.21-1.97,0.54-2.58c0.18-0.33,0.7-0.5,1.53-0.5
			c1.76,0,4.58,0.78,4.75,1.2c0.04,0.1,0.01,0.17-0.02,0.21c-0.08,0.11-0.28,0.17-0.63,0.17c-0.53,0-1.32-0.14-1.65-0.27
			c-0.01,0-0.01,0-0.01,0c-0.13,0-0.15,0.21-0.16,0.39c-0.03,0.33-0.06,0.78-0.47,0.78c-0.08-0.01-0.11-0.01-0.14-0.01
			c-0.7,0-1.52,0.7-1.88,1.14c-0.28,0.35-0.49,1.47-0.3,2.11c0.04,0.14,0.12,0.31,0.27,0.35c0.03,0.01,0.06,0.01,0.09,0.01
			c0.49,0,1.12-1.09,1.33-1.65c0.15-0.39,1.63-0.41,1.93-0.41c0.89,0,1.94,0.12,2.23,0.46c0.06,0.08,0.09,0.16,0.08,0.25
			c-0.05,0.32-0.27,0.49-0.4,0.61c-0.06,0.05-0.13,0.11-0.13,0.13c0.01,0.07,0.23,0.2,0.68,0.4c1.37,0.63,1.57,1.94,1.65,2.43
			l0.02,0.11l-0.03,0.09c-0.03,0.03-0.07,0.05-0.13,0.05c-0.2,0-0.62-0.21-1.29-0.55c-0.47-0.24-1.01-0.51-1.5-0.71
			c-0.27-0.11-0.56-0.22-0.68-0.22c-0.03,0.02-0.03,0.09-0.02,0.15c0.02,0.15,0.04,0.37-0.06,0.61c-0.13,0.32,0.71,0.95,1.32,1.42
			c0.64,0.49,1.03,0.8,1.03,1.02c0,0.11,0.02,0.29,0.04,0.52c0.09,1.13,0.16,2.25-0.19,2.55c-0.07,0.06-0.14,0.09-0.21,0.09
			c-0.39,0-0.73-0.73-1.1-1.52c-0.08-0.16-0.15-0.32-0.23-0.47c-0.25-0.51-0.64-0.61-1.01-0.7c-0.26-0.06-0.52-0.13-0.72-0.34
			c-0.06-0.06-0.09-0.07-0.09-0.07c-0.11,0-0.13,0.76-0.13,1.05c-0.01,0.23-0.01,0.44-0.03,0.61c-0.02,0.2-0.11,0.25-0.18,0.25
			c-0.15,0-0.32-0.18-0.65-0.54c-0.31-0.34-0.7-0.75-1.16-1.07c-0.25-0.18-0.34-0.2-0.37-0.2c-0.03,0.07,0.2,0.51,0.48,0.93
			c0.04,0.06,3.51,5.6,4.79,8.61c1.28,3.01,2.13,7.47,2.14,7.52l0.46,0.32l2.52-0.5c-0.08-1.25-1.11-18.83-0.74-23.54
			c0.22-2.81,1.94-7.06,3.19-10.16c0.77-1.91,1.64-4.07,1.38-4.18c-0.03-0.01-0.05-0.01-0.08-0.01c-0.68,0-2.34,2.28-2.93,3.15
			c-0.06,0.04-1.47,0.47-1.47,1.18c0,0.78-0.31,2.34-0.32,2.41l-2.4,3.69c-0.04,0.07-0.12,0.11-0.2,0.11
			c-0.13,0-0.23-0.09-0.25-0.23c-0.09-1.31-0.35-5.73-0.03-7.68c0.38-2.27,6.25-3.48,6.93-3.61l0.24-1.54l-1.73-0.06l-0.13-2.06
			l-1.59,0.06l-0.06,2.11l-0.05,0.02c-0.03,0.01-3.36,1.36-3.98,1.92c-0.11,0.1-0.21,0.15-0.29,0.15c-0.06,0-0.11-0.03-0.15-0.08
			c-0.15-0.18-0.08-0.68-0.04-0.96l-4.73,2.4l0.45-0.4c0.3-0.27,7.32-6.54,8.48-7.32c0.35-0.24,0.75-0.36,1.18-0.36
			c0.52,0,0.95,0.18,1.16,0.28c-0.04-0.53-0.2-2.36-0.31-3.41c-0.05-0.51-0.24-0.58-0.44-0.58c-0.23,0-0.54,0.11-0.9,0.25
			c-0.3,0.11-0.65,0.24-1.02,0.33c-0.99,0.23-4.13,1.18-5.92,1.72l-0.07,0.01c-0.1,0-0.19-0.07-0.22-0.16
			c-0.03-0.1,0.01-0.2,0.09-0.27c2.76-1.95,9.28-6.5,10.1-6.5c0.94,0.07,2.73,4.12,2.93,4.58l0.01,4.11
			c0.08,0.03,0.26,0.06,0.47,0.06c0.18,0,0.35-0.03,0.52-0.08c0.37-0.12,0.03-4.32-0.12-6.11c-0.07-0.9-0.13-1.61-0.13-1.89
			c0-1.01-0.95-3.05-0.96-3.07l-0.09-0.18l0.19,0.08c0.03,0.01,2.36,0.99,3.78,2.54c1.21,1.33,0.91,2.2,0.59,3.13
			c-0.06,0.18-0.13,0.37-0.18,0.56c-0.11,0.39-0.08,0.45-0.06,0.46c0,0,0,0,0.01,0c0.08,0,0.18-0.04,0.32-0.1
			c0.27-0.11,0.63-0.27,1.06-0.27h0.11c0.18,0.01,0.36,0.04,0.4,0.16c0.05,0.16-0.18,0.35-0.64,0.73c-0.5,0.4-1.25,1.01-1.89,1.82
			c-0.97,1.23-0.95,1.76-0.85,1.97c0.09,0.18,0.29,0.27,0.61,0.27c0.11,0,0.22-0.01,0.35-0.03c0.57-0.09,1.71-1.04,2.82-1.95
			c1.14-0.94,2.21-1.83,2.7-1.83c0.06,0,0.11,0.01,0.16,0.04c0.08,0.04,0.13,0.11,0.15,0.2c0.06,0.37-0.54,1.01-1.4,1.88
			c-0.35,0.36-0.8,0.81-0.8,0.92c0.21-0.03,0.92-0.77,1.49-1.35c0.49-0.51,0.95-0.99,1.21-1.13c0.07-0.04,0.16-0.06,0.28-0.06
			c0.89,0,3.15,1.18,4.47,2.79c1.25,1.53,1.23,6.5,1.19,7.99c0,0.09-0.08,0.16-0.17,0.16c-0.06,0-0.11-0.03-0.14-0.08
			c-0.42-0.61-1.88-2.64-2.74-3.38c-0.17-0.15-0.33-0.23-0.47-0.23c-0.45,0-0.68,0.83-0.73,1.15l-0.02,0.12l-0.1-0.06
			c-0.02-0.01-2.11-1.29-3.82-1.74c-0.72-0.19-1.24-0.27-1.64-0.27c-0.57,0-0.86,0.18-1.13,0.45c0.04,0.35,1.91,1.29,3.4,2.05
			c1.4,0.71,2.72,1.38,3,1.73c0.56,0.66,0.22,5.49,0.05,7.52c-0.01,0.09-0.08,0.15-0.16,0.15c-0.07,0-0.13-0.04-0.16-0.11
			l-1.47-3.52L97,116.55l-0.58-2.58c-0.15-0.03-0.59-0.11-0.99-0.11c-0.44,0-0.6,0.09-0.66,0.17c-0.04,0.06-0.05,0.13-0.02,0.23
			c0.26,0.84,0.39,6.13,0.39,6.36l-3.03,3.18c-0.06,0.06-0.13,0.09-0.2,0.09c-0.16,0-0.28-0.13-0.28-0.28v-6.94l-1.9,1.12l0.03-0.17
			c0.01-0.03,0.52-2.93,0.91-4.15c0.34-1.08-0.64-2.35-0.8-2.55h-1.33c-0.26,0.8-3.26,10.05-4.12,12.81
			c-0.88,2.83-0.92,7.75-0.13,14.26c0.6,4.93,2.62,9.82,3.48,11.75c0.27-0.01,0.54-0.01,0.8-0.01c4.08,0,6.51,0.8,9.31,1.71
			c1.56,0.51,3.34,1.1,5.62,1.61c3.14,0.71,6.32,1.07,9.47,1.07c3.33,0,5.41-0.42,5.43-0.42l0.21-0.04l-0.13,0.16
			C117.46,155.17,107.67,158.32,102.57,158.32z"/>
		<path class="st2" d="M88.41,94.29c0,0,2.33,0.97,3.75,2.52c1.42,1.56,0.71,2.46,0.39,3.62c-0.12,0.42-0.1,0.56,0.03,0.56
			c0.21,0,0.71-0.37,1.36-0.37c0.03,0,0.07,0,0.1,0c1.1,0.06-0.78,0.78-2.2,2.59c-1.27,1.62-1.09,2.36-0.16,2.36
			c0.11,0,0.23-0.01,0.36-0.03c1.17-0.18,4.58-3.77,5.51-3.77c0.04,0,0.09,0.01,0.12,0.03c0.71,0.39-2.46,2.85-2.07,2.97
			c0.01,0.01,0.03,0.01,0.04,0.01c0.45,0,2.18-2.15,2.74-2.46c0.06-0.03,0.15-0.05,0.25-0.05c0.87,0,3.14,1.2,4.41,2.76
			c1.25,1.53,1.2,6.68,1.17,7.93c0,0.06-0.04,0.09-0.09,0.09c-0.03,0-0.06-0.01-0.08-0.04c-0.47-0.67-1.9-2.65-2.75-3.4
			c-0.2-0.18-0.37-0.25-0.52-0.25c-0.61,0-0.8,1.21-0.8,1.21s-2.1-1.3-3.84-1.74c-0.73-0.19-1.26-0.28-1.66-0.28
			c-0.56,0-0.89,0.17-1.19,0.47c-0.52,0.52,5.75,3.1,6.4,3.88c0.56,0.67,0.15,6.03,0.03,7.47c-0.01,0.05-0.04,0.08-0.09,0.08
			c-0.03,0-0.07-0.02-0.08-0.06l-1.48-3.55l-0.97-0.32l-0.58-2.59c0,0-0.56-0.12-1.06-0.12c-0.46,0-0.88,0.11-0.75,0.51
			c0.26,0.84,0.39,6.34,0.39,6.34l-3.01,3.12c-0.04,0.04-0.09,0.06-0.15,0.06c-0.11,0-0.21-0.08-0.21-0.2v-7.13l-1.88,1.1
			c0,0,0.52-2.91,0.9-4.14s-0.84-2.65-0.84-2.65h-1.42c0,0-3.23,9.96-4.14,12.87c-0.9,2.91-0.9,7.95-0.13,14.29
			c0.61,4.99,2.66,9.93,3.51,11.82c0.29-0.01,0.58-0.01,0.85-0.01c6.35,0,8.55,1.89,14.91,3.33c3.69,0.83,6.95,1.07,9.49,1.07
			c3.38,0,5.45-0.42,5.45-0.42c-1.04,1.36-10.92,4.46-15.84,4.46c-8.05,0-18.46-2.94-25.41-4.46c-1.9-0.42-3.82-0.56-5.52-0.56
			c-3.41,0-5.99,0.56-5.99,0.56c0.75-0.94,11.18-2.59,11.18-2.59s0.2-2.07-0.2-5.3c-0.37-3.09-3.98-10.46-4.36-10.46
			c-0.02,0-0.03,0.02-0.03,0.05c-0.04,0.55-0.03,0.71-0.24,0.71c-0.09,0-0.21-0.03-0.4-0.06c-0.01,0-0.03-0.01-0.04-0.01
			c-0.64,0-1.53,3.25-2.36,4.01c-0.06,0.06-0.12,0.08-0.16,0.08c-0.61,0-0.25-4.19,0.16-5.39c0.42-1.22-0.01-2.21-0.77-2.21
			c-0.04,0-0.09,0.01-0.14,0.01c-0.84,0.13-0.78,2.07-0.9,2.39c-0.07,0.18-0.34,0.34-0.67,0.34c-0.27,0-0.59-0.11-0.89-0.4
			c-0.13-0.13-0.22-0.18-0.3-0.18c-0.32,0-0.28,0.94-0.54,1.69c-0.32,0.94-1.68,1.33-2.39,1.72c-0.04,0.02-0.07,0.03-0.09,0.03
			c-0.52,0,0.43-3.36,0.68-4.1c0.26-0.78,1.62-1.42,2.26-1.94c0.47-0.37,0.06-0.51-0.35-0.51c-0.16,0-0.32,0.02-0.43,0.06
			c-0.03,0.01-0.05,0.01-0.08,0.01c-0.32,0-0.36-0.76-1.02-1.24c-0.09-0.06-0.18-0.09-0.26-0.09c-0.52,0-0.76,1.3-1.09,1.97
			c-0.06,0.11-0.1,0.16-0.14,0.16c-0.18,0-0.17-1.14-0.52-1.14c-0.07,0-0.15,0.04-0.24,0.14c-0.56,0.56-1.62,2.12-2.09,2.12
			c-0.13,0-0.22-0.13-0.24-0.44c-0.06-1.42,1.23-3.88,1.94-4.72c0.5-0.59,1.71-0.83,2.83-0.83c0.47,0,0.93,0.04,1.32,0.12
			c0.33,0.06,0.61,0.1,0.86,0.1c0.71,0,1.06-0.28,1.02-0.81c-0.06-0.59-0.78-0.87-1.18-0.87c-0.08,0-0.14,0.01-0.18,0.03
			c-0.02,0.01-0.04,0.01-0.06,0.01c-0.3,0-0.93-0.7-2.07-1.25c-0.15-0.07-0.32-0.1-0.49-0.1c-1.03,0-2.38,1.06-2.69,1.06
			c-0.07,0-0.09-0.05-0.04-0.16c0.26-0.76,2.33-1.83,3.23-2.41c0.35-0.23,0.65-0.33,0.9-0.33c0.38,0,0.65,0.23,0.85,0.59
			c0.32,0.58,0.52,0.52,0.52,0.71c0,0.03,0.02,0.04,0.06,0.04c0.15,0,0.54-0.18,0.82-0.18c0.13,0,0.23,0.04,0.28,0.14
			c0.2,0.39,1.36,2,1.55,2.59c0.14,0.42,0.56,0.58,0.97,0.58c0.16,0,0.31-0.02,0.45-0.06c0.52-0.13,0.32-3.1,0.97-4.27
			c0.18-0.34,0.75-0.46,1.47-0.46c1.8,0,4.54,0.8,4.68,1.15c0.08,0.21-0.19,0.28-0.58,0.28c-0.54,0-1.32-0.15-1.62-0.26
			c-0.03-0.01-0.06-0.02-0.09-0.02c-0.36,0,0.03,1.18-0.58,1.18c-0.01,0-0.03,0-0.04,0c-0.03,0-0.06-0.01-0.09-0.01
			c-0.7,0-1.54,0.67-1.95,1.17c-0.42,0.52-0.61,2.39,0,2.59c0.04,0.01,0.08,0.02,0.12,0.02c0.58,0,1.22-1.21,1.4-1.7
			c0.09-0.23,0.94-0.36,1.85-0.36c1.11,0,2.3,0.19,2.22,0.62c-0.13,0.78-1.23,0.58,0.2,1.23c1.42,0.64,1.55,2.07,1.62,2.46
			c0.01,0.06-0.02,0.08-0.08,0.08c-0.34,0-1.67-0.81-2.76-1.25c-0.39-0.16-0.6-0.23-0.71-0.23c-0.25,0,0.04,0.35-0.15,0.81
			c-0.28,0.64,2.35,2,2.35,2.48s0.32,2.63-0.13,3.02c-0.06,0.04-0.11,0.07-0.16,0.07c-0.41,0-0.86-1.14-1.26-1.94
			c-0.46-0.9-1.3-0.58-1.74-1.05c-0.06-0.06-0.11-0.09-0.15-0.09c-0.27,0-0.18,1.16-0.23,1.73c-0.01,0.12-0.05,0.18-0.11,0.18
			c-0.25,0-0.88-0.97-1.77-1.6c-0.21-0.15-0.34-0.21-0.42-0.21c-0.3,0,0.42,1.05,0.42,1.05s3.49,5.56,4.79,8.6
			c1.3,3.04,2.14,7.5,2.14,7.5l0.52,0.39l2.62-0.52c0,0-1.13-18.69-0.74-23.6s5.3-14.1,4.53-14.42c-0.03-0.01-0.07-0.02-0.11-0.02
			c-0.87,0-2.99,3.19-2.99,3.19s-1.49,0.46-1.49,1.23s-0.32,2.39-0.32,2.39l-2.38,3.66c-0.03,0.05-0.09,0.08-0.14,0.08
			c-0.08,0-0.16-0.06-0.16-0.15c-0.1-1.45-0.35-5.74-0.03-7.66c0.39-2.33,6.92-3.55,6.92-3.55l0.26-1.68l-1.74-0.06l-0.13-2.07
			l-1.74,0.06l-0.06,2.14c0,0-3.36,1.36-4.01,1.94c-0.1,0.09-0.18,0.13-0.24,0.13c-0.32,0-0.08-1.1-0.08-1.1l-4.33,2.2
			c0,0,7.31-6.53,8.47-7.31c0.39-0.26,0.78-0.35,1.14-0.35c0.71,0,1.25,0.35,1.25,0.35s-0.2-2.33-0.32-3.55
			c-0.05-0.49-0.23-0.64-0.52-0.64c-0.44,0-1.12,0.39-1.94,0.58c-1.01,0.24-4.3,1.23-5.92,1.72c-0.02,0.01-0.03,0.01-0.05,0.01
			c-0.14,0-0.21-0.2-0.09-0.29c2.36-1.67,9.24-6.49,10.06-6.49c0.01,0,0.01,0,0.01,0c0.9,0.06,2.85,4.53,2.85,4.53v4.14
			c0,0,0.23,0.09,0.56,0.09c0.16,0,0.35-0.02,0.54-0.09c0.58-0.2-0.2-7.05-0.2-8.08C89.4,96.36,88.41,94.29,88.41,94.29
			 M88.09,93.99l0.17,0.37c0.01,0.02,0.95,2.05,0.95,3.03c0,0.29,0.06,1,0.13,1.9c0.15,1.86,0.46,5.72,0.15,6.04
			c-0.13,0.04-0.3,0.06-0.47,0.06c-0.17,0-0.31-0.03-0.4-0.04v-4.02v-0.03l-0.01-0.03c-0.33-0.76-2.02-4.55-2.98-4.62l0,0
			c-0.83,0-6.73,4.08-10.17,6.51c-0.11,0.08-0.16,0.22-0.12,0.35c0.04,0.13,0.16,0.22,0.3,0.22c0.03,0,0.06-0.01,0.09-0.01
			c1.44-0.44,4.89-1.47,5.92-1.72c0.38-0.09,0.73-0.22,1.04-0.34c0.35-0.13,0.66-0.25,0.87-0.25c0.11,0,0.3,0,0.36,0.51
			c0.1,0.96,0.24,2.61,0.3,3.27c-0.24-0.11-0.63-0.23-1.07-0.23c-0.44,0-0.85,0.13-1.23,0.37c-1.16,0.77-8.19,7.06-8.49,7.32
			l-0.9,0.81l1.08-0.55l4.05-2.05c-0.04,0.3-0.06,0.7,0.08,0.87c0.06,0.07,0.13,0.1,0.21,0.1c0.11,0,0.21-0.06,0.34-0.17
			c0.62-0.56,3.93-1.9,3.96-1.91l0.09-0.04v-0.1l0.06-1.99l1.44-0.05l0.12,1.92l0.01,0.15l0.15,0.01l1.57,0.06l-0.21,1.4
			c-0.9,0.18-6.56,1.4-6.94,3.67c-0.32,1.9-0.09,6.01,0.03,7.69c0.01,0.17,0.15,0.3,0.32,0.3c0.11,0,0.21-0.06,0.27-0.15l2.38-3.66
			l0.02-0.03l0.01-0.03c0.01-0.07,0.33-1.64,0.33-2.42c0-0.54,0.99-0.96,1.38-1.07l0.06-0.02l0.03-0.04
			c0.8-1.21,2.29-3.12,2.86-3.12c0.02,0,0.04,0,0.05,0.01c0.12,0.25-0.67,2.2-1.43,4.08c-1.25,3.1-2.97,7.36-3.2,10.19
			c-0.37,4.65,0.63,21.77,0.73,23.49l-2.42,0.47l-0.41-0.31c-0.11-0.54-0.93-4.65-2.13-7.47c-1.28-3.02-4.76-8.57-4.8-8.62
			c-0.19-0.28-0.36-0.58-0.43-0.76c0.05,0.03,0.11,0.07,0.21,0.13c0.46,0.32,0.84,0.73,1.15,1.06c0.37,0.39,0.53,0.56,0.71,0.56
			c0.09,0,0.23-0.04,0.26-0.32c0.02-0.17,0.02-0.39,0.03-0.61c0.01-0.3,0.01-0.78,0.08-0.94c0.01,0.01,0.01,0.01,0.02,0.02
			c0.21,0.22,0.49,0.29,0.76,0.35c0.37,0.09,0.72,0.18,0.96,0.66c0.08,0.15,0.15,0.31,0.23,0.47c0.46,0.97,0.77,1.56,1.17,1.56
			c0.09,0,0.19-0.04,0.27-0.11c0.38-0.33,0.32-1.43,0.22-2.62c-0.02-0.23-0.04-0.42-0.04-0.52c0-0.27-0.37-0.56-1.06-1.09
			c-0.52-0.4-1.4-1.07-1.3-1.33c0.11-0.27,0.09-0.5,0.07-0.65c0-0.01-0.01-0.03-0.01-0.05c0.16,0.03,0.47,0.16,0.59,0.21
			c0.49,0.2,1.02,0.47,1.5,0.7c0.7,0.35,1.11,0.56,1.33,0.56c0.1,0,0.16-0.04,0.19-0.08c0.03-0.04,0.06-0.09,0.04-0.19L79.55,131
			c-0.08-0.51-0.28-1.85-1.69-2.5c-0.42-0.19-0.56-0.28-0.61-0.33c0.02-0.02,0.06-0.05,0.08-0.07c0.15-0.12,0.37-0.3,0.43-0.66
			c0.02-0.11-0.01-0.22-0.09-0.32c-0.39-0.45-1.85-0.49-2.28-0.49c-0.55,0-1.84,0.04-2,0.46c-0.21,0.58-0.82,1.6-1.25,1.6
			c-0.03,0-0.05-0.01-0.08-0.01c-0.11-0.04-0.18-0.18-0.21-0.3c-0.18-0.61,0.01-1.7,0.28-2.04c0.38-0.46,1.19-1.11,1.83-1.11
			c0.03,0,0.05,0,0.08,0.01c0.02,0,0.04,0,0.06,0c0.49,0,0.52-0.51,0.54-0.85c0.01-0.11,0.02-0.27,0.04-0.33
			c0.01,0,0.01,0.01,0.02,0.01c0.34,0.13,1.13,0.27,1.68,0.27c0.38,0,0.6-0.06,0.7-0.21c0.06-0.08,0.06-0.18,0.03-0.28
			c-0.19-0.49-3.12-1.25-4.82-1.25c-0.87,0-1.4,0.18-1.6,0.54c-0.34,0.61-0.46,1.68-0.56,2.6c-0.06,0.6-0.16,1.52-0.32,1.59
			c-0.13,0.03-0.28,0.05-0.41,0.05c-0.25,0-0.69-0.06-0.82-0.47c-0.13-0.39-0.65-1.19-1.07-1.83c-0.23-0.35-0.42-0.64-0.49-0.78
			c-0.05-0.1-0.16-0.22-0.42-0.22c-0.19,0-0.4,0.06-0.58,0.11c-0.06,0.02-0.12,0.04-0.17,0.05c-0.03-0.08-0.09-0.13-0.14-0.18
			c-0.08-0.08-0.21-0.18-0.37-0.48c-0.25-0.44-0.58-0.67-0.98-0.67c-0.3,0-0.62,0.11-0.99,0.35c-0.19,0.12-0.43,0.27-0.7,0.42
			c-1.06,0.63-2.38,1.42-2.6,2.07c-0.03,0.08-0.06,0.19,0.01,0.28c0.03,0.03,0.08,0.09,0.18,0.09c0.15,0,0.34-0.11,0.74-0.33
			c0.56-0.31,1.33-0.73,1.95-0.73c0.16,0,0.3,0.03,0.42,0.09c0.59,0.28,1.06,0.61,1.4,0.86c0.35,0.25,0.56,0.4,0.74,0.4
			c0.05,0,0.09-0.01,0.13-0.03c0.01,0,0.03-0.01,0.11-0.01c0.34,0,0.97,0.25,1.02,0.73c0.02,0.18-0.02,0.32-0.11,0.42
			c-0.13,0.15-0.39,0.22-0.75,0.22c-0.23,0-0.51-0.03-0.83-0.09c-0.4-0.08-0.87-0.12-1.35-0.12c-0.51,0-2.25,0.06-2.95,0.89
			c-0.73,0.87-2.04,3.36-1.98,4.83c0.03,0.49,0.23,0.59,0.4,0.59c0.37,0,0.86-0.57,1.57-1.44c0.24-0.29,0.46-0.57,0.63-0.74
			c0.09-0.09,0.13-0.09,0.13-0.09c0.08,0.03,0.17,0.44,0.2,0.59c0.07,0.32,0.12,0.55,0.32,0.55c0.14,0,0.21-0.13,0.28-0.25
			c0.11-0.21,0.2-0.47,0.3-0.75c0.17-0.48,0.4-1.14,0.66-1.14c0.05,0,0.11,0.03,0.17,0.07c0.32,0.23,0.49,0.54,0.62,0.8
			c0.14,0.26,0.25,0.48,0.5,0.48c0.04,0,0.08-0.01,0.13-0.02c0.09-0.03,0.23-0.05,0.38-0.05c0.25,0,0.37,0.05,0.4,0.08
			c-0.01,0-0.03,0.06-0.15,0.15c-0.18,0.14-0.42,0.3-0.67,0.46c-0.68,0.44-1.44,0.94-1.64,1.55c-0.01,0.04-1.15,3.63-0.74,4.2
			c0.05,0.08,0.13,0.11,0.21,0.11c0.06,0,0.11-0.02,0.17-0.05c0.15-0.08,0.34-0.17,0.54-0.26c0.73-0.34,1.65-0.75,1.93-1.54
			c0.11-0.3,0.16-0.63,0.21-0.92c0.04-0.25,0.11-0.63,0.18-0.67c0,0,0.06,0.01,0.18,0.13c0.37,0.37,0.75,0.45,1,0.45
			c0.38,0,0.71-0.18,0.82-0.44c0.04-0.1,0.06-0.28,0.09-0.54c0.06-0.59,0.18-1.68,0.7-1.76c0.04-0.01,0.08-0.01,0.11-0.01
			c0.22,0,0.41,0.1,0.55,0.3c0.27,0.39,0.3,1.04,0.06,1.7c-0.38,1.07-0.77,4.77-0.28,5.45c0.09,0.13,0.19,0.15,0.27,0.15
			c0.09,0,0.18-0.04,0.27-0.13c0.4-0.37,0.81-1.28,1.19-2.15c0.32-0.73,0.81-1.82,1.05-1.82l0.04-0.15v0.16
			c0.18,0.04,0.3,0.06,0.4,0.06c0.31,0,0.35-0.23,0.38-0.59c0.8,1.18,3.76,7.26,4.1,10.15c0.33,2.74,0.23,4.66,0.2,5.15
			c-1.53,0.25-10.41,1.69-11.16,2.62l-0.28,0.35l0.44-0.09c0.03-0.01,2.6-0.55,5.96-0.55c1.97,0,3.81,0.18,5.49,0.55
			c1.4,0.3,2.93,0.67,4.56,1.06c6.43,1.52,14.43,3.41,20.88,3.41c4.79,0,14.84-3.05,15.97-4.53l0.25-0.34l-0.41,0.08
			c-0.02,0.01-2.09,0.42-5.42,0.42c-3.14,0-6.32-0.36-9.45-1.06c-2.28-0.51-4.05-1.09-5.61-1.61c-2.81-0.92-5.23-1.72-9.33-1.72
			c-0.25,0-0.49,0-0.75,0.01c-0.87-1.95-2.86-6.8-3.45-11.67c-0.8-6.49-0.75-11.41,0.13-14.23c0.84-2.71,3.75-11.66,4.1-12.76h1.23
			c0.21,0.27,1.08,1.45,0.77,2.45c-0.39,1.23-0.89,4.04-0.91,4.16l-0.04,0.31l0.3-0.17l1.64-0.96v6.85c0,0.2,0.16,0.36,0.37,0.36
			c0.1,0,0.19-0.04,0.26-0.11l3.01-3.12l0.04-0.05v-0.06c-0.01-0.23-0.13-5.53-0.39-6.38c-0.03-0.11,0-0.15,0.01-0.16
			c0.03-0.04,0.15-0.14,0.59-0.14c0.35,0,0.75,0.06,0.92,0.1l0.56,2.48l0.02,0.09l0.08,0.03l0.9,0.3l1.45,3.48
			c0.04,0.09,0.13,0.15,0.23,0.15c0.13,0,0.23-0.09,0.25-0.22c0.21-2.55,0.49-6.92-0.07-7.58c-0.3-0.36-1.57-1-3.03-1.74
			c-1.28-0.64-3.19-1.61-3.36-1.95c0.25-0.24,0.52-0.4,1.05-0.4c0.39,0,0.9,0.09,1.62,0.27c1.7,0.44,3.78,1.71,3.8,1.73l0.2,0.13
			l0.04-0.23c0.04-0.28,0.26-1.08,0.65-1.08c0.12,0,0.26,0.07,0.42,0.21c0.85,0.74,2.3,2.76,2.72,3.37c0.05,0.07,0.12,0.11,0.2,0.11
			c0.14,0,0.25-0.11,0.25-0.25c0.04-1.49,0.06-6.49-1.21-8.04c-1.33-1.64-3.64-2.83-4.53-2.83c-0.13,0-0.24,0.03-0.32,0.07
			c-0.27,0.15-0.71,0.61-1.23,1.14c-0.3,0.31-0.72,0.75-1.04,1.03c0.15-0.15,0.32-0.33,0.47-0.49c0.87-0.89,1.48-1.54,1.42-1.95
			c-0.02-0.11-0.08-0.2-0.18-0.26c-0.06-0.03-0.12-0.04-0.2-0.04c-0.49,0-1.37,0.7-2.75,1.85c-1.05,0.87-2.24,1.85-2.78,1.93
			c-0.12,0.02-0.23,0.03-0.34,0.03c-0.2,0-0.46-0.04-0.54-0.22c-0.08-0.15-0.14-0.64,0.83-1.88c0.64-0.81,1.38-1.41,1.88-1.81
			c0.51-0.41,0.74-0.59,0.67-0.82c-0.06-0.17-0.27-0.21-0.47-0.21c-0.04,0-0.08-0.01-0.11-0.01c-0.45,0-0.82,0.16-1.09,0.27
			c-0.08,0.03-0.16,0.07-0.22,0.09c0.01-0.05,0.02-0.16,0.07-0.35c0.05-0.19,0.12-0.38,0.18-0.56c0.32-0.91,0.64-1.85-0.61-3.21
			c-1.43-1.56-3.71-2.52-3.81-2.56L88.09,93.99L88.09,93.99z"/>
	</g>
	<path class="st3" d="M95.33,143.17c0,0-1.74,2.97-2.26,3.95c-0.52,0.97,1.1,3.04,0.32,4.07c-0.78,1.04-1.3-0.13-1.42,0.46
		c-0.13,0.58-0.39,1.3-1.23,1.42s-1.68,0-1.68-0.84s-0.58-1.3-1.16-0.97c-0.58,0.32-3.3,1.49-3.17,0.71
		c0.13-0.78,0.38-2.52-0.01-3.17c-0.39-0.64-2.45-1.62-2.13-2.59s1.42-1.04,1.49-1.62c0.06-0.58-0.64-1.36,0.2-1.42
		c0.84-0.06,2.26,0.58,2.33,0c0.06-0.58,0.39-2.46,1.04-2.39c0.64,0.06,2.65,0.06,2.91-0.39c0.26-0.46,0.58-1.36,0.13-1.74
		s-1.04,0.26-1.23-0.52c-0.2-0.78-0.2-1.74,0.46-1.74c0.65,0,2.07-0.06,2.26-0.52c0.2-0.46,1.62-1.16,2.33-0.97
		c0.71,0.2,2.13,0.32,2.26-0.03c0.13-0.35,0.13-2.04,0.84-2.04c0.71,0,2.07,0.71,2.33,0c0.26-0.71,0.84-1.1,0.78-1.68
		s-0.71-0.84-0.39-1.36c0.32-0.52,0.01-0.9,0.39-1.3c0.39-0.39-0.27-2.33,0.32-2.2c0.58,0.13,2.07,0.46,2.33,0.32
		c0.26-0.13,2.13-0.08,2.26-0.33c0.13-0.25,0.9-0.71,1.36-0.38c0.46,0.32,0.13,1.49,0.58,1.62c0.46,0.13,1.23,1.1,1.42,1.49
		c0.2,0.39,1.16,0.64,1.23,0.32c0.06-0.32,0.39-1.49,1.04-1.3c0.64,0.2,0.84,0.71,1.42,1.3c0.58,0.58,1.23,1.36,2.39,1.74
		s2.52,0.9,2.26,1.49c-0.26,0.58-0.64,1.55-1.16,2.2s-0.52,1.74-0.26,2.52c0.26,0.78,2.46,1.68,3.43,2.16
		c0.97,0.49,0.84,1.59,0,1.85c-0.84,0.26-2.07-0.9-2.39,0.13c-0.32,1.04-0.78,1.94-1.55,1.94c-0.78,0-4.39-1.42-4.46-0.64
		c-0.06,0.78-0.64,1.55-0.97,1.49c-0.32-0.06-1.62-0.52-1.68-1.3c-0.06-0.78-0.84-1.81-0.78-2.33c0.06-0.52-0.2-2.26,0.52-2.52
		c0.71-0.26,1.62,0.13,1.74-0.58c0.13-0.71,0.52-1.94-0.46-2.2c-0.97-0.26-1.94-1.23-2.59-1.36c-0.64-0.13-0.97,0.84-1.62,0.97
		c-0.65,0.13-1.74,0.9-1.88,0.39c-0.13-0.52,0-2.07-0.52-2.33c-0.52-0.26-1.62-0.52-1.74,0.06s-0.32,2,0.32,2.46s1.42,1.1,1.16,1.68
		c-0.26,0.58,1.3,0.52,1.36,1.42c0.06,0.9-0.32,1.3-1.04,1.88c-0.71,0.58-1.3,1.81-0.84,2.2c0.46,0.39,1.55,1.16,2.26,1.04
		c0.71-0.13,3.88-0.32,3.95,0.52c0.06,0.84,0.06,2.72-0.39,3.17c-0.46,0.46-2.33,1.62-1.68,2.26c0.64,0.64,2.26,0.26,2.52-0.46
		c0.26-0.71,0.2-1.49,1.16-1.23s1.36-0.13,1.42-0.58c0.06-0.46,2.39-2.07,3.1-1.74c0.71,0.32,1.1,1.94,0.84,2.39
		c-0.26,0.46-1.55,0.78-1.23,1.42s1.49,1.23,0.97,1.62c-0.52,0.39-2.39,0.71-2.13,1.49c0.26,0.78,0.64,1.3,0.32,1.55
		c-0.32,0.26-1.49,1.42-2.26,1.16c-0.78-0.26-1.04-1.62-1.55-1.3c-0.51,0.32-1.81,0.71-2.33,0.46c-0.52-0.26-1.88-1.62-2.07-1.23
		c-0.2,0.39-0.52,1.1-0.97,1.3c-0.46,0.2-2.33,0.71-2.26,0.2c0.06-0.52,0.9-1.62,0.39-1.55c-0.52,0.06-2.2-0.78-2.91-0.32
		c-0.71,0.46-1.88,0.46-2.33-0.13c-0.46-0.58-0.71-2.07,0.97-3.49c1.68-1.42,2.2-3.1,1.23-3.1c-0.97,0-1.88,0-1.88-0.9
		c0-0.9,0.52-2.26-0.2-2.26S95.33,143.17,95.33,143.17z"/>
	<polyline class="st4" points="105.1,134.9 105.65,138.26 105.3,139.18 107.5,139.48 	"/>
	<polyline class="st4" points="94.53,144.56 96.11,146.09 96.11,146.99 96.11,151.58 	"/>
	<path class="st4" d="M102.79,143.27c0,0,0.68-1.65,1.98-3.4c1.3-1.74,3.85-4.87,3.85-4.87"/>
	<line class="st4" x1="97.41" y1="145.83" x2="96.11" y2="146.99"/>
	<path class="st5" d="M95.33,143.17c0,0-1.74,2.97-2.26,3.95c-0.52,0.97,1.1,3.04,0.32,4.07c-0.78,1.04-1.3-0.13-1.42,0.46
		c-0.13,0.58-0.39,1.3-1.23,1.42s-1.68,0-1.68-0.84s-0.58-1.3-1.16-0.97c-0.58,0.32-3.3,1.49-3.17,0.71
		c0.13-0.78,0.38-2.52-0.01-3.17c-0.39-0.64-2.45-1.62-2.13-2.59s1.42-1.04,1.49-1.62c0.06-0.58-0.64-1.36,0.2-1.42
		c0.84-0.06,2.26,0.58,2.33,0c0.06-0.58,0.39-2.46,1.04-2.39c0.64,0.06,2.65,0.06,2.91-0.39c0.26-0.46,0.58-1.36,0.13-1.74
		s-1.04,0.26-1.23-0.52c-0.2-0.78-0.2-1.74,0.46-1.74c0.65,0,2.07-0.06,2.26-0.52c0.2-0.46,1.62-1.16,2.33-0.97
		c0.71,0.2,2.13,0.32,2.26-0.03c0.13-0.35,0.13-2.04,0.84-2.04c0.71,0,2.07,0.71,2.33,0c0.26-0.71,0.84-1.1,0.78-1.68
		s-0.71-0.84-0.39-1.36c0.32-0.52,0.01-0.9,0.39-1.3c0.39-0.39-0.27-2.33,0.32-2.2c0.58,0.13,2.07,0.46,2.33,0.32
		c0.26-0.13,2.13-0.08,2.26-0.33c0.13-0.25,0.9-0.71,1.36-0.38c0.46,0.32,0.13,1.49,0.58,1.62c0.46,0.13,1.23,1.1,1.42,1.49
		c0.2,0.39,1.16,0.64,1.23,0.32c0.06-0.32,0.39-1.49,1.04-1.3c0.64,0.2,0.84,0.71,1.42,1.3c0.58,0.58,1.23,1.36,2.39,1.74
		s2.52,0.9,2.26,1.49c-0.26,0.58-0.64,1.55-1.16,2.2s-0.52,1.74-0.26,2.52c0.26,0.78,2.46,1.68,3.43,2.16
		c0.97,0.49,0.84,1.59,0,1.85c-0.84,0.26-2.07-0.9-2.39,0.13c-0.32,1.04-0.78,1.94-1.55,1.94c-0.78,0-4.39-1.42-4.46-0.64
		c-0.06,0.78-0.64,1.55-0.97,1.49c-0.32-0.06-1.62-0.52-1.68-1.3c-0.06-0.78-0.84-1.81-0.78-2.33c0.06-0.52-0.2-2.26,0.52-2.52
		c0.71-0.26,1.62,0.13,1.74-0.58c0.13-0.71,0.52-1.94-0.46-2.2c-0.97-0.26-1.94-1.23-2.59-1.36c-0.64-0.13-0.97,0.84-1.62,0.97
		c-0.65,0.13-1.74,0.9-1.88,0.39c-0.13-0.52,0-2.07-0.52-2.33c-0.52-0.26-1.62-0.52-1.74,0.06s-0.32,2,0.32,2.46s1.42,1.1,1.16,1.68
		c-0.26,0.58,1.3,0.52,1.36,1.42c0.06,0.9-0.32,1.3-1.04,1.88c-0.71,0.58-1.3,1.81-0.84,2.2c0.46,0.39,1.55,1.16,2.26,1.04
		c0.71-0.13,3.88-0.32,3.95,0.52c0.06,0.84,0.06,2.72-0.39,3.17c-0.46,0.46-2.33,1.62-1.68,2.26c0.64,0.64,2.26,0.26,2.52-0.46
		c0.26-0.71,0.2-1.49,1.16-1.23s1.36-0.13,1.42-0.58c0.06-0.46,2.39-2.07,3.1-1.74c0.71,0.32,1.1,1.94,0.84,2.39
		c-0.26,0.46-1.55,0.78-1.23,1.42s1.49,1.23,0.97,1.62c-0.52,0.39-2.39,0.71-2.13,1.49c0.26,0.78,0.64,1.3,0.32,1.55
		c-0.32,0.26-1.49,1.42-2.26,1.16c-0.78-0.26-1.04-1.62-1.55-1.3c-0.51,0.32-1.81,0.71-2.33,0.46c-0.52-0.26-1.88-1.62-2.07-1.23
		c-0.2,0.39-0.52,1.1-0.97,1.3c-0.46,0.2-2.33,0.71-2.26,0.2c0.06-0.52,0.9-1.62,0.39-1.55c-0.52,0.06-2.2-0.78-2.91-0.32
		c-0.71,0.46-1.88,0.46-2.33-0.13c-0.46-0.58-0.71-2.07,0.97-3.49c1.68-1.42,2.2-3.1,1.23-3.1c-0.97,0-1.88,0-1.88-0.9
		c0-0.9,0.52-2.26-0.2-2.26S95.33,143.17,95.33,143.17z"/>
</g>
<g id="Agence_x5F_immobiliere">
	<g id="Tas_droite">
	</g>
	<g id="Tas_milieu">
	</g>
	<g id="Tas_gauche">
	</g>
</g>
<g id="N_x5F_bis">
</g>
<g id="Agence_x5F_interim">
</g>
<g id="Piscine_00000107566784248499352030000008077343621116538778_">
</g>
<g id="Geometre">
</g>
</svg>
