<?xml version="1.0" encoding="utf-8"?>
<!-- Generator: Adobe Illustrator 28.1.0, SVG Export Plug-In . SVG Version: 6.00 Build 0)  -->
<svg version="1.1" id="Calque_1" xmlns="http://www.w3.org/2000/svg" xmlns:xlink="http://www.w3.org/1999/xlink" x="0px" y="0px"
	 viewBox="0 0 160 250" style="enable-background:new 0 0 160 250;" xml:space="preserve">
<style type="text/css">
	.st0{fill:#AEA391;stroke:#000000;stroke-width:0.25;stroke-miterlimit:10;}
	.st1{fill:#EFEFF0;stroke:#000000;stroke-width:0.25;stroke-miterlimit:10;}
</style>
<g id="Paysagiste">
</g>
<g id="Agence_x5F_immobiliere">
	<g id="Tas_droite">
	</g>
	<g id="Tas_milieu">
	</g>
	<g id="Tas_gauche">
	</g>
</g>
<g id="N_x5F_bis">
</g>
<g id="Agence_x5F_interim">
</g>
<g id="Piscine_00000107566784248499352030000008077343621116538778_">
</g>
<g id="Geometre">
	<polygon id="Maison" class="st0" points="46.9,148.19 46.9,120.33 40,120.33 40,118.43 64.76,93.66 71.19,100.09 92.5,100.09 
		92.5,93.66 100.11,93.66 100.11,99.62 106.07,99.62 115.65,109.2 115.65,148.19 	"/>
	<g id="Bariere">
		<polygon class="st1" points="82.43,155.09 82.43,116.16 85.14,113.45 87.62,115.92 87.62,155.09 		"/>
		<polygon class="st1" points="89.98,155.09 89.98,116.16 92.69,113.45 95.17,115.92 95.17,155.09 		"/>
		<polygon class="st1" points="97.52,155.09 97.52,116.16 100.24,113.45 102.71,115.92 102.71,155.09 		"/>
		<polygon class="st1" points="105.14,155.09 105.14,116.16 107.85,113.45 110.33,115.92 110.33,155.09 		"/>
		<polygon class="st1" points="119.99,110.49 118.31,110.49 118.31,108.14 115.83,105.09 113.12,108.43 113.12,110.49 
			111.43,110.49 111.43,113.13 113.12,113.13 113.12,156.39 118.31,156.39 118.31,113.13 119.99,113.13 		"/>
		<polygon class="st1" points="80.08,110.49 78.38,110.49 78.38,108.14 75.91,105.09 73.2,108.43 73.2,110.49 71.51,110.49 
			71.51,113.13 73.2,113.13 73.2,156.39 78.38,156.39 78.38,113.13 80.08,113.13 		"/>
		<rect x="70.68" y="120.01" class="st1" width="49.32" height="2.94"/>
		<rect x="70.68" y="147.52" class="st1" width="49.32" height="2.94"/>
	</g>
</g>
</svg>
