<?xml version="1.0" encoding="utf-8"?>
<!-- Generator: Adobe Illustrator 28.1.0, SVG Export Plug-In . SVG Version: 6.00 Build 0)  -->
<svg version="1.1" id="Calque_1" xmlns="http://www.w3.org/2000/svg" xmlns:xlink="http://www.w3.org/1999/xlink" x="0px" y="0px"
	 viewBox="0 0 160 250" style="enable-background:new 0 0 160 250;" xml:space="preserve">
<style type="text/css">
	.st0{fill:#78CCD8;stroke:#000000;stroke-width:0.25;stroke-miterlimit:10;}
	.st1{fill:#5ABDE7;}
	.st2{fill:#9DCCDD;}
	.st3{fill:#378DAD;}
	.st4{opacity:0.43;fill:url(#SVGID_1_);enable-background:new    ;}
	.st5{opacity:0.43;fill:url(#SVGID_00000142881982320104718230000017308835963165691780_);enable-background:new    ;}
	.st6{fill:#388DAD;stroke:#9DCCDD;stroke-miterlimit:10;}
	.st7{fill:#DBEBF3;}
	.st8{fill:#307791;}
</style>
<g id="Paysagiste">
</g>
<g id="Agence_x5F_immobiliere">
	<g id="Tas_droite">
	</g>
	<g id="Tas_milieu">
	</g>
	<g id="Tas_gauche">
	</g>
</g>
<g id="N_x5F_bis">
</g>
<g id="Agence_x5F_interim">
</g>
<g id="Piscine_00000107566784248499352030000008077343621116538778_">
	<polygon id="Fond" class="st0" points="40.09,100.5 49.74,142.31 102.25,142.31 115.03,123.35 	"/>
	<g id="Piscine">
		<g>
			<path class="st1" d="M93.36,149.42c-14.6,0-26.47-4.73-26.47-10.55s11.88-10.55,26.47-10.55s26.47,4.73,26.47,10.55
				S107.95,149.42,93.36,149.42z"/>
			<path class="st2" d="M93.36,128.58c14.48,0,26.22,4.61,26.22,10.3s-11.74,10.3-26.22,10.3s-26.22-4.61-26.22-10.3
				S78.88,128.58,93.36,128.58 M93.36,128.07c-14.99,0-26.73,4.75-26.73,10.81s11.74,10.81,26.73,10.81s26.73-4.75,26.73-10.81
				S108.35,128.07,93.36,128.07L93.36,128.07z"/>
		</g>
		<path class="st3" d="M93.88,133.19c12.05,0,22.19,3.19,25.26,7.54c0.28-0.61,0.43-1.22,0.43-1.86c0-5.68-11.74-10.3-26.22-10.3
			s-26.22,4.61-26.22,10.3c0,0.96,0.34,1.88,0.96,2.76C70.32,136.83,81.01,133.19,93.88,133.19z"/>
		
			<linearGradient id="SVGID_1_" gradientUnits="userSpaceOnUse" x1="101.0271" y1="867.2099" x2="118.698" y2="867.2099" gradientTransform="matrix(1 0 0 1 0 -728)">
			<stop  offset="0" style="stop-color:#FFFFFF;stop-opacity:0.3"/>
			<stop  offset="1" style="stop-color:#FFFFFF"/>
		</linearGradient>
		<path class="st4" d="M101.14,135.31c1.56,0.11,3.11,0.3,4.66,0.56c1.54,0.26,3.09,0.59,4.6,1.03c1.53,0.44,3.02,1.04,4.45,1.77
			c0.72,0.37,1.43,0.78,2.1,1.26c0.34,0.24,0.67,0.5,1,0.79c0.16,0.15,0.32,0.3,0.48,0.47c0.12,0.13,0.23,0.27,0.23,0.27
			c0.02,0.02,0.03,0.04,0.04,0.05c-0.17,0.24-0.38,0.51-0.62,0.79c-0.28,0.32-0.56,0.58-0.81,0.79c-0.04-0.08-0.1-0.23-0.17-0.37
			c-0.03-0.04-0.05-0.08-0.05-0.09c-0.04-0.06-0.08-0.12-0.13-0.19c-0.09-0.13-0.2-0.26-0.32-0.39c-0.23-0.25-0.48-0.51-0.75-0.75
			c-0.54-0.48-1.14-0.93-1.77-1.34c-1.96-1.3-4.02-2.13-4.02-2.13C106.47,136.35,102.38,135.54,101.14,135.31z"/>
		
			<linearGradient id="SVGID_00000099646843541342187790000008898060873854673549_" gradientUnits="userSpaceOnUse" x1="52.7295" y1="896.3522" x2="67.5338" y2="896.3522" gradientTransform="matrix(0.9962 -0.0872 0.0872 0.9962 -32.6879 -748.827)">
			<stop  offset="0" style="stop-color:#FFFFFF;stop-opacity:0.3"/>
			<stop  offset="1" style="stop-color:#FFFFFF"/>
		</linearGradient>
		<path style="opacity:0.43;fill:url(#SVGID_00000099646843541342187790000008898060873854673549_);enable-background:new    ;" d="
			M97.83,136.52c-0.1-0.01,2.13-0.18,4.69,0.15c1.98,0.25,5.3,0.57,8.39,2.75c0.97,0.68,1.67,1.36,2.1,1.82
			c-0.44-0.32-1.08-0.74-1.87-1.18c-0.91-0.5-2.36-1.18-4.19-1.77C103.23,137.09,99.09,136.64,97.83,136.52z"/>
	</g>
	<g id="Parasol">
		<path class="st6" d="M61.95,124.81c0.37,5.92,0.74,11.85,1.11,17.77c-0.53-0.05-1.77-0.1-3.1,0.57c-1.69,0.84-2.42,2.26-2.64,2.71
			c4.42,0,8.84,0,13.27,0c-0.38-0.57-1.14-1.53-2.43-2.29c-1.59-0.94-3.12-1.04-3.82-1.04c-0.36-5.93-0.72-11.86-1.08-17.79
			L61.95,124.81z"/>
		<path class="st6" d="M48.7,125.3c0.77-0.26,2.4-0.7,4.45-0.35c1.96,0.34,3.32,1.24,3.96,1.74c0.75-0.54,2.76-1.82,5.63-1.95
			c2.82-0.13,4.89,0.92,5.69,1.39c0.45-0.7,1.4-1.96,3.06-2.92c1.29-0.74,2.5-1.01,3.26-1.11c-0.3-1.68-1.04-4.27-3.13-6.39
			c-5.04-5.15-15.5-5.09-20.28,0.69C48.72,119.57,48.61,123.47,48.7,125.3z"/>
		<path class="st7" d="M57.1,126.69c-0.33-0.75-2.35-5.64,0.15-10.45c1.19-2.27,2.9-3.61,3.93-4.27c1.1,0.52,3.76,1.97,5.62,5.09
			c2.4,4,1.81,8.01,1.61,9.07c-0.81-0.46-2.88-1.51-5.69-1.39C59.86,124.87,57.86,126.14,57.1,126.69z"/>
	</g>
	<g id="Echelle">
		<path class="st8" d="M79.75,143.21l-1.53,0.14v-8.13c0-0.8,0-1.52,0.01-2.19c0.01-4.6-0.01-5.83-0.57-6.31
			c-0.23-0.2-0.69-0.29-1.59-0.29c-0.26,0-0.64,0.07-0.87,0.21c-0.57,0.36-0.56,0.83-0.51,3.67c0.01,0.42,0.01,0.26,0.01,0.74
			l-1.52,0.61c-0.01-0.48,0.01,0.19-0.01-0.23c-0.05-3.61-0.08-5.26,1.21-6.08c0.66-0.42,1.46-0.45,1.69-0.45
			c1.1,0,1.97,0.11,2.59,0.66c1.11,0.96,1.11,2.21,1.09,7.47c0,0.66-0.01,1.38-0.01,2.18L79.75,143.21z"/>
		<path class="st8" d="M86.58,142.13l-1.53,0.14l0.01-10.22c0.01-4.58-0.01-5.8-0.57-6.29c-0.23-0.2-0.69-0.29-1.59-0.29
			c-0.38,0-0.65,0.06-0.85,0.2c-0.38,0.26-0.52,0.14-0.51,3.42l-1.53,0.34c-0.02-4.36,0.21-4.36,1.18-5.03
			c0.46-0.32,1.02-0.47,1.71-0.47c1.1,0,1.97,0.11,2.59,0.66c1.11,0.96,1.1,2.21,1.09,7.44V142.13z"/>
		<polygon class="st8" points="79.75,135.86 79.75,134.32 85.05,133.4 85.05,134.95 		"/>
		<polygon class="st8" points="79.75,140.46 79.75,138.9 85.05,137.95 85.05,139.51 		"/>
	</g>
</g>
<g id="Geometre">
</g>
</svg>
