<?xml version="1.0" encoding="utf-8"?>
<!-- Generator: Adobe Illustrator 28.1.0, SVG Export Plug-In . SVG Version: 6.00 Build 0)  -->
<svg version="1.1" id="Calque_1" xmlns="http://www.w3.org/2000/svg" xmlns:xlink="http://www.w3.org/1999/xlink" x="0px" y="0px"
	 viewBox="0 0 160 250" style="enable-background:new 0 0 160 250;" xml:space="preserve">
<style type="text/css">
	.st0{fill:#AE80A9;stroke:#000000;stroke-width:0.25;stroke-miterlimit:10;}
	.st1{fill:#955F9B;}
	.st2{fill:#C38FBD;}
	.st3{opacity:0.47;fill:#FFFFFF;enable-background:new    ;}
</style>
<g id="Paysagiste">
</g>
<g id="Agence_x5F_immobiliere">
	<polygon class="st0" points="40,145.95 56.15,117.26 95.5,107.03 90.29,102.8 120,100.17 99.6,121.23 99.6,113.33 	"/>
	<g id="Tas_droite">
		<g>
			<path class="st1" d="M75.99,137.31c0,3.05,4.45,5.51,9.82,5.51c5.38,0,9.73-2.47,9.73-5.51v-2.05c0-3.05-4.54-5.51-9.92-5.51
				c-5.38,0-9.64,2.47-9.64,5.51V137.31z"/>
			<ellipse class="st2" cx="85.77" cy="135.15" rx="9.73" ry="5.51"/>
			<path class="st3" d="M88.73,135.64c-0.06-0.43-0.24-0.76-0.53-1c-0.29-0.23-0.62-0.4-1-0.51c-0.26-0.08-0.58-0.15-0.96-0.22
				l-0.04-1.61c0.67,0.08,1.07,0.36,1.18,0.85h0.85c-0.09-0.48-0.36-0.83-0.83-1.06c-0.34-0.18-0.75-0.29-1.23-0.33l-0.02-0.9h-0.74
				l-0.02,0.89c-0.53,0.03-0.97,0.13-1.33,0.33c-0.43,0.24-0.68,0.55-0.73,0.95c-0.04,0.37,0.09,0.67,0.4,0.91
				c0.31,0.23,0.85,0.42,1.6,0.56l-0.04,2.33c-0.36-0.06-0.68-0.17-0.95-0.33c-0.41-0.25-0.62-0.62-0.62-1.11H82.8
				c-0.06,0.65,0.15,1.21,0.65,1.66c0.41,0.37,1.03,0.6,1.85,0.68l-0.03,1.73h1.11l-0.04-1.72c0.74-0.05,1.34-0.26,1.78-0.62
				C88.61,136.7,88.81,136.21,88.73,135.64z M84.49,133.47c-0.21-0.11-0.31-0.27-0.29-0.49c0.02-0.23,0.16-0.4,0.43-0.54
				c0.2-0.1,0.45-0.16,0.76-0.18l-0.03,1.46C84.96,133.65,84.67,133.56,84.49,133.47z M87.32,136.54c-0.27,0.17-0.6,0.27-1.02,0.31
				l-0.05-2.18c0.4,0.09,0.72,0.18,0.94,0.28c0.35,0.15,0.55,0.4,0.58,0.75C87.81,136.05,87.66,136.33,87.32,136.54z"/>
		</g>
		<g>
			<path class="st1" d="M75.99,134.81c0,3.05,4.45,5.51,9.82,5.51c5.38,0,9.73-2.47,9.73-5.51v-2.05c0-3.05-4.54-5.51-9.92-5.51
				c-5.38,0-9.64,2.47-9.64,5.51V134.81z"/>
			<ellipse class="st2" cx="85.77" cy="132.65" rx="9.73" ry="5.51"/>
			<path class="st3" d="M88.73,133.13c-0.06-0.43-0.24-0.76-0.53-1c-0.29-0.23-0.62-0.4-1-0.51c-0.26-0.08-0.58-0.15-0.96-0.22
				l-0.04-1.61c0.67,0.08,1.07,0.36,1.18,0.85h0.85c-0.09-0.48-0.36-0.83-0.83-1.06c-0.34-0.18-0.75-0.29-1.23-0.33l-0.02-0.9h-0.74
				l-0.02,0.89c-0.53,0.03-0.97,0.13-1.33,0.33c-0.43,0.24-0.68,0.55-0.73,0.95c-0.04,0.37,0.09,0.67,0.4,0.91
				c0.31,0.23,0.85,0.42,1.6,0.56l-0.04,2.33c-0.36-0.06-0.68-0.17-0.95-0.33c-0.41-0.25-0.62-0.62-0.62-1.11H82.8
				c-0.06,0.65,0.15,1.21,0.65,1.66c0.41,0.37,1.03,0.6,1.85,0.68l-0.03,1.73h1.11l-0.04-1.72c0.74-0.05,1.34-0.26,1.78-0.62
				C88.61,134.2,88.81,133.7,88.73,133.13z M84.49,130.97c-0.21-0.11-0.31-0.27-0.29-0.49c0.02-0.23,0.16-0.4,0.43-0.54
				c0.2-0.1,0.45-0.16,0.76-0.18l-0.03,1.46C84.96,131.14,84.67,131.06,84.49,130.97z M87.32,134.04c-0.27,0.17-0.6,0.27-1.02,0.31
				l-0.05-2.18c0.4,0.09,0.72,0.18,0.94,0.28c0.35,0.15,0.55,0.4,0.58,0.75C87.81,133.55,87.66,133.83,87.32,134.04z"/>
		</g>
		<g>
			<path class="st1" d="M75.99,132.31c0,3.05,4.45,5.51,9.82,5.51c5.38,0,9.73-2.47,9.73-5.51v-2.05c0-3.05-4.54-5.51-9.92-5.51
				c-5.38,0-9.64,2.47-9.64,5.51V132.31z"/>
			<ellipse class="st2" cx="85.77" cy="130.15" rx="9.73" ry="5.51"/>
			<path class="st3" d="M88.73,130.63c-0.06-0.43-0.24-0.76-0.53-1c-0.29-0.23-0.62-0.4-1-0.51c-0.26-0.08-0.58-0.15-0.96-0.22
				l-0.04-1.61c0.67,0.08,1.07,0.36,1.18,0.85h0.85c-0.09-0.48-0.36-0.83-0.83-1.06c-0.34-0.18-0.75-0.29-1.23-0.33l-0.02-0.9h-0.74
				l-0.02,0.89c-0.53,0.03-0.97,0.13-1.33,0.33c-0.43,0.24-0.68,0.55-0.73,0.95c-0.04,0.37,0.09,0.67,0.4,0.91
				c0.31,0.23,0.85,0.42,1.6,0.56l-0.04,2.33c-0.36-0.06-0.68-0.17-0.95-0.33c-0.41-0.25-0.62-0.62-0.62-1.11H82.8
				c-0.06,0.65,0.15,1.21,0.65,1.66c0.41,0.37,1.03,0.6,1.85,0.68l-0.03,1.73h1.11l-0.04-1.72c0.74-0.05,1.34-0.26,1.78-0.62
				C88.61,131.71,88.81,131.21,88.73,130.63z M84.49,128.47c-0.21-0.11-0.31-0.27-0.29-0.49c0.02-0.23,0.16-0.4,0.43-0.54
				c0.2-0.1,0.45-0.16,0.76-0.18l-0.03,1.46C84.96,128.65,84.67,128.56,84.49,128.47z M87.32,131.54c-0.27,0.17-0.6,0.27-1.02,0.31
				l-0.05-2.18c0.4,0.09,0.72,0.18,0.94,0.28c0.35,0.15,0.55,0.4,0.58,0.75C87.81,131.04,87.66,131.33,87.32,131.54z"/>
		</g>
		<g>
			<path class="st1" d="M75.99,129.81c0,3.05,4.45,5.51,9.82,5.51c5.38,0,9.73-2.47,9.73-5.51v-2.05c0-3.05-4.54-5.51-9.92-5.51
				c-5.38,0-9.64,2.47-9.64,5.51C75.99,127.76,75.99,129.81,75.99,129.81z"/>
			<ellipse class="st2" cx="85.77" cy="127.65" rx="9.73" ry="5.51"/>
			<path class="st3" d="M88.73,128.13c-0.06-0.43-0.24-0.76-0.53-1c-0.29-0.23-0.62-0.4-1-0.51c-0.26-0.08-0.58-0.15-0.96-0.22
				l-0.04-1.61c0.67,0.08,1.07,0.36,1.18,0.85h0.85c-0.09-0.48-0.36-0.83-0.83-1.06c-0.34-0.18-0.75-0.29-1.23-0.33l-0.02-0.9h-0.74
				l-0.02,0.89c-0.53,0.03-0.97,0.13-1.33,0.33c-0.43,0.24-0.68,0.55-0.73,0.95c-0.04,0.37,0.09,0.67,0.4,0.91
				c0.31,0.23,0.85,0.42,1.6,0.56l-0.04,2.33c-0.36-0.06-0.68-0.17-0.95-0.33c-0.41-0.25-0.62-0.62-0.62-1.11H82.8
				c-0.06,0.65,0.15,1.21,0.65,1.66c0.41,0.37,1.03,0.6,1.85,0.68l-0.03,1.73h1.11l-0.04-1.72c0.74-0.05,1.34-0.26,1.78-0.62
				C88.61,129.2,88.81,128.7,88.73,128.13z M84.49,125.97c-0.21-0.11-0.31-0.27-0.29-0.49c0.02-0.23,0.16-0.4,0.43-0.54
				c0.2-0.1,0.45-0.16,0.76-0.18l-0.03,1.46C84.96,126.14,84.67,126.06,84.49,125.97z M87.32,129.04c-0.27,0.17-0.6,0.27-1.02,0.31
				l-0.05-2.18c0.4,0.09,0.72,0.18,0.94,0.28c0.35,0.15,0.55,0.4,0.58,0.75C87.81,128.55,87.66,128.83,87.32,129.04z"/>
		</g>
		<g>
			<path class="st1" d="M75.99,127.31c0,3.05,4.45,5.51,9.82,5.51c5.38,0,9.73-2.47,9.73-5.51v-2.05c0-3.05-4.54-5.51-9.92-5.51
				c-5.38,0-9.64,2.47-9.64,5.51V127.31z"/>
			<ellipse class="st2" cx="85.77" cy="125.15" rx="9.73" ry="5.51"/>
			<path class="st3" d="M88.73,125.63c-0.06-0.43-0.24-0.76-0.53-1c-0.29-0.23-0.62-0.4-1-0.51c-0.26-0.08-0.58-0.15-0.96-0.22
				l-0.04-1.61c0.67,0.08,1.07,0.36,1.18,0.85h0.85c-0.09-0.48-0.36-0.83-0.83-1.06c-0.34-0.18-0.75-0.29-1.23-0.33l-0.02-0.9h-0.74
				l-0.02,0.89c-0.53,0.03-0.97,0.13-1.33,0.33c-0.43,0.24-0.68,0.55-0.73,0.95c-0.04,0.37,0.09,0.67,0.4,0.91
				c0.31,0.23,0.85,0.42,1.6,0.56l-0.04,2.33c-0.36-0.06-0.68-0.17-0.95-0.33c-0.41-0.25-0.62-0.62-0.62-1.11H82.8
				c-0.06,0.65,0.15,1.21,0.65,1.66c0.41,0.37,1.03,0.6,1.85,0.68l-0.03,1.73h1.11l-0.04-1.72c0.74-0.05,1.34-0.26,1.78-0.62
				C88.61,126.7,88.81,126.2,88.73,125.63z M84.49,123.47c-0.21-0.11-0.31-0.27-0.29-0.49c0.02-0.23,0.16-0.4,0.43-0.54
				c0.2-0.1,0.45-0.16,0.76-0.18l-0.03,1.46C84.96,123.64,84.67,123.56,84.49,123.47z M87.32,126.54c-0.27,0.17-0.6,0.27-1.02,0.31
				l-0.05-2.18c0.4,0.09,0.72,0.18,0.94,0.28c0.35,0.15,0.55,0.4,0.58,0.75C87.81,126.05,87.66,126.33,87.32,126.54z"/>
		</g>
		<g>
			<path class="st1" d="M75.99,124.81c0,3.05,4.45,5.51,9.82,5.51c5.38,0,9.73-2.47,9.73-5.51v-2.05c0-3.05-4.54-5.51-9.92-5.51
				c-5.38,0-9.64,2.47-9.64,5.51V124.81z"/>
			<ellipse class="st2" cx="85.77" cy="122.64" rx="9.73" ry="5.51"/>
			<path class="st3" d="M88.73,123.13c-0.06-0.43-0.24-0.76-0.53-1c-0.29-0.23-0.62-0.4-1-0.51c-0.26-0.08-0.58-0.15-0.96-0.22
				l-0.04-1.61c0.67,0.08,1.07,0.36,1.18,0.85h0.85c-0.09-0.48-0.36-0.83-0.83-1.06c-0.34-0.18-0.75-0.29-1.23-0.33l-0.02-0.9h-0.74
				l-0.02,0.89c-0.53,0.03-0.97,0.13-1.33,0.33c-0.43,0.24-0.68,0.55-0.73,0.95c-0.04,0.37,0.09,0.67,0.4,0.91
				c0.31,0.23,0.85,0.42,1.6,0.56l-0.04,2.33c-0.36-0.06-0.68-0.17-0.95-0.33c-0.41-0.25-0.62-0.62-0.62-1.11H82.8
				c-0.06,0.65,0.15,1.21,0.65,1.66c0.41,0.37,1.03,0.6,1.85,0.68l-0.03,1.73h1.11l-0.04-1.72c0.74-0.05,1.34-0.26,1.78-0.62
				C88.61,124.2,88.81,123.7,88.73,123.13z M84.49,120.97c-0.21-0.11-0.31-0.27-0.29-0.49c0.02-0.23,0.16-0.4,0.43-0.54
				c0.2-0.1,0.45-0.16,0.76-0.18l-0.03,1.46C84.96,121.14,84.67,121.06,84.49,120.97z M87.32,124.04c-0.27,0.17-0.6,0.27-1.02,0.31
				l-0.05-2.18c0.4,0.09,0.72,0.18,0.94,0.28c0.35,0.15,0.55,0.4,0.58,0.75C87.81,123.54,87.66,123.83,87.32,124.04z"/>
		</g>
		<g>
			<path class="st1" d="M75.99,122.31c0,3.05,4.45,5.51,9.82,5.51c5.38,0,9.73-2.47,9.73-5.51v-2.05c0-3.05-4.54-5.51-9.92-5.51
				c-5.38,0-9.64,2.47-9.64,5.51V122.31z"/>
			<ellipse class="st2" cx="85.77" cy="120.15" rx="9.73" ry="5.51"/>
			<path class="st3" d="M88.73,120.63c-0.06-0.43-0.24-0.76-0.53-1c-0.29-0.23-0.62-0.4-1-0.51c-0.26-0.08-0.58-0.15-0.96-0.22
				l-0.04-1.61c0.67,0.08,1.07,0.36,1.18,0.85h0.85c-0.09-0.48-0.36-0.83-0.83-1.06c-0.34-0.18-0.75-0.29-1.23-0.33l-0.02-0.9h-0.74
				l-0.02,0.89c-0.53,0.03-0.97,0.13-1.33,0.33c-0.43,0.24-0.68,0.55-0.73,0.95c-0.04,0.37,0.09,0.67,0.4,0.91
				c0.31,0.23,0.85,0.42,1.6,0.56l-0.04,2.33c-0.36-0.06-0.68-0.17-0.95-0.33c-0.41-0.25-0.62-0.62-0.62-1.11H82.8
				c-0.06,0.65,0.15,1.21,0.65,1.66c0.41,0.37,1.03,0.6,1.85,0.68l-0.03,1.73h1.11l-0.04-1.72c0.74-0.05,1.34-0.26,1.78-0.62
				C88.61,121.7,88.81,121.2,88.73,120.63z M84.49,118.47c-0.21-0.11-0.31-0.27-0.29-0.49c0.02-0.23,0.16-0.4,0.43-0.54
				c0.2-0.1,0.45-0.16,0.76-0.18l-0.03,1.46C84.96,118.64,84.67,118.56,84.49,118.47z M87.32,121.54c-0.27,0.17-0.6,0.27-1.02,0.31
				l-0.05-2.18c0.4,0.09,0.72,0.18,0.94,0.28c0.35,0.15,0.55,0.4,0.58,0.75C87.81,121.05,87.66,121.33,87.32,121.54z"/>
		</g>
		<g>
			<path class="st1" d="M75.99,119.81c0,3.05,4.45,5.51,9.82,5.51c5.38,0,9.73-2.47,9.73-5.51v-2.05c0-3.05-4.54-5.51-9.92-5.51
				c-5.38,0-9.64,2.47-9.64,5.51C75.99,117.76,75.99,119.81,75.99,119.81z"/>
			<ellipse class="st2" cx="85.77" cy="117.64" rx="9.73" ry="5.51"/>
			<path class="st3" d="M88.73,118.13c-0.06-0.43-0.24-0.76-0.53-1c-0.29-0.23-0.62-0.4-1-0.51c-0.26-0.08-0.58-0.15-0.96-0.22
				l-0.04-1.61c0.67,0.08,1.07,0.36,1.18,0.85h0.85c-0.09-0.48-0.36-0.83-0.83-1.06c-0.34-0.18-0.75-0.29-1.23-0.33l-0.02-0.9h-0.74
				l-0.02,0.89c-0.53,0.03-0.97,0.13-1.33,0.33c-0.43,0.24-0.68,0.55-0.73,0.95c-0.04,0.37,0.09,0.67,0.4,0.91
				c0.31,0.23,0.85,0.42,1.6,0.56l-0.04,2.33c-0.36-0.06-0.68-0.17-0.95-0.33c-0.41-0.25-0.62-0.62-0.62-1.11H82.8
				c-0.06,0.65,0.15,1.21,0.65,1.66c0.41,0.37,1.03,0.6,1.85,0.68l-0.03,1.73h1.11l-0.04-1.72c0.74-0.05,1.34-0.26,1.78-0.62
				C88.61,119.2,88.81,118.71,88.73,118.13z M84.49,115.97c-0.21-0.11-0.31-0.27-0.29-0.49c0.02-0.23,0.16-0.4,0.43-0.54
				c0.2-0.1,0.45-0.16,0.76-0.18l-0.03,1.46C84.96,116.14,84.67,116.05,84.49,115.97z M87.32,119.04c-0.27,0.17-0.6,0.27-1.02,0.31
				l-0.05-2.18c0.4,0.09,0.72,0.18,0.94,0.28c0.35,0.15,0.55,0.4,0.58,0.75C87.81,118.54,87.66,118.83,87.32,119.04z"/>
		</g>
	</g>
	<g id="Tas_milieu">
		<g>
			<path class="st1" d="M60.62,140.43c0,3.05,4.45,5.51,9.82,5.51c5.38,0,9.73-2.47,9.73-5.51v-2.05c0-3.05-4.54-5.51-9.92-5.51
				c-5.38,0-9.64,2.47-9.64,5.51V140.43z"/>
			<ellipse class="st2" cx="70.4" cy="138.27" rx="9.73" ry="5.51"/>
			<path class="st3" d="M73.36,138.75c-0.06-0.43-0.24-0.76-0.53-1c-0.29-0.23-0.62-0.4-1-0.51c-0.26-0.08-0.58-0.15-0.96-0.22
				l-0.04-1.61c0.67,0.08,1.07,0.36,1.18,0.85h0.85c-0.09-0.48-0.36-0.83-0.83-1.06c-0.34-0.18-0.75-0.29-1.23-0.33l-0.02-0.9h-0.74
				l-0.02,0.89c-0.53,0.03-0.97,0.13-1.33,0.33c-0.43,0.24-0.68,0.55-0.73,0.95c-0.04,0.37,0.09,0.67,0.4,0.91
				c0.31,0.23,0.85,0.42,1.6,0.56l-0.04,2.33c-0.36-0.06-0.68-0.17-0.95-0.33c-0.41-0.25-0.62-0.62-0.62-1.11h-0.94
				c-0.06,0.65,0.15,1.21,0.65,1.66c0.41,0.37,1.03,0.6,1.85,0.68l-0.03,1.73H71l-0.04-1.72c0.74-0.05,1.34-0.26,1.78-0.62
				C73.24,139.83,73.44,139.32,73.36,138.75z M69.12,136.59c-0.21-0.11-0.31-0.27-0.29-0.49c0.02-0.23,0.16-0.4,0.43-0.54
				c0.2-0.1,0.45-0.16,0.76-0.18L70,136.85C69.59,136.76,69.29,136.68,69.12,136.59z M71.95,139.66c-0.27,0.17-0.6,0.27-1.02,0.31
				l-0.05-2.18c0.4,0.09,0.72,0.18,0.94,0.28c0.35,0.15,0.55,0.4,0.58,0.75C72.43,139.17,72.28,139.45,71.95,139.66z"/>
		</g>
		<g>
			<path class="st1" d="M60.62,137.93c0,3.05,4.45,5.51,9.82,5.51c5.38,0,9.73-2.47,9.73-5.51v-2.05c0-3.05-4.54-5.51-9.92-5.51
				c-5.38,0-9.64,2.47-9.64,5.51V137.93z"/>
			<ellipse class="st2" cx="70.4" cy="135.77" rx="9.73" ry="5.51"/>
			<path class="st3" d="M73.36,136.25c-0.06-0.43-0.24-0.76-0.53-1c-0.29-0.23-0.62-0.4-1-0.51c-0.26-0.08-0.58-0.15-0.96-0.22
				l-0.04-1.61c0.67,0.08,1.07,0.36,1.18,0.85h0.85c-0.09-0.48-0.36-0.83-0.83-1.06c-0.34-0.18-0.75-0.29-1.23-0.33l-0.02-0.9h-0.74
				l-0.02,0.89c-0.53,0.03-0.97,0.13-1.33,0.33c-0.43,0.24-0.68,0.55-0.73,0.95c-0.04,0.37,0.09,0.67,0.4,0.91
				c0.31,0.23,0.85,0.42,1.6,0.56l-0.04,2.33c-0.36-0.06-0.68-0.17-0.95-0.33c-0.41-0.25-0.62-0.62-0.62-1.11h-0.94
				c-0.06,0.65,0.15,1.21,0.65,1.66c0.41,0.37,1.03,0.6,1.85,0.68l-0.03,1.73H71l-0.04-1.72c0.74-0.05,1.34-0.26,1.78-0.62
				C73.24,137.32,73.44,136.83,73.36,136.25z M69.12,134.09c-0.21-0.11-0.31-0.27-0.29-0.49c0.02-0.23,0.16-0.4,0.43-0.54
				c0.2-0.1,0.45-0.16,0.76-0.18L70,134.35C69.59,134.27,69.29,134.18,69.12,134.09z M71.95,137.16c-0.27,0.17-0.6,0.27-1.02,0.31
				l-0.05-2.18c0.4,0.09,0.72,0.18,0.94,0.28c0.35,0.15,0.55,0.4,0.58,0.75C72.43,136.66,72.28,136.95,71.95,137.16z"/>
		</g>
		<g>
			<path class="st1" d="M60.62,135.43c0,3.05,4.45,5.51,9.82,5.51c5.38,0,9.73-2.47,9.73-5.51v-2.05c0-3.05-4.54-5.51-9.92-5.51
				c-5.38,0-9.64,2.47-9.64,5.51V135.43z"/>
			<ellipse class="st2" cx="70.4" cy="133.27" rx="9.73" ry="5.51"/>
			<path class="st3" d="M73.36,133.75c-0.06-0.43-0.24-0.76-0.53-1c-0.29-0.23-0.62-0.4-1-0.51c-0.26-0.08-0.58-0.15-0.96-0.22
				l-0.04-1.61c0.67,0.08,1.07,0.36,1.18,0.85h0.85c-0.09-0.48-0.36-0.83-0.83-1.06c-0.34-0.18-0.75-0.29-1.23-0.33l-0.02-0.9h-0.74
				l-0.02,0.89c-0.53,0.03-0.97,0.13-1.33,0.33c-0.43,0.24-0.68,0.55-0.73,0.95c-0.04,0.37,0.09,0.67,0.4,0.91
				c0.31,0.23,0.85,0.42,1.6,0.56l-0.04,2.33c-0.36-0.06-0.68-0.17-0.95-0.33c-0.41-0.25-0.62-0.62-0.62-1.11h-0.94
				c-0.06,0.65,0.15,1.21,0.65,1.66c0.41,0.37,1.03,0.6,1.85,0.68l-0.03,1.73H71l-0.04-1.72c0.74-0.05,1.34-0.26,1.78-0.62
				C73.24,134.82,73.44,134.32,73.36,133.75z M69.12,131.59c-0.21-0.11-0.31-0.27-0.29-0.49c0.02-0.23,0.16-0.4,0.43-0.54
				c0.2-0.1,0.45-0.16,0.76-0.18L70,131.84C69.59,131.76,69.29,131.68,69.12,131.59z M71.95,134.66c-0.27,0.17-0.6,0.27-1.02,0.31
				l-0.05-2.18c0.4,0.09,0.72,0.18,0.94,0.28c0.35,0.15,0.55,0.4,0.58,0.75C72.43,134.17,72.28,134.45,71.95,134.66z"/>
		</g>
		<g>
			<path class="st1" d="M60.62,132.93c0,3.05,4.45,5.51,9.82,5.51c5.38,0,9.73-2.47,9.73-5.51v-2.05c0-3.05-4.54-5.51-9.92-5.51
				c-5.38,0-9.64,2.47-9.64,5.51V132.93z"/>
			<ellipse class="st2" cx="70.4" cy="130.77" rx="9.73" ry="5.51"/>
			<path class="st3" d="M73.36,131.25c-0.06-0.43-0.24-0.76-0.53-1c-0.29-0.23-0.62-0.4-1-0.51c-0.26-0.08-0.58-0.15-0.96-0.22
				l-0.04-1.61c0.67,0.08,1.07,0.36,1.18,0.85h0.85c-0.09-0.48-0.36-0.83-0.83-1.06c-0.34-0.18-0.75-0.29-1.23-0.33l-0.02-0.9h-0.74
				l-0.02,0.89c-0.53,0.03-0.97,0.13-1.33,0.33c-0.43,0.24-0.68,0.55-0.73,0.95c-0.04,0.37,0.09,0.67,0.4,0.91
				c0.31,0.23,0.85,0.42,1.6,0.56l-0.04,2.33c-0.36-0.06-0.68-0.17-0.95-0.33c-0.41-0.25-0.62-0.62-0.62-1.11h-0.94
				c-0.06,0.65,0.15,1.21,0.65,1.66c0.41,0.37,1.03,0.6,1.85,0.68l-0.03,1.73H71l-0.04-1.72c0.74-0.05,1.34-0.26,1.78-0.62
				C73.24,132.33,73.44,131.83,73.36,131.25z M69.12,129.09c-0.21-0.11-0.31-0.27-0.29-0.49c0.02-0.23,0.16-0.4,0.43-0.54
				c0.2-0.1,0.45-0.16,0.76-0.18L70,129.35C69.59,129.26,69.29,129.18,69.12,129.09z M71.95,132.16c-0.27,0.17-0.6,0.27-1.02,0.31
				l-0.05-2.18c0.4,0.09,0.72,0.18,0.94,0.28c0.35,0.15,0.55,0.4,0.58,0.75C72.43,131.66,72.28,131.95,71.95,132.16z"/>
		</g>
		<g>
			<path class="st1" d="M60.62,130.43c0,3.05,4.45,5.51,9.82,5.51c5.38,0,9.73-2.47,9.73-5.51v-2.05c0-3.05-4.54-5.51-9.92-5.51
				c-5.38,0-9.64,2.47-9.64,5.51V130.43z"/>
			<ellipse class="st2" cx="70.4" cy="128.26" rx="9.73" ry="5.51"/>
			<path class="st3" d="M73.36,128.75c-0.06-0.43-0.24-0.76-0.53-1c-0.29-0.23-0.62-0.4-1-0.51c-0.26-0.08-0.58-0.15-0.96-0.22
				l-0.04-1.61c0.67,0.08,1.07,0.36,1.18,0.85h0.85c-0.09-0.48-0.36-0.83-0.83-1.06c-0.34-0.18-0.75-0.29-1.23-0.33l-0.02-0.9h-0.74
				l-0.02,0.89c-0.53,0.03-0.97,0.13-1.33,0.33c-0.43,0.24-0.68,0.55-0.73,0.95c-0.04,0.37,0.09,0.67,0.4,0.91
				c0.31,0.23,0.85,0.42,1.6,0.56l-0.04,2.33c-0.36-0.06-0.68-0.17-0.95-0.33c-0.41-0.25-0.62-0.62-0.62-1.11h-0.94
				c-0.06,0.65,0.15,1.21,0.65,1.66c0.41,0.37,1.03,0.6,1.85,0.68l-0.03,1.73H71l-0.04-1.72c0.74-0.05,1.34-0.26,1.78-0.62
				C73.24,129.82,73.44,129.32,73.36,128.75z M69.12,126.59c-0.21-0.11-0.31-0.27-0.29-0.49c0.02-0.23,0.16-0.4,0.43-0.54
				c0.2-0.1,0.45-0.16,0.76-0.18L70,126.84C69.59,126.76,69.29,126.68,69.12,126.59z M71.95,129.66c-0.27,0.17-0.6,0.27-1.02,0.31
				l-0.05-2.18c0.4,0.09,0.72,0.18,0.94,0.28c0.35,0.15,0.55,0.4,0.58,0.75C72.43,129.17,72.28,129.45,71.95,129.66z"/>
		</g>
	</g>
	<g id="Tas_gauche">
		<g>
			<path class="st1" d="M47.34,144.48c0,3.05,4.45,5.51,9.82,5.51c5.38,0,9.73-2.47,9.73-5.51v-2.05c0-3.05-4.54-5.51-9.92-5.51
				s-9.64,2.47-9.64,5.51C47.34,142.42,47.34,144.48,47.34,144.48z"/>
			<ellipse class="st2" cx="57.12" cy="142.31" rx="9.73" ry="5.51"/>
			<path class="st3" d="M60.08,142.8c-0.06-0.43-0.24-0.76-0.53-1c-0.29-0.23-0.62-0.4-1-0.51c-0.26-0.08-0.58-0.15-0.96-0.22
				l-0.04-1.61c0.67,0.08,1.07,0.36,1.18,0.85h0.85c-0.09-0.48-0.36-0.83-0.83-1.06c-0.34-0.18-0.75-0.29-1.23-0.33l-0.02-0.9h-0.74
				l-0.02,0.89c-0.53,0.03-0.97,0.13-1.33,0.33c-0.43,0.24-0.68,0.55-0.73,0.95c-0.04,0.37,0.09,0.67,0.4,0.91
				c0.31,0.23,0.85,0.42,1.6,0.56l-0.04,2.33c-0.36-0.06-0.68-0.17-0.95-0.33c-0.41-0.25-0.62-0.62-0.62-1.11h-0.94
				c-0.06,0.65,0.15,1.21,0.65,1.66c0.41,0.37,1.03,0.6,1.85,0.68l-0.03,1.73h1.11l-0.04-1.72c0.74-0.05,1.34-0.26,1.78-0.62
				C59.96,143.87,60.16,143.37,60.08,142.8z M55.84,140.64c-0.21-0.11-0.31-0.27-0.29-0.49c0.02-0.23,0.16-0.4,0.43-0.54
				c0.2-0.1,0.45-0.16,0.76-0.18l-0.03,1.46C56.31,140.81,56.01,140.73,55.84,140.64z M58.67,143.71c-0.27,0.17-0.6,0.27-1.02,0.31
				l-0.05-2.18c0.4,0.09,0.72,0.18,0.94,0.28c0.35,0.15,0.55,0.4,0.58,0.75C59.16,143.21,59.01,143.5,58.67,143.71z"/>
		</g>
		<g>
			<path class="st1" d="M47.34,141.98c0,3.05,4.45,5.51,9.82,5.51c5.38,0,9.73-2.47,9.73-5.51v-2.05c0-3.05-4.54-5.51-9.92-5.51
				s-9.64,2.47-9.64,5.51V141.98z"/>
			<ellipse class="st2" cx="57.12" cy="139.81" rx="9.73" ry="5.51"/>
			<path class="st3" d="M60.08,140.3c-0.06-0.43-0.24-0.76-0.53-1c-0.29-0.23-0.62-0.4-1-0.51c-0.26-0.08-0.58-0.15-0.96-0.22
				l-0.04-1.61c0.67,0.08,1.07,0.36,1.18,0.85h0.85c-0.09-0.48-0.36-0.83-0.83-1.06c-0.34-0.18-0.75-0.29-1.23-0.33l-0.02-0.9h-0.74
				l-0.02,0.89c-0.53,0.03-0.97,0.13-1.33,0.33c-0.43,0.24-0.68,0.55-0.73,0.95c-0.04,0.37,0.09,0.67,0.4,0.91
				c0.31,0.23,0.85,0.42,1.6,0.56l-0.04,2.33c-0.36-0.06-0.68-0.17-0.95-0.33c-0.41-0.25-0.62-0.62-0.62-1.11h-0.94
				c-0.06,0.65,0.15,1.21,0.65,1.66c0.41,0.37,1.03,0.6,1.85,0.68l-0.03,1.73h1.11l-0.04-1.72c0.74-0.05,1.34-0.26,1.78-0.62
				C59.96,141.37,60.16,140.87,60.08,140.3z M55.84,138.14c-0.21-0.11-0.31-0.27-0.29-0.49c0.02-0.23,0.16-0.4,0.43-0.54
				c0.2-0.1,0.45-0.16,0.76-0.18l-0.03,1.46C56.31,138.31,56.01,138.22,55.84,138.14z M58.67,141.21c-0.27,0.17-0.6,0.27-1.02,0.31
				l-0.05-2.18c0.4,0.09,0.72,0.18,0.94,0.28c0.35,0.15,0.55,0.4,0.58,0.75C59.16,140.71,59.01,140.99,58.67,141.21z"/>
		</g>
		<g>
			<path class="st1" d="M47.34,139.48c0,3.05,4.45,5.51,9.82,5.51c5.38,0,9.73-2.47,9.73-5.51v-2.05c0-3.05-4.54-5.51-9.92-5.51
				s-9.64,2.47-9.64,5.51C47.34,137.42,47.34,139.48,47.34,139.48z"/>
			<ellipse class="st2" cx="57.12" cy="137.31" rx="9.73" ry="5.51"/>
			<path class="st3" d="M60.08,137.8c-0.06-0.43-0.24-0.76-0.53-1c-0.29-0.23-0.62-0.4-1-0.51c-0.26-0.08-0.58-0.15-0.96-0.22
				l-0.04-1.61c0.67,0.08,1.07,0.36,1.18,0.85h0.85c-0.09-0.48-0.36-0.83-0.83-1.06c-0.34-0.18-0.75-0.29-1.23-0.33l-0.02-0.9h-0.74
				l-0.02,0.89c-0.53,0.03-0.97,0.13-1.33,0.33c-0.43,0.24-0.68,0.55-0.73,0.95c-0.04,0.37,0.09,0.67,0.4,0.91
				c0.31,0.23,0.85,0.42,1.6,0.56l-0.04,2.33c-0.36-0.06-0.68-0.17-0.95-0.33c-0.41-0.25-0.62-0.62-0.62-1.11h-0.94
				c-0.06,0.65,0.15,1.21,0.65,1.66c0.41,0.37,1.03,0.6,1.85,0.68l-0.03,1.73h1.11l-0.04-1.72c0.74-0.05,1.34-0.26,1.78-0.62
				C59.96,138.87,60.16,138.37,60.08,137.8z M55.84,135.64c-0.21-0.11-0.31-0.27-0.29-0.49c0.02-0.23,0.16-0.4,0.43-0.54
				c0.2-0.1,0.45-0.16,0.76-0.18l-0.03,1.46C56.31,135.81,56.01,135.73,55.84,135.64z M58.67,138.71c-0.27,0.17-0.6,0.27-1.02,0.31
				l-0.05-2.18c0.4,0.09,0.72,0.18,0.94,0.28c0.35,0.15,0.55,0.4,0.58,0.75C59.16,138.21,59.01,138.49,58.67,138.71z"/>
		</g>
	</g>
</g>
<g id="N_x5F_bis">
</g>
<g id="Agence_x5F_interim">
</g>
<g id="Piscine_00000107566784248499352030000008077343621116538778_">
</g>
<g id="Geometre">
</g>
</svg>
