<?xml version="1.0" encoding="utf-8"?>
<!-- Generator: Adobe Illustrator 28.1.0, SVG Export Plug-In . SVG Version: 6.00 Build 0)  -->
<svg version="1.1" id="Calque_1" xmlns="http://www.w3.org/2000/svg" xmlns:xlink="http://www.w3.org/1999/xlink" x="0px" y="0px"
	 viewBox="0 0 160 250" style="enable-background:new 0 0 160 250;" xml:space="preserve">
<style type="text/css">
	.st0{fill:#AE80A9;stroke:#000000;stroke-width:0.25;stroke-miterlimit:10;}
	.st1{fill:#955F9B;}
	.st2{fill:#C38FBD;}
	.st3{opacity:0.47;fill:#FFFFFF;enable-background:new    ;}
</style>
<g id="Paysagiste">
</g>
<g id="Agence_x5F_immobiliere">
	<polygon class="st0" points="40,145.9 56.2,117.3 95.5,107 90.3,102.8 120,100.2 99.6,121.2 99.6,113.3 	"/>
	<g id="Tas_droite">
		<g>
			<path class="st1" d="M76,137.3c0,3.1,4.4,5.5,9.8,5.5c5.4,0,9.7-2.5,9.7-5.5v-2.1c0-3.1-4.5-5.5-9.9-5.5s-9.6,2.5-9.6,5.5
				L76,137.3L76,137.3z"/>
			<ellipse class="st2" cx="85.8" cy="135.1" rx="9.7" ry="5.5"/>
			<path class="st3" d="M88.7,135.6c-0.1-0.4-0.2-0.8-0.5-1c-0.3-0.2-0.6-0.4-1-0.5c-0.3-0.1-0.6-0.1-1-0.2l0-1.6
				c0.7,0.1,1.1,0.4,1.2,0.9h0.8c-0.1-0.5-0.4-0.8-0.8-1.1c-0.3-0.2-0.8-0.3-1.2-0.3l0-0.9h-0.7l0,0.9c-0.5,0-1,0.1-1.3,0.3
				c-0.4,0.2-0.7,0.6-0.7,0.9c0,0.4,0.1,0.7,0.4,0.9c0.3,0.2,0.8,0.4,1.6,0.6l0,2.3c-0.4-0.1-0.7-0.2-0.9-0.3
				c-0.4-0.2-0.6-0.6-0.6-1.1h-0.9c-0.1,0.6,0.2,1.2,0.7,1.7c0.4,0.4,1,0.6,1.8,0.7l0,1.7h1.1l0-1.7c0.7-0.1,1.3-0.3,1.8-0.6
				C88.6,136.7,88.8,136.2,88.7,135.6z M84.5,133.5c-0.2-0.1-0.3-0.3-0.3-0.5c0-0.2,0.2-0.4,0.4-0.5c0.2-0.1,0.4-0.2,0.8-0.2l0,1.5
				C85,133.6,84.7,133.6,84.5,133.5z M87.3,136.5c-0.3,0.2-0.6,0.3-1,0.3l-0.1-2.2c0.4,0.1,0.7,0.2,0.9,0.3c0.3,0.1,0.6,0.4,0.6,0.8
				C87.8,136.1,87.7,136.3,87.3,136.5z"/>
		</g>
		<g>
			<path class="st1" d="M76,134.8c0,3.1,4.4,5.5,9.8,5.5c5.4,0,9.7-2.5,9.7-5.5v-2.1c0-3.1-4.5-5.5-9.9-5.5s-9.6,2.5-9.6,5.5
				L76,134.8L76,134.8z"/>
			<ellipse class="st2" cx="85.8" cy="132.6" rx="9.7" ry="5.5"/>
			<path class="st3" d="M88.7,133.1c-0.1-0.4-0.2-0.8-0.5-1c-0.3-0.2-0.6-0.4-1-0.5c-0.3-0.1-0.6-0.1-1-0.2l0-1.6
				c0.7,0.1,1.1,0.4,1.2,0.9h0.8c-0.1-0.5-0.4-0.8-0.8-1.1c-0.3-0.2-0.8-0.3-1.2-0.3l0-0.9h-0.7l0,0.9c-0.5,0-1,0.1-1.3,0.3
				c-0.4,0.2-0.7,0.6-0.7,0.9c0,0.4,0.1,0.7,0.4,0.9c0.3,0.2,0.8,0.4,1.6,0.6l0,2.3c-0.4-0.1-0.7-0.2-0.9-0.3
				c-0.4-0.2-0.6-0.6-0.6-1.1h-0.9c-0.1,0.6,0.2,1.2,0.7,1.7c0.4,0.4,1,0.6,1.8,0.7l0,1.7h1.1l0-1.7c0.7-0.1,1.3-0.3,1.8-0.6
				C88.6,134.2,88.8,133.7,88.7,133.1z M84.5,131c-0.2-0.1-0.3-0.3-0.3-0.5c0-0.2,0.2-0.4,0.4-0.5c0.2-0.1,0.4-0.2,0.8-0.2l0,1.5
				C85,131.1,84.7,131.1,84.5,131z M87.3,134c-0.3,0.2-0.6,0.3-1,0.3l-0.1-2.2c0.4,0.1,0.7,0.2,0.9,0.3c0.3,0.1,0.6,0.4,0.6,0.8
				C87.8,133.6,87.7,133.8,87.3,134z"/>
		</g>
		<g>
			<path class="st1" d="M76,132.3c0,3.1,4.4,5.5,9.8,5.5c5.4,0,9.7-2.5,9.7-5.5v-2.1c0-3.1-4.5-5.5-9.9-5.5s-9.6,2.5-9.6,5.5
				L76,132.3L76,132.3z"/>
			<ellipse class="st2" cx="85.8" cy="130.1" rx="9.7" ry="5.5"/>
			<path class="st3" d="M88.7,130.6c-0.1-0.4-0.2-0.8-0.5-1c-0.3-0.2-0.6-0.4-1-0.5c-0.3-0.1-0.6-0.1-1-0.2l0-1.6
				c0.7,0.1,1.1,0.4,1.2,0.9h0.8c-0.1-0.5-0.4-0.8-0.8-1.1c-0.3-0.2-0.8-0.3-1.2-0.3l0-0.9h-0.7l0,0.9c-0.5,0-1,0.1-1.3,0.3
				c-0.4,0.2-0.7,0.6-0.7,1c0,0.4,0.1,0.7,0.4,0.9c0.3,0.2,0.8,0.4,1.6,0.6l0,2.3c-0.4-0.1-0.7-0.2-0.9-0.3
				c-0.4-0.2-0.6-0.6-0.6-1.1h-0.9c-0.1,0.6,0.2,1.2,0.7,1.7c0.4,0.4,1,0.6,1.8,0.7l0,1.7h1.1l0-1.7c0.7-0.1,1.3-0.3,1.8-0.6
				C88.6,131.7,88.8,131.2,88.7,130.6z M84.5,128.5c-0.2-0.1-0.3-0.3-0.3-0.5c0-0.2,0.2-0.4,0.4-0.5c0.2-0.1,0.4-0.2,0.8-0.2l0,1.5
				C85,128.6,84.7,128.6,84.5,128.5z M87.3,131.5c-0.3,0.2-0.6,0.3-1,0.3l-0.1-2.2c0.4,0.1,0.7,0.2,0.9,0.3c0.3,0.1,0.6,0.4,0.6,0.8
				C87.8,131,87.7,131.3,87.3,131.5z"/>
		</g>
		<g>
			<path class="st1" d="M76,129.8c0,3.1,4.4,5.5,9.8,5.5c5.4,0,9.7-2.5,9.7-5.5v-2.1c0-3.1-4.5-5.5-9.9-5.5s-9.6,2.5-9.6,5.5
				C76,127.8,76,129.8,76,129.8z"/>
			<ellipse class="st2" cx="85.8" cy="127.7" rx="9.7" ry="5.5"/>
			<path class="st3" d="M88.7,128.1c-0.1-0.4-0.2-0.8-0.5-1c-0.3-0.2-0.6-0.4-1-0.5c-0.3-0.1-0.6-0.2-1-0.2l0-1.6
				c0.7,0.1,1.1,0.4,1.2,0.8h0.8c-0.1-0.5-0.4-0.8-0.8-1.1c-0.3-0.2-0.8-0.3-1.2-0.3l0-0.9h-0.7l0,0.9c-0.5,0-1,0.1-1.3,0.3
				c-0.4,0.2-0.7,0.6-0.7,0.9c0,0.4,0.1,0.7,0.4,0.9c0.3,0.2,0.8,0.4,1.6,0.6l0,2.3c-0.4-0.1-0.7-0.2-0.9-0.3
				c-0.4-0.2-0.6-0.6-0.6-1.1h-0.9c-0.1,0.6,0.2,1.2,0.7,1.7c0.4,0.4,1,0.6,1.8,0.7l0,1.7h1.1l0-1.7c0.7-0.1,1.3-0.3,1.8-0.6
				C88.6,129.2,88.8,128.7,88.7,128.1z M84.5,126c-0.2-0.1-0.3-0.3-0.3-0.5c0-0.2,0.2-0.4,0.4-0.5c0.2-0.1,0.4-0.2,0.8-0.2l0,1.5
				C85,126.1,84.7,126.1,84.5,126z M87.3,129c-0.3,0.2-0.6,0.3-1,0.3l-0.1-2.2c0.4,0.1,0.7,0.2,0.9,0.3c0.3,0.2,0.6,0.4,0.6,0.7
				C87.8,128.6,87.7,128.8,87.3,129z"/>
		</g>
		<g>
			<path class="st1" d="M76,127.3c0,3.1,4.4,5.5,9.8,5.5c5.4,0,9.7-2.5,9.7-5.5v-2.1c0-3.1-4.5-5.5-9.9-5.5s-9.6,2.5-9.6,5.5
				L76,127.3L76,127.3z"/>
			<ellipse class="st2" cx="85.8" cy="125.2" rx="9.7" ry="5.5"/>
			<path class="st3" d="M88.7,125.6c-0.1-0.4-0.2-0.8-0.5-1c-0.3-0.2-0.6-0.4-1-0.5c-0.3-0.1-0.6-0.2-1-0.2l0-1.6
				c0.7,0.1,1.1,0.4,1.2,0.8h0.8c-0.1-0.5-0.4-0.8-0.8-1.1c-0.3-0.2-0.8-0.3-1.2-0.3l0-0.9h-0.7l0,0.9c-0.5,0-1,0.1-1.3,0.3
				c-0.4,0.2-0.7,0.6-0.7,0.9c0,0.4,0.1,0.7,0.4,0.9c0.3,0.2,0.8,0.4,1.6,0.6l0,2.3c-0.4-0.1-0.7-0.2-0.9-0.3
				c-0.4-0.2-0.6-0.6-0.6-1.1h-0.9c-0.1,0.7,0.2,1.2,0.7,1.7c0.4,0.4,1,0.6,1.8,0.7l0,1.7h1.1l0-1.7c0.7-0.1,1.3-0.3,1.8-0.6
				C88.6,126.7,88.8,126.2,88.7,125.6z M84.5,123.5c-0.2-0.1-0.3-0.3-0.3-0.5c0-0.2,0.2-0.4,0.4-0.5c0.2-0.1,0.4-0.2,0.8-0.2l0,1.5
				C85,123.6,84.7,123.6,84.5,123.5z M87.3,126.5c-0.3,0.2-0.6,0.3-1,0.3l-0.1-2.2c0.4,0.1,0.7,0.2,0.9,0.3c0.3,0.2,0.6,0.4,0.6,0.8
				C87.8,126.1,87.7,126.3,87.3,126.5z"/>
		</g>
		<g>
			<path class="st1" d="M76,124.8c0,3.1,4.4,5.5,9.8,5.5c5.4,0,9.7-2.5,9.7-5.5v-2.1c0-3.1-4.5-5.5-9.9-5.5s-9.6,2.5-9.6,5.5
				L76,124.8L76,124.8z"/>
			<ellipse class="st2" cx="85.8" cy="122.6" rx="9.7" ry="5.5"/>
			<path class="st3" d="M88.7,123.1c-0.1-0.4-0.2-0.8-0.5-1c-0.3-0.2-0.6-0.4-1-0.5c-0.3-0.1-0.6-0.2-1-0.2l0-1.6
				c0.7,0.1,1.1,0.4,1.2,0.8h0.8c-0.1-0.5-0.4-0.8-0.8-1.1c-0.3-0.2-0.8-0.3-1.2-0.3l0-0.9h-0.7l0,0.9c-0.5,0-1,0.1-1.3,0.3
				c-0.4,0.2-0.7,0.6-0.7,0.9c0,0.4,0.1,0.7,0.4,0.9c0.3,0.2,0.8,0.4,1.6,0.6l0,2.3c-0.4-0.1-0.7-0.2-0.9-0.3
				c-0.4-0.2-0.6-0.6-0.6-1.1h-0.9c-0.1,0.7,0.2,1.2,0.7,1.7c0.4,0.4,1,0.6,1.8,0.7l0,1.7h1.1l0-1.7c0.7-0.1,1.3-0.3,1.8-0.6
				C88.6,124.2,88.8,123.7,88.7,123.1z M84.5,121c-0.2-0.1-0.3-0.3-0.3-0.5c0-0.2,0.2-0.4,0.4-0.5c0.2-0.1,0.4-0.2,0.8-0.2l0,1.5
				C85,121.1,84.7,121.1,84.5,121z M87.3,124c-0.3,0.2-0.6,0.3-1,0.3l-0.1-2.2c0.4,0.1,0.7,0.2,0.9,0.3c0.3,0.2,0.6,0.4,0.6,0.8
				C87.8,123.5,87.7,123.8,87.3,124z"/>
		</g>
		<g>
			<path class="st1" d="M76,122.3c0,3.1,4.4,5.5,9.8,5.5c5.4,0,9.7-2.5,9.7-5.5v-2.1c0-3.1-4.5-5.5-9.9-5.5s-9.6,2.5-9.6,5.5
				L76,122.3L76,122.3z"/>
			<ellipse class="st2" cx="85.8" cy="120.2" rx="9.7" ry="5.5"/>
			<path class="st3" d="M88.7,120.6c-0.1-0.4-0.2-0.8-0.5-1c-0.3-0.2-0.6-0.4-1-0.5c-0.3-0.1-0.6-0.2-1-0.2l0-1.6
				c0.7,0.1,1.1,0.4,1.2,0.8h0.8c-0.1-0.5-0.4-0.8-0.8-1.1c-0.3-0.2-0.8-0.3-1.2-0.3l0-0.9h-0.7l0,0.9c-0.5,0-1,0.1-1.3,0.3
				c-0.4,0.2-0.7,0.6-0.7,0.9c0,0.4,0.1,0.7,0.4,0.9c0.3,0.2,0.8,0.4,1.6,0.6l0,2.3c-0.4-0.1-0.7-0.2-0.9-0.3
				c-0.4-0.2-0.6-0.6-0.6-1.1h-0.9c-0.1,0.7,0.2,1.2,0.7,1.7c0.4,0.4,1,0.6,1.8,0.7l0,1.7h1.1l0-1.7c0.7-0.1,1.3-0.3,1.8-0.6
				C88.6,121.7,88.8,121.2,88.7,120.6z M84.5,118.5c-0.2-0.1-0.3-0.3-0.3-0.5c0-0.2,0.2-0.4,0.4-0.5c0.2-0.1,0.4-0.2,0.8-0.2l0,1.5
				C85,118.6,84.7,118.6,84.5,118.5z M87.3,121.5c-0.3,0.2-0.6,0.3-1,0.3l-0.1-2.2c0.4,0.1,0.7,0.2,0.9,0.3c0.3,0.2,0.6,0.4,0.6,0.8
				C87.8,121.1,87.7,121.3,87.3,121.5z"/>
		</g>
		<g>
			<path class="st1" d="M76,119.8c0,3.1,4.4,5.5,9.8,5.5c5.4,0,9.7-2.5,9.7-5.5v-2.1c0-3.1-4.5-5.5-9.9-5.5s-9.6,2.5-9.6,5.5
				C76,117.8,76,119.8,76,119.8z"/>
			<ellipse class="st2" cx="85.8" cy="117.6" rx="9.7" ry="5.5"/>
			<path class="st3" d="M88.7,118.1c-0.1-0.4-0.2-0.8-0.5-1c-0.3-0.2-0.6-0.4-1-0.5c-0.3-0.1-0.6-0.2-1-0.2l0-1.6
				c0.7,0.1,1.1,0.4,1.2,0.8h0.8c-0.1-0.5-0.4-0.8-0.8-1.1c-0.3-0.2-0.8-0.3-1.2-0.3l0-0.9h-0.7l0,0.9c-0.5,0-1,0.1-1.3,0.3
				c-0.4,0.2-0.7,0.6-0.7,0.9c0,0.4,0.1,0.7,0.4,0.9c0.3,0.2,0.8,0.4,1.6,0.6l0,2.3c-0.4-0.1-0.7-0.2-0.9-0.3
				c-0.4-0.2-0.6-0.6-0.6-1.1h-0.9c-0.1,0.7,0.2,1.2,0.7,1.7c0.4,0.4,1,0.6,1.8,0.7l0,1.7h1.1l0-1.7c0.7-0.1,1.3-0.3,1.8-0.6
				C88.6,119.2,88.8,118.7,88.7,118.1z M84.5,116c-0.2-0.1-0.3-0.3-0.3-0.5c0-0.2,0.2-0.4,0.4-0.5c0.2-0.1,0.4-0.2,0.8-0.2l0,1.5
				C85,116.1,84.7,116.1,84.5,116z M87.3,119c-0.3,0.2-0.6,0.3-1,0.3l-0.1-2.2c0.4,0.1,0.7,0.2,0.9,0.3c0.3,0.2,0.6,0.4,0.6,0.8
				C87.8,118.5,87.7,118.8,87.3,119z"/>
		</g>
	</g>
	<g id="Tas_milieu">
		<g>
			<path class="st1" d="M60.6,140.4c0,3.1,4.5,5.5,9.8,5.5c5.4,0,9.7-2.5,9.7-5.5v-2.1c0-3.1-4.5-5.5-9.9-5.5s-9.6,2.5-9.6,5.5
				L60.6,140.4L60.6,140.4z"/>
			<ellipse class="st2" cx="70.4" cy="138.3" rx="9.7" ry="5.5"/>
			<path class="st3" d="M73.4,138.8c-0.1-0.4-0.2-0.8-0.5-1c-0.3-0.2-0.6-0.4-1-0.5c-0.3-0.1-0.6-0.1-1-0.2l0-1.6
				c0.7,0.1,1.1,0.4,1.2,0.9h0.8c-0.1-0.5-0.4-0.8-0.8-1.1c-0.3-0.2-0.8-0.3-1.2-0.3l0-0.9H70l0,0.9c-0.5,0-1,0.1-1.3,0.3
				c-0.4,0.2-0.7,0.6-0.7,0.9c0,0.4,0.1,0.7,0.4,0.9c0.3,0.2,0.8,0.4,1.6,0.6l0,2.3c-0.4-0.1-0.7-0.2-0.9-0.3
				c-0.4-0.2-0.6-0.6-0.6-1.1h-0.9c-0.1,0.6,0.2,1.2,0.7,1.7c0.4,0.4,1,0.6,1.8,0.7l0,1.7H71l0-1.7c0.7-0.1,1.3-0.3,1.8-0.6
				C73.2,139.8,73.4,139.3,73.4,138.8z M69.1,136.6c-0.2-0.1-0.3-0.3-0.3-0.5c0-0.2,0.2-0.4,0.4-0.5c0.2-0.1,0.4-0.2,0.8-0.2l0,1.5
				C69.6,136.8,69.3,136.7,69.1,136.6z M71.9,139.7c-0.3,0.2-0.6,0.3-1,0.3l-0.1-2.2c0.4,0.1,0.7,0.2,0.9,0.3
				c0.3,0.1,0.6,0.4,0.6,0.8C72.4,139.2,72.3,139.4,71.9,139.7z"/>
		</g>
		<g>
			<path class="st1" d="M60.6,137.9c0,3.1,4.5,5.5,9.8,5.5c5.4,0,9.7-2.5,9.7-5.5v-2.1c0-3.1-4.5-5.5-9.9-5.5s-9.6,2.5-9.6,5.5
				L60.6,137.9L60.6,137.9z"/>
			<ellipse class="st2" cx="70.4" cy="135.8" rx="9.7" ry="5.5"/>
			<path class="st3" d="M73.4,136.2c-0.1-0.4-0.2-0.8-0.5-1c-0.3-0.2-0.6-0.4-1-0.5c-0.3-0.1-0.6-0.1-1-0.2l0-1.6
				c0.7,0.1,1.1,0.4,1.2,0.9h0.8c-0.1-0.5-0.4-0.8-0.8-1.1c-0.3-0.2-0.8-0.3-1.2-0.3l0-0.9H70l0,0.9c-0.5,0-1,0.1-1.3,0.3
				c-0.4,0.2-0.7,0.6-0.7,0.9c0,0.4,0.1,0.7,0.4,0.9c0.3,0.2,0.8,0.4,1.6,0.6l0,2.3c-0.4-0.1-0.7-0.2-0.9-0.3
				c-0.4-0.2-0.6-0.6-0.6-1.1h-0.9c-0.1,0.6,0.2,1.2,0.7,1.7c0.4,0.4,1,0.6,1.8,0.7l0,1.7H71l0-1.7c0.7-0.1,1.3-0.3,1.8-0.6
				C73.2,137.3,73.4,136.8,73.4,136.2z M69.1,134.1c-0.2-0.1-0.3-0.3-0.3-0.5c0-0.2,0.2-0.4,0.4-0.5c0.2-0.1,0.4-0.2,0.8-0.2l0,1.5
				C69.6,134.3,69.3,134.2,69.1,134.1z M71.9,137.2c-0.3,0.2-0.6,0.3-1,0.3l-0.1-2.2c0.4,0.1,0.7,0.2,0.9,0.3
				c0.3,0.1,0.6,0.4,0.6,0.8C72.4,136.7,72.3,136.9,71.9,137.2z"/>
		</g>
		<g>
			<path class="st1" d="M60.6,135.4c0,3.1,4.5,5.5,9.8,5.5c5.4,0,9.7-2.5,9.7-5.5v-2.1c0-3.1-4.5-5.5-9.9-5.5s-9.6,2.5-9.6,5.5
				L60.6,135.4L60.6,135.4z"/>
			<ellipse class="st2" cx="70.4" cy="133.3" rx="9.7" ry="5.5"/>
			<path class="st3" d="M73.4,133.8c-0.1-0.4-0.2-0.8-0.5-1c-0.3-0.2-0.6-0.4-1-0.5c-0.3-0.1-0.6-0.1-1-0.2l0-1.6
				c0.7,0.1,1.1,0.4,1.2,0.9h0.8c-0.1-0.5-0.4-0.8-0.8-1.1c-0.3-0.2-0.8-0.3-1.2-0.3l0-0.9H70l0,0.9c-0.5,0-1,0.1-1.3,0.3
				c-0.4,0.2-0.7,0.6-0.7,0.9c0,0.4,0.1,0.7,0.4,0.9c0.3,0.2,0.8,0.4,1.6,0.6l0,2.3c-0.4-0.1-0.7-0.2-0.9-0.3
				c-0.4-0.2-0.6-0.6-0.6-1.1h-0.9c-0.1,0.6,0.2,1.2,0.7,1.7c0.4,0.4,1,0.6,1.8,0.7l0,1.7H71l0-1.7c0.7-0.1,1.3-0.3,1.8-0.6
				C73.2,134.8,73.4,134.3,73.4,133.8z M69.1,131.6c-0.2-0.1-0.3-0.3-0.3-0.5c0-0.2,0.2-0.4,0.4-0.5c0.2-0.1,0.4-0.2,0.8-0.2l0,1.5
				C69.6,131.8,69.3,131.7,69.1,131.6z M71.9,134.7c-0.3,0.2-0.6,0.3-1,0.3l-0.1-2.2c0.4,0.1,0.7,0.2,0.9,0.3
				c0.3,0.1,0.6,0.4,0.6,0.8C72.4,134.2,72.3,134.4,71.9,134.7z"/>
		</g>
		<g>
			<path class="st1" d="M60.6,132.9c0,3.1,4.5,5.5,9.8,5.5c5.4,0,9.7-2.5,9.7-5.5v-2.1c0-3.1-4.5-5.5-9.9-5.5s-9.6,2.5-9.6,5.5
				L60.6,132.9L60.6,132.9z"/>
			<ellipse class="st2" cx="70.4" cy="130.8" rx="9.7" ry="5.5"/>
			<path class="st3" d="M73.4,131.2c-0.1-0.4-0.2-0.8-0.5-1c-0.3-0.2-0.6-0.4-1-0.5c-0.3-0.1-0.6-0.1-1-0.2l0-1.6
				c0.7,0.1,1.1,0.4,1.2,0.9h0.8c-0.1-0.5-0.4-0.8-0.8-1.1c-0.3-0.2-0.8-0.3-1.2-0.3l0-0.9H70l0,0.9c-0.5,0-1,0.1-1.3,0.3
				c-0.4,0.2-0.7,0.5-0.7,1c0,0.4,0.1,0.7,0.4,0.9c0.3,0.2,0.8,0.4,1.6,0.6l0,2.3c-0.4-0.1-0.7-0.2-0.9-0.3
				c-0.4-0.2-0.6-0.6-0.6-1.1h-0.9c-0.1,0.6,0.2,1.2,0.7,1.7c0.4,0.4,1,0.6,1.8,0.7l0,1.7H71l0-1.7c0.7-0.1,1.3-0.3,1.8-0.6
				C73.2,132.3,73.4,131.8,73.4,131.2z M69.1,129.1c-0.2-0.1-0.3-0.3-0.3-0.5c0-0.2,0.2-0.4,0.4-0.5c0.2-0.1,0.4-0.2,0.8-0.2l0,1.5
				C69.6,129.3,69.3,129.2,69.1,129.1z M71.9,132.2c-0.3,0.2-0.6,0.3-1,0.3l-0.1-2.2c0.4,0.1,0.7,0.2,0.9,0.3
				c0.3,0.1,0.6,0.4,0.6,0.8C72.4,131.7,72.3,131.9,71.9,132.2z"/>
		</g>
		<g>
			<path class="st1" d="M60.6,130.4c0,3.1,4.5,5.5,9.8,5.5c5.4,0,9.7-2.5,9.7-5.5v-2.1c0-3.1-4.5-5.5-9.9-5.5s-9.6,2.5-9.6,5.5
				L60.6,130.4L60.6,130.4z"/>
			<ellipse class="st2" cx="70.4" cy="128.3" rx="9.7" ry="5.5"/>
			<path class="st3" d="M73.4,128.8c-0.1-0.4-0.2-0.8-0.5-1c-0.3-0.2-0.6-0.4-1-0.5c-0.3-0.1-0.6-0.2-1-0.2l0-1.6
				c0.7,0.1,1.1,0.4,1.2,0.8h0.8c-0.1-0.5-0.4-0.8-0.8-1.1c-0.3-0.2-0.8-0.3-1.2-0.3l0-0.9H70l0,0.9c-0.5,0-1,0.1-1.3,0.3
				c-0.4,0.2-0.7,0.6-0.7,0.9c0,0.4,0.1,0.7,0.4,0.9c0.3,0.2,0.8,0.4,1.6,0.6l0,2.3c-0.4-0.1-0.7-0.2-0.9-0.3
				c-0.4-0.2-0.6-0.6-0.6-1.1h-0.9c-0.1,0.6,0.2,1.2,0.7,1.7c0.4,0.4,1,0.6,1.8,0.7l0,1.7H71l0-1.7c0.7-0.1,1.3-0.3,1.8-0.6
				C73.2,129.8,73.4,129.3,73.4,128.8z M69.1,126.6c-0.2-0.1-0.3-0.3-0.3-0.5c0-0.2,0.2-0.4,0.4-0.5c0.2-0.1,0.4-0.2,0.8-0.2l0,1.5
				C69.6,126.8,69.3,126.7,69.1,126.6z M71.9,129.7c-0.3,0.2-0.6,0.3-1,0.3l-0.1-2.2c0.4,0.1,0.7,0.2,0.9,0.3
				c0.3,0.1,0.6,0.4,0.6,0.8C72.4,129.2,72.3,129.4,71.9,129.7z"/>
		</g>
	</g>
	<g id="Tas_gauche">
		<g>
			<path class="st1" d="M47.3,144.5c0,3.1,4.5,5.5,9.8,5.5c5.4,0,9.7-2.5,9.7-5.5v-2.1c0-3.1-4.5-5.5-9.9-5.5s-9.6,2.5-9.6,5.5
				C47.3,142.4,47.3,144.5,47.3,144.5z"/>
			<ellipse class="st2" cx="57.1" cy="142.3" rx="9.7" ry="5.5"/>
			<path class="st3" d="M60.1,142.8c-0.1-0.4-0.2-0.8-0.5-1c-0.3-0.2-0.6-0.4-1-0.5c-0.3-0.1-0.6-0.1-1-0.2l0-1.6
				c0.7,0.1,1.1,0.4,1.2,0.9h0.8c-0.1-0.5-0.4-0.8-0.8-1.1c-0.3-0.2-0.8-0.3-1.2-0.3l0-0.9h-0.7l0,0.9c-0.5,0-1,0.1-1.3,0.3
				c-0.4,0.2-0.7,0.6-0.7,0.9c0,0.4,0.1,0.7,0.4,0.9c0.3,0.2,0.8,0.4,1.6,0.6l0,2.3c-0.4-0.1-0.7-0.2-1-0.3
				c-0.4-0.2-0.6-0.6-0.6-1.1h-0.9c-0.1,0.6,0.2,1.2,0.7,1.7c0.4,0.4,1,0.6,1.8,0.7l0,1.7h1.1l0-1.7c0.7-0.1,1.3-0.3,1.8-0.6
				C60,143.9,60.2,143.4,60.1,142.8z M55.8,140.6c-0.2-0.1-0.3-0.3-0.3-0.5c0-0.2,0.2-0.4,0.4-0.5c0.2-0.1,0.5-0.2,0.8-0.2l0,1.5
				C56.3,140.8,56,140.7,55.8,140.6z M58.7,143.7c-0.3,0.2-0.6,0.3-1,0.3l0-2.2c0.4,0.1,0.7,0.2,0.9,0.3c0.3,0.1,0.5,0.4,0.6,0.8
				C59.2,143.2,59,143.5,58.7,143.7z"/>
		</g>
		<g>
			<path class="st1" d="M47.3,142c0,3.1,4.5,5.5,9.8,5.5c5.4,0,9.7-2.5,9.7-5.5v-2.1c0-3.1-4.5-5.5-9.9-5.5s-9.6,2.5-9.6,5.5
				L47.3,142L47.3,142z"/>
			<ellipse class="st2" cx="57.1" cy="139.8" rx="9.7" ry="5.5"/>
			<path class="st3" d="M60.1,140.3c-0.1-0.4-0.2-0.8-0.5-1c-0.3-0.2-0.6-0.4-1-0.5c-0.3-0.1-0.6-0.1-1-0.2l0-1.6
				c0.7,0.1,1.1,0.4,1.2,0.9h0.8c-0.1-0.5-0.4-0.8-0.8-1.1c-0.3-0.2-0.8-0.3-1.2-0.3l0-0.9h-0.7l0,0.9c-0.5,0-1,0.1-1.3,0.3
				c-0.4,0.2-0.7,0.6-0.7,0.9c0,0.4,0.1,0.7,0.4,0.9c0.3,0.2,0.8,0.4,1.6,0.6l0,2.3c-0.4-0.1-0.7-0.2-1-0.3
				c-0.4-0.2-0.6-0.6-0.6-1.1h-0.9c-0.1,0.6,0.2,1.2,0.7,1.7c0.4,0.4,1,0.6,1.8,0.7l0,1.7h1.1l0-1.7c0.7-0.1,1.3-0.3,1.8-0.6
				C60,141.4,60.2,140.9,60.1,140.3z M55.8,138.1c-0.2-0.1-0.3-0.3-0.3-0.5c0-0.2,0.2-0.4,0.4-0.5c0.2-0.1,0.5-0.2,0.8-0.2l0,1.5
				C56.3,138.3,56,138.2,55.8,138.1z M58.7,141.2c-0.3,0.2-0.6,0.3-1,0.3l0-2.2c0.4,0.1,0.7,0.2,0.9,0.3c0.3,0.1,0.5,0.4,0.6,0.8
				C59.2,140.7,59,141,58.7,141.2z"/>
		</g>
		<g>
			<path class="st1" d="M47.3,139.5c0,3.1,4.5,5.5,9.8,5.5c5.4,0,9.7-2.5,9.7-5.5v-2.1c0-3.1-4.5-5.5-9.9-5.5s-9.6,2.5-9.6,5.5
				C47.3,137.4,47.3,139.5,47.3,139.5z"/>
			<ellipse class="st2" cx="57.1" cy="137.3" rx="9.7" ry="5.5"/>
			<path class="st3" d="M60.1,137.8c-0.1-0.4-0.2-0.8-0.5-1c-0.3-0.2-0.6-0.4-1-0.5c-0.3-0.1-0.6-0.1-1-0.2l0-1.6
				c0.7,0.1,1.1,0.4,1.2,0.9h0.8c-0.1-0.5-0.4-0.8-0.8-1.1c-0.3-0.2-0.8-0.3-1.2-0.3l0-0.9h-0.7l0,0.9c-0.5,0-1,0.1-1.3,0.3
				c-0.4,0.2-0.7,0.6-0.7,0.9c0,0.4,0.1,0.7,0.4,0.9c0.3,0.2,0.8,0.4,1.6,0.6l0,2.3c-0.4-0.1-0.7-0.2-1-0.3
				c-0.4-0.2-0.6-0.6-0.6-1.1h-0.9c-0.1,0.6,0.2,1.2,0.7,1.7c0.4,0.4,1,0.6,1.8,0.7l0,1.7h1.1l0-1.7c0.7-0.1,1.3-0.3,1.8-0.6
				C60,138.9,60.2,138.4,60.1,137.8z M55.8,135.6c-0.2-0.1-0.3-0.3-0.3-0.5c0-0.2,0.2-0.4,0.4-0.5c0.2-0.1,0.5-0.2,0.8-0.2l0,1.5
				C56.3,135.8,56,135.7,55.8,135.6z M58.7,138.7c-0.3,0.2-0.6,0.3-1,0.3l0-2.2c0.4,0.1,0.7,0.2,0.9,0.3c0.3,0.1,0.5,0.4,0.6,0.8
				C59.2,138.2,59,138.5,58.7,138.7z"/>
		</g>
	</g>
</g>
<g id="N_x5F_bis">
</g>
<g id="Agence_x5F_interim">
</g>
<g id="Piscine_00000107566784248499352030000008077343621116538778_">
</g>
<g id="Geometre">
</g>
</svg>
