<?xml version="1.0" encoding="utf-8"?>
<!-- Generator: Adobe Illustrator 28.1.0, SVG Export Plug-In . SVG Version: 6.00 Build 0)  -->
<svg version="1.1" id="Calque_1" xmlns="http://www.w3.org/2000/svg" xmlns:xlink="http://www.w3.org/1999/xlink" x="0px" y="0px"
	 viewBox="0 0 160 250" style="enable-background:new 0 0 160 250;" xml:space="preserve">
<style type="text/css">
	.st0{fill:url(#SVGID_1_);stroke:#000000;stroke-width:0.25;stroke-miterlimit:10;}
	.st1{fill:#EC712C;stroke:#000000;stroke-width:0.25;stroke-miterlimit:10;}
	.st2{fill:#EC712C;}
	.st3{fill:#F8D06D;}
	.st4{fill:#F8D06D;stroke:#000000;stroke-width:0.25;stroke-miterlimit:10;}
</style>
<g id="Paysagiste">
</g>
<g id="Agence_x5F_immobiliere">
	<g id="Tas_droite">
	</g>
	<g id="Tas_milieu">
	</g>
	<g id="Tas_gauche">
	</g>
</g>
<g id="N_x5F_bis">
</g>
<g id="Agence_x5F_interim">
	
		<linearGradient id="SVGID_1_" gradientUnits="userSpaceOnUse" x1="80" y1="809" x2="80" y2="887.3444" gradientTransform="matrix(1 0 0 1 0 -724)">
		<stop  offset="0" style="stop-color:#F8BF76"/>
		<stop  offset="1" style="stop-color:#E99571"/>
	</linearGradient>
	<polygon class="st0" points="40,125 80,85 120,125 80,165 	"/>
	<polygon class="st1" points="53.7,151.86 63.87,104.52 68.47,104.52 60.05,151.86 	"/>
	<polygon class="st1" points="105.26,151.86 95.08,104.52 90.48,104.52 98.9,151.86 	"/>
	<g>
		<g>
			<rect x="51.22" y="109.35" class="st2" width="57.07" height="8.14"/>
			<path d="M108.19,109.44v7.95H51.32v-7.95H108.19 M108.39,109.25h-0.19H51.32h-0.19v0.19v7.95v0.19h0.19h56.88h0.19v-0.19v-7.95
				L108.39,109.25L108.39,109.25z"/>
		</g>
		<g>
			<polygon class="st3" points="55.22,117.48 63.48,109.37 72.54,109.35 63.91,117.48 			"/>
			<path d="M72.29,109.44l-8.42,7.95h-8.42l8.1-7.95H72.29 M72.78,109.25h-0.49h-8.74h-0.08l-0.05,0.05l-8.1,7.95l-0.34,0.33h0.47
				h8.42h0.08l0.05-0.05l8.42-7.95L72.78,109.25L72.78,109.25z"/>
		</g>
		<g>
			<polygon class="st3" points="89.21,117.48 97.48,109.37 106.53,109.35 97.9,117.48 			"/>
			<path d="M106.29,109.44l-8.42,7.95h-8.42l8.1-7.95H106.29 M106.77,109.25h-0.49h-8.74h-0.08l-0.05,0.05l-8.1,7.95l-0.34,0.33
				h0.47h8.42h0.08l0.05-0.05l8.42-7.95L106.77,109.25L106.77,109.25z"/>
		</g>
		<g>
			<polygon class="st3" points="71.35,117.48 79.62,109.37 88.67,109.35 80.04,117.48 			"/>
			<path d="M88.43,109.44L80,117.39h-8.42l8.1-7.95H88.43 M88.92,109.25h-0.49h-8.74h-0.08l-0.05,0.05l-8.11,7.95l-0.34,0.33h0.47
				H80h0.08l0.06-0.05l8.42-7.95L88.92,109.25L88.92,109.25z"/>
		</g>
	</g>
	<g>
		<g>
			<rect x="51.47" y="123.79" class="st2" width="57.07" height="8.14"/>
			<path d="M108.44,123.89v7.95H51.57v-7.95H108.44 M108.64,123.7h-0.19H51.57h-0.19v0.19v7.95v0.19h0.19h56.88h0.19v-0.19v-7.95
				V123.7L108.64,123.7z"/>
		</g>
		<polygon class="st4" points="55.7,131.83 63.8,123.89 72.54,123.89 64.12,131.83 		"/>
		<polygon class="st4" points="89.69,131.83 97.79,123.89 106.53,123.89 98.11,131.83 		"/>
		<polygon class="st4" points="71.83,131.83 79.93,123.89 88.67,123.89 80.25,131.83 		"/>
	</g>
</g>
<g id="Piscine_00000107566784248499352030000008077343621116538778_">
</g>
<g id="Geometre">
</g>
</svg>
