<?xml version="1.0" encoding="utf-8"?>
<!-- Generator: Adobe Illustrator 28.1.0, SVG Export Plug-In . SVG Version: 6.00 Build 0)  -->
<svg version="1.1" id="Calque_1" xmlns="http://www.w3.org/2000/svg" xmlns:xlink="http://www.w3.org/1999/xlink" x="0px" y="0px"
	 viewBox="0 0 160 250" style="enable-background:new 0 0 160 250;" xml:space="preserve">
<style type="text/css">
	.st0{fill:#ED8FA7;stroke:#000000;stroke-width:0.25;stroke-miterlimit:10;}
	.st1{fill:#D75967;stroke:#FFFFFF;stroke-width:0.5;stroke-miterlimit:10;}
	.st2{fill:#EC9DAC;}
	.st3{fill:#AE3B4E;}
	.st4{fill:none;stroke:#DD526B;stroke-width:0.25;stroke-miterlimit:10;}
	.st5{fill:#DB5268;}
	.st6{fill:#AF3C4F;}
	.st7{fill:#B6384B;}
	.st8{fill:#C84358;}
</style>
<g id="Paysagiste">
</g>
<g id="Agence_x5F_immobiliere">
	<g id="Tas_droite">
	</g>
	<g id="Tas_milieu">
	</g>
	<g id="Tas_gauche">
	</g>
</g>
<g id="N_x5F_bis">
	<polygon class="st0" points="46.58,134.03 46.58,103.49 83.52,94.43 120.06,103.33 120.06,134.03 82.6,146.18 	"/>
	<path class="st1" d="M95.76,110.46c-21.25,3.77-21.98,3.87-21.98,3.87l-0.01-7.06c0.81,0.02,6,0.09,6-0.73
		c0-0.89,3.56-0.69,3.56-0.69s0-5.83,0-6.32s-5.59,0.31-5.59,1.05c0,0.63-4.09,0.99-4.09,0.99h-1.43l0.03,13.1
		c0,0-4.52,0.86-5.82,1.15c-7.46,1.62-7.62,7.38-7.62,7.38l0.33,19.76c0,0,0.01,0.02-14.49,3.67c-10.4,2.61-2.38,12.16,16.64,7.66
		c16.26-3.84,48.49-11.97,48.49-11.97s0-15.96,0-23.09C109.77,115.43,102.16,109.32,95.76,110.46z"/>
	<g>
		<path class="st2" d="M90.81,134.54c0,1.56-0.4,2.87-1.22,3.93c-0.81,1.06-2.01,1.82-3.59,2.27l-4.97,1.4V125l4.73-1.1
			c1.38-0.32,2.47-0.19,3.26,0.39c0.78,0.58,1.17,1.52,1.17,2.84c0,1.61-0.61,2.95-1.84,4.05c0.83,0.06,1.45,0.4,1.86,1.03
			C90.61,132.83,90.81,133.61,90.81,134.54z M82.82,131.73l2.93-0.74c0.96-0.24,1.66-0.62,2.1-1.12c0.45-0.51,0.67-1.21,0.67-2.13
			c0-0.83-0.21-1.39-0.65-1.71c-0.43-0.31-1.19-0.34-2.28-0.08l-2.77,0.66C82.82,126.61,82.82,131.73,82.82,131.73z M82.82,139.61
			l3.18-0.88c2.06-0.57,3.07-1.81,3.07-3.73c0-1-0.24-1.66-0.71-2c-0.48-0.34-1.33-0.34-2.59-0.02l-2.95,0.77
			C82.82,133.76,82.82,139.61,82.82,139.61z"/>
		<path class="st2" d="M95,138.19l-1.65,0.47v-16.52l1.65-0.39V138.19z"/>
		<path class="st2" d="M102.44,136.36c-1.68,0.48-2.93,0.32-3.78-0.47c-0.85-0.8-1.3-2-1.34-3.6l1.55-0.41
			c0.08,1.19,0.46,1.98,1.12,2.38c0.66,0.39,1.46,0.46,2.38,0.2c0.87-0.24,1.57-0.68,2.1-1.31c0.53-0.63,0.79-1.36,0.79-2.19
			c0-0.87-0.27-1.44-0.82-1.69c-0.55-0.26-1.49-0.4-2.85-0.45c-1.37-0.04-2.35-0.33-2.95-0.88c-0.6-0.55-0.9-1.41-0.9-2.58
			c0-1.32,0.39-2.5,1.18-3.52c0.78-1.02,1.81-1.68,3.09-1.98c1.33-0.31,2.39-0.14,3.2,0.51c0.8,0.64,1.22,1.71,1.27,3.21l-1.49,0.37
			c-0.15-1.89-1.12-2.63-2.91-2.2c-0.87,0.21-1.56,0.59-2.04,1.16c-0.49,0.56-0.73,1.22-0.73,1.97c0,0.68,0.2,1.14,0.59,1.38
			c0.39,0.24,1.12,0.39,2.17,0.43c1.05,0.05,1.88,0.15,2.49,0.3c0.61,0.15,1.13,0.49,1.56,1.02s0.64,1.32,0.64,2.4
			c0,1.36-0.39,2.6-1.18,3.73C104.78,135.25,103.74,136,102.44,136.36z"/>
	</g>
	<path class="st3" d="M77.45,148.21l-16.32-4.54c0,0-0.02-0.65-0.29-19.52c-0.11-8.02,16.61-5.99,16.61,0.4
		C77.45,150.23,77.45,148.21,77.45,148.21z"/>
	<line class="st4" x1="61.13" y1="143.67" x2="77.45" y2="139.91"/>
	<g>
		<polygon class="st5" points="61.29,128.52 76.73,124.82 76.73,143.71 69.06,145.14 		"/>
		<path class="st6" d="M76.43,125.2v18.27l-7.21,1.34l-7.51-16.08L76.43,125.2 M77.02,124.45l-0.73,0.18l-14.72,3.52l-0.71,0.17
			l0.31,0.66l7.52,16.08l0.2,0.42l0.45-0.08l7.21-1.34l0.49-0.09v-0.51V125.2v-0.75H77.02z"/>
	</g>
	<g>
		<polygon class="st5" points="62.53,127.51 76.73,123.8 76.73,142.7 69.65,144.13 		"/>
		<path class="st6" d="M76.43,124.19v18.27l-6.6,1.34l-6.89-16.08L76.43,124.19 M77.02,123.42l-0.74,0.2l-13.49,3.52l-0.67,0.17
			l0.27,0.64l6.89,16.08l0.19,0.45l0.48-0.1l6.6-1.34l0.48-0.1v-0.49v-18.27L77.02,123.42L77.02,123.42z"/>
	</g>
	<polygon class="st7" points="65.01,128.52 68.33,127.54 69.98,131.07 66.59,132.05 	"/>
	<polygon class="st8" points="68.05,134.7 67.86,134.14 76.41,131.27 76.42,131.89 	"/>
	<polygon class="st8" points="69.11,137.86 68.92,137.29 76.41,134.78 76.41,135.4 	"/>
	<polygon class="st8" points="69.63,139.43 69.44,138.87 76.41,136.53 76.41,137.16 	"/>
	<polygon class="st8" points="68.58,136.28 68.39,135.71 76.41,133.03 76.41,133.65 	"/>
</g>
<g id="Agence_x5F_interim">
</g>
<g id="Piscine_00000107566784248499352030000008077343621116538778_">
</g>
<g id="Geometre">
</g>
</svg>
