<?xml version="1.0" encoding="utf-8"?>
<!-- Generator: Adobe Illustrator 24.3.2, SVG Export Plug-In . SVG Version: 6.00 Build 0)  -->
<svg version="1.1" xmlns="http://www.w3.org/2000/svg" xmlns:xlink="http://www.w3.org/1999/xlink" x="0px" y="0px"
	 viewBox="0 0 160 250" style="enable-background:new 0 0 160 250;" xml:space="preserve">
<style type="text/css">
	.st0{display:none;}
	.st1{display:inline;fill:#FFFFFF;stroke:#1D1D1B;stroke-miterlimit:10;}
	.st2{display:inline;}
	.st3{fill:#4DC0CE;}
	.st4{fill:#625047;}
	.st5{fill:none;stroke:#E48A01;stroke-width:2;stroke-miterlimit:10;}
	.st6{fill:none;stroke:#935402;stroke-width:0.5;stroke-miterlimit:10;}
	.st7{fill:#E48A01;}
	.st8{fill:none;stroke:#E48A01;stroke-linecap:round;stroke-linejoin:round;stroke-miterlimit:10;}
	.st9{fill:none;}
	.st10{fill:none;stroke:#625047;stroke-width:0.25;stroke-miterlimit:10;}
	.st11{fill:#251503;}
	.st12{fill:#DED3C1;}
	.st13{fill:#ED45C5;}
	.st14{fill:#B22297;}
	.st15{fill:#DA7D00;}
	.st16{fill:#FBD35B;}
	.st17{fill:#FCFD8A;}
	.st18{fill:#FC531F;}
	.st19{fill:#443B26;}
	.st20{fill:#FCFAD0;}
	.st21{fill:#FAC750;}
	.st22{fill:#F3F3E8;}
	.st23{fill:#9EBFB0;}
	.st24{fill:#81A59D;}
	.st25{fill:#59776C;}
	.st26{fill:#685548;}
	.st27{fill:#303E3B;}
	.st28{fill:#FFFFF6;}
	.st29{fill:#C7E5CA;}
	.st30{fill:#A1B19D;}
	.st31{fill:#8BC592;}
	.st32{fill:#CF453C;}
	.st33{fill:none;stroke:#FBB92C;stroke-width:3;stroke-miterlimit:10;}
	.st34{fill:none;stroke:#FBB92C;stroke-width:2;stroke-miterlimit:10;}
	.st35{fill:#152E15;}
	.st36{fill:#434E6E;}
	.st37{fill:#232D23;}
	.st38{fill:#C6D0DB;}
	.st39{fill:none;stroke:#848C96;stroke-width:0.25;stroke-miterlimit:10;}
	.st40{fill:#5DC1D5;}
	.st41{fill:#9B8AB8;}
	.st42{fill:#EAE100;}
	.st43{fill:url(#SVGID_1_);}
	.st44{fill:url(#SVGID_2_);}
	.st45{fill:url(#SVGID_3_);}
	.st46{fill:url(#SVGID_4_);}
	.st47{fill:url(#SVGID_5_);}
	.st48{fill:url(#SVGID_6_);}
	.st49{fill:url(#SVGID_7_);}
	.st50{fill:url(#SVGID_8_);}
	.st51{fill:url(#SVGID_9_);}
	.st52{fill:url(#SVGID_10_);}
	.st53{fill:url(#SVGID_11_);}
	.st54{fill:#D95232;}
</style>
<g id="Calque_1" class="st0">
</g>
<g id="Grue" class="st0">
</g>
<g id="Calque_2">
</g>
<g id="Show">
</g>
<g id="Calculatrice">
	<g>
		<path class="st21" d="M78.67,158.34l-36.4-36.4c-0.87-0.87-0.87-2.29,0-3.17l35.89-35.89c0.87-0.87,2.29-0.87,3.17,0l36.4,36.4
			c0.87,0.87,0.87,2.29,0,3.17l-35.89,35.89C80.96,159.22,79.55,159.22,78.67,158.34z"/>
		<path class="st22" d="M47.32,81.92c0,0,7.54,14.41,9.75,21.83c2.22,7.43,4.3,22.95,4.03,26.27s20.4,2.99,22.43,2.66
			c2.03-0.33,28.85-8.76,28.96-9.15s-3.44-0.94-5.54-2.16c-2.11-1.22-8.76-8.31-9.98-12.41S86.89,74.71,86.89,72.05L47.32,81.92z"/>
		<path class="st23" d="M70.12,120.58l-1.59-9.23c-0.1-0.54-0.63-0.88-1.16-0.75l-4.41,1.12c-0.46,0.12-0.76,0.56-0.7,1.04
			l1.11,8.11L70.12,120.58z"/>
		<path class="st23" d="M68.65,105.27l3.84,14.98c0.09,0.36,0.42,0.61,0.79,0.61h3.82c0.54,0,0.93-0.53,0.78-1.05l-4.69-15.49
			c-0.12-0.39-0.51-0.63-0.91-0.57l-2.97,0.51C68.83,104.35,68.53,104.81,68.65,105.27z"/>
		<path class="st23" d="M74.06,96.55l3.03-0.83c0.45-0.12,0.9,0.15,1.01,0.6c0.62,2.66,2.59,11.11,3.75,14.86
			c1.13,3.65,5.59,12.03,7.22,15.03c0.28,0.52-0.06,1.15-0.65,1.2l-5.52,0.45c-0.39,0.03-0.74-0.21-0.85-0.58l-8.56-29.72
			C73.37,97.13,73.62,96.67,74.06,96.55z"/>
		<path class="st23" d="M81.08,96.81l2.86-0.28c0.55-0.05,1.04,0.3,1.16,0.84c0.5,2.3,1.79,8.17,2.23,9.98
			c0.55,2.27,1.72,7.32,3.1,9.2c1.39,1.88,7.54,7.43,7.37,7.7c-0.17,0.28-3.55,2.27-4.54,2.11c-1-0.17-6.55-8.23-8.54-12.58
			c-1.98-4.34-3.76-13.55-4.25-16.18C80.41,97.21,80.68,96.85,81.08,96.81z"/>
		<path class="st23" d="M86.14,89.76c-0.05-0.5,0.27-0.95,0.76-1.06c1.01-0.24,2.59-0.59,2.71-0.52c0.17,0.11,1,7.93,2.05,11.97
			c1.05,4.05,5.98,14.65,7.26,16.29c1.11,1.42,2.95,3.1,4.18,4.16c0.56,0.49,0.41,1.39-0.28,1.67l-2.92,1.19
			c-0.36,0.15-0.78,0.07-1.06-0.2c-1.35-1.3-5.24-5.16-6.55-7.49c-0.02-0.04-0.03-0.06-0.05-0.1c-0.24-0.54-2.34-5.43-3.86-11.69
			C87.09,98.6,86.37,92.07,86.14,89.76z"/>
		<path class="st24" d="M60.08,106.86c0,0,1.02,2.22,2.17,2.11c0,0,10.26-15.74,11.02-16.18s7.46,2.88,8.05,2.33
			c0.59-0.55,4.82-10.64,4.82-10.64s1.64,0.22,1.75,0C88,84.25,87.77,78.7,87,78.81c-0.78,0.11-5.32,2.44-4.77,3.1
			c0.55,0.67,1.3,1,1.3,1s-2.06,8.65-3.06,8.54s-6.3-2.66-7.2-2C72.37,90.12,60.08,106.86,60.08,106.86z"/>
		<g>
			<path class="st25" d="M50,122.68c0-1.16,0.93-2.09,2.08-2.11c6.8-0.11,28.03-0.43,28.96,0.04c1.11,0.55,1.88,0.67,2,2
				c0.11,1.33,0.67,49.33,0.44,50.1s-0.89,2.77-2.33,2.99s-29.37,0.44-29.82,0c-0.44-0.44-1.22-0.55-1.33-1.22
				C49.91,173.89,49.98,132.5,50,122.68z"/>
			<path class="st26" d="M78.92,130.91H54.56c-0.53,0-0.96-0.43-0.96-0.96v-4.07c0-0.53,0.43-0.96,0.96-0.96h24.36
				c0.53,0,0.96,0.43,0.96,0.96v4.07C79.88,130.48,79.45,130.91,78.92,130.91z"/>
			<path class="st27" d="M53.8,135.64v1.84c0,0.23,0.18,0.41,0.41,0.41h4.06c0.23,0,0.41-0.18,0.41-0.41v-1.84
				c0-0.23-0.18-0.41-0.41-0.41h-4.06C53.99,135.23,53.8,135.42,53.8,135.64z"/>
			<path class="st27" d="M61.45,135.55v2.02c0,0.18,0.14,0.32,0.32,0.32h3.02c0.18,0,0.32-0.14,0.32-0.32v-2.02
				c0-0.18-0.14-0.32-0.32-0.32h-3.02C61.59,135.23,61.45,135.38,61.45,135.55z"/>
			<path class="st27" d="M68.77,135.63v1.87c0,0.22,0.18,0.4,0.4,0.4h3.09c0.22,0,0.4-0.18,0.4-0.4v-1.87c0-0.22-0.18-0.4-0.4-0.4
				h-3.09C68.94,135.23,68.77,135.41,68.77,135.63z"/>
			<path class="st27" d="M75.99,135.62v1.89c0,0.21,0.17,0.38,0.38,0.38h2.77c0.21,0,0.38-0.17,0.38-0.38v-1.89
				c0-0.21-0.17-0.38-0.38-0.38h-2.77C76.16,135.23,75.99,135.41,75.99,135.62z"/>
			<path class="st27" d="M53.8,140.71v1.84c0,0.23,0.18,0.41,0.41,0.41h4.06c0.23,0,0.41-0.18,0.41-0.41v-1.84
				c0-0.23-0.18-0.41-0.41-0.41h-4.06C53.99,140.31,53.8,140.49,53.8,140.71z"/>
			<path class="st27" d="M61.45,140.63v2.02c0,0.18,0.14,0.32,0.32,0.32h3.02c0.18,0,0.32-0.14,0.32-0.32v-2.02
				c0-0.18-0.14-0.32-0.32-0.32h-3.02C61.59,140.31,61.45,140.45,61.45,140.63z"/>
			<path class="st27" d="M68.77,140.7v1.87c0,0.22,0.18,0.4,0.4,0.4h3.09c0.22,0,0.4-0.18,0.4-0.4v-1.87c0-0.22-0.18-0.4-0.4-0.4
				h-3.09C68.94,140.31,68.77,140.48,68.77,140.7z"/>
			<path class="st28" d="M61.1,152.35v2.56c0,0.31,0.19,0.57,0.42,0.57h4.14c0.23,0,0.42-0.25,0.42-0.57v-2.56
				c0-0.31-0.19-0.57-0.42-0.57h-4.14C61.29,151.78,61.1,152.03,61.1,152.35z"/>
			<path class="st29" d="M53.76,152.35v2.56c0,0.31,0.19,0.57,0.42,0.57h4.14c0.23,0,0.42-0.25,0.42-0.57v-2.56
				c0-0.31-0.19-0.57-0.42-0.57h-4.14C53.94,151.78,53.76,152.03,53.76,152.35z"/>
			<path class="st29" d="M53.76,158.02v2.01c0,0.25,0.19,0.44,0.42,0.44h4.14c0.23,0,0.42-0.2,0.42-0.44v-2.01
				c0-0.25-0.19-0.44-0.42-0.44h-4.14C53.94,157.57,53.76,157.77,53.76,158.02z"/>
			<path class="st29" d="M53.76,163.5v2.01c0,0.25,0.19,0.44,0.42,0.44h4.14c0.23,0,0.42-0.2,0.42-0.44v-2.01
				c0-0.25-0.19-0.44-0.42-0.44h-4.14C53.94,163.06,53.76,163.26,53.76,163.5z"/>
			<path class="st29" d="M53.76,168.57v2.35c0,0.29,0.19,0.52,0.42,0.52h4.14c0.23,0,0.42-0.23,0.42-0.52v-2.35
				c0-0.29-0.19-0.52-0.42-0.52h-4.14C53.94,168.05,53.76,168.28,53.76,168.57z"/>
			<path class="st28" d="M68.35,152.22v2.81c0,0.25,0.17,0.44,0.39,0.44h3.66c0.21,0,0.39-0.2,0.39-0.44v-2.81
				c0-0.25-0.17-0.44-0.39-0.44h-3.66C68.52,151.78,68.35,151.98,68.35,152.22z"/>
			<path class="st28" d="M75.78,152.33v2.6c0,0.3,0.18,0.55,0.4,0.55h3.15c0.22,0,0.4-0.25,0.4-0.55v-2.6c0-0.3-0.18-0.55-0.4-0.55
				h-3.15C75.96,151.78,75.78,152.03,75.78,152.33z"/>
			<path class="st28" d="M61.1,158.02v2.01c0,0.25,0.19,0.44,0.42,0.44h4.14c0.23,0,0.42-0.2,0.42-0.44v-2.01
				c0-0.25-0.19-0.44-0.42-0.44h-4.14C61.29,157.57,61.1,157.77,61.1,158.02z"/>
			<path class="st28" d="M68.35,157.92v2.2c0,0.19,0.17,0.35,0.39,0.35h3.66c0.21,0,0.39-0.16,0.39-0.35v-2.2
				c0-0.19-0.17-0.35-0.39-0.35h-3.66C68.52,157.57,68.35,157.73,68.35,157.92z"/>
			<path class="st28" d="M75.78,158v2.03c0,0.24,0.18,0.43,0.4,0.43h3.15c0.22,0,0.4-0.19,0.4-0.43V158c0-0.24-0.18-0.43-0.4-0.43
				h-3.15C75.96,157.57,75.78,157.76,75.78,158z"/>
			<path class="st28" d="M61.1,163.5v2.01c0,0.25,0.19,0.44,0.42,0.44h4.14c0.23,0,0.42-0.2,0.42-0.44v-2.01
				c0-0.25-0.19-0.44-0.42-0.44h-4.14C61.29,163.06,61.1,163.26,61.1,163.5z"/>
			<path class="st28" d="M68.35,163.41v2.2c0,0.19,0.17,0.35,0.39,0.35h3.66c0.21,0,0.39-0.16,0.39-0.35v-2.2
				c0-0.19-0.17-0.35-0.39-0.35h-3.66C68.52,163.06,68.35,163.21,68.35,163.41z"/>
			<path class="st28" d="M75.78,163.49v2.03c0,0.24,0.18,0.43,0.4,0.43h3.15c0.22,0,0.4-0.19,0.4-0.43v-2.03
				c0-0.24-0.18-0.43-0.4-0.43h-3.15C75.96,163.06,75.78,163.25,75.78,163.49z"/>
			<path class="st28" d="M61.1,168.57v2.35c0,0.29,0.19,0.52,0.42,0.52h4.14c0.23,0,0.42-0.23,0.42-0.52v-2.35
				c0-0.29-0.19-0.52-0.42-0.52h-4.14C61.29,168.05,61.1,168.28,61.1,168.57z"/>
			<path class="st28" d="M68.35,168.45v2.58c0,0.23,0.17,0.41,0.39,0.41h3.66c0.21,0,0.39-0.18,0.39-0.41v-2.58
				c0-0.23-0.17-0.41-0.39-0.41h-3.66C68.52,168.05,68.35,168.23,68.35,168.45z"/>
			<path class="st28" d="M75.78,168.55v2.38c0,0.28,0.18,0.51,0.4,0.51h3.15c0.22,0,0.4-0.23,0.4-0.51v-2.38
				c0-0.28-0.18-0.51-0.4-0.51h-3.15C75.96,168.05,75.78,168.27,75.78,168.55z"/>
			<path class="st27" d="M75.99,140.69v1.89c0,0.21,0.17,0.38,0.38,0.38h2.77c0.21,0,0.38-0.17,0.38-0.38v-1.89
				c0-0.21-0.17-0.38-0.38-0.38h-2.77C76.16,140.31,75.99,140.48,75.99,140.69z"/>
			<path class="st30" d="M53.8,146.93v2.11c0,0.26,0.47,0.47,1.05,0.47H65.3c0.58,0,1.05-0.21,1.05-0.47v-2.11
				c0-0.26-0.47-0.47-1.05-0.47H54.85C54.27,146.46,53.8,146.67,53.8,146.93z"/>
			<path class="st30" d="M68.77,146.91v2.14c0,0.25,0.18,0.45,0.4,0.45h3.09c0.22,0,0.4-0.2,0.4-0.45v-2.14
				c0-0.25-0.18-0.45-0.4-0.45h-3.09C68.94,146.46,68.77,146.66,68.77,146.91z"/>
			<path class="st30" d="M75.99,146.9v2.17c0,0.24,0.17,0.44,0.38,0.44h2.77c0.21,0,0.38-0.2,0.38-0.44v-2.17
				c0-0.24-0.17-0.44-0.38-0.44h-2.77C76.16,146.46,75.99,146.65,75.99,146.9z"/>
		</g>
	</g>
</g>
<g id="Voiture">
</g>
<g id="Ciseaux">
</g>
</svg>
