<?xml version="1.0" encoding="utf-8"?>
<!-- Generator: Adobe Illustrator 28.1.0, SVG Export Plug-In . SVG Version: 6.00 Build 0)  -->
<svg version="1.1" id="Calque_1" xmlns="http://www.w3.org/2000/svg" xmlns:xlink="http://www.w3.org/1999/xlink" x="0px" y="0px"
	 viewBox="0 0 160 250" style="enable-background:new 0 0 160 250;" xml:space="preserve">
<style type="text/css">
	.st0{display:none;}
	.st1{fill:#8BC592;}
	.st2{fill:#CF453C;}
	.st3{fill:none;stroke:#FBB92C;stroke-width:3;stroke-miterlimit:10;}
	.st4{fill:none;stroke:#FBB92C;stroke-width:2;stroke-miterlimit:10;}
	.st5{fill:#152E15;}
	.st6{fill:#434E6E;}
	.st7{fill:#232D23;}
	.st8{fill:#C6D0DB;}
	.st9{fill:none;stroke:#848C96;stroke-width:0.25;stroke-miterlimit:10;}
	.st10{fill:#5DC1D5;}
</style>
<g id="Calque_1_00000132794718460452058600000010958578030222520449_" class="st0">
</g>
<g id="Grue" class="st0">
</g>
<g id="Calque_2_00000175281430875068096160000007229928974329705615_">
</g>
<g id="Show">
</g>
<g id="Calculatrice">
</g>
<g id="Voiture">
	<g>
		<rect x="50.3" y="86.5" class="st1" width="56.6" height="67.9"/>
		<polygon class="st2" points="50.3,161.5 105.8,161.5 86.6,134.7 71.5,134.7 		"/>
		<line class="st3" x1="59.1" y1="137.6" x2="59.1" y2="156.8"/>
		<line class="st3" x1="100.5" y1="137.6" x2="100.5" y2="156.8"/>
		<line class="st3" x1="93.7" y1="136.1" x2="93.7" y2="147.2"/>
		<line class="st3" x1="65.7" y1="136.1" x2="65.7" y2="147.2"/>
		<line class="st4" x1="89.6" y1="134.4" x2="89.6" y2="140.8"/>
		<line class="st4" x1="70.6" y1="134.4" x2="70.6" y2="140.8"/>
		<line class="st4" x1="85.8" y1="132" x2="85.8" y2="136"/>
		<line class="st4" x1="74.5" y1="132" x2="74.5" y2="136"/>
		<path class="st5" d="M44.7,117.3c0,0-2.4,0.9-2.4,3.7c0,2.6,1.6,3.7,2.7,3.8s5.7-0.2,5.7-0.2l0.9-1.1c0,0,1-4.2,3.1-4.3
			s4.6,0.1,5.9,1.8c1.2,1.8,1.7,3.3,2,3.4c0.3,0.1,32.1,0.1,32.2,0s1.1-0.7,1.1-0.8c0-0.1,0-1.1,0-1.1s2.6-3.2,3.9-3.3
			s3.2-0.9,3.8-0.1s1.9,4.5,1.9,4.5s0.7,1,1.2,0.9s6.3,0,6.8,0s2.1,0.2,2.3-0.2c0.3-0.3,1.8-1.1,1.9-1.9c0-0.8-0.2-2.8-0.9-3.1
			s-2.8-1.3-2.8-1.7c0-0.4,0-1.1,0.6-1.1c0.5-0.1,1.1-0.7,0.4-0.8s-4.2,0-4.2,0L44.7,117.3z"/>
		<path class="st6" d="M46.1,114.6c0,0-2.4,2.3-2.4,3.6s-1.4,2.9,0,4.4s4.7,0.9,4.7,0.9l1.4-2.6v2.7h1.9c0,0,1.2-4.5,3.5-4.5
			c2.3,0,5.5,0.6,6.1,3.8h33l2.3-0.2c0,0,1.7-2.7,3.3-2.9s5.2-0.8,6.4,3.8h8.3c0,0,2.6-0.7,2-2.1c-0.6-1.4-3.3-2.4-3.5-3.3
			s-1.2-2.9-3.5-3c-2.3-0.2-10.6-0.6-11.2-1.7c-0.6-1.1-4.9-4.7-6.8-5.2c-2-0.4-30.3-0.2-30.8,0s-3.5,4.1-4.8,4.4
			C54.6,113.1,46.1,114.6,46.1,114.6z"/>
		
			<ellipse transform="matrix(0.9993 -3.630149e-02 3.630149e-02 0.9993 -4.4311 3.7543)" class="st7" cx="101.2" cy="123.9" rx="3.9" ry="4"/>
		
			<ellipse transform="matrix(0.9993 -3.630149e-02 3.630149e-02 0.9993 -4.4585 2.1323)" class="st7" cx="56.5" cy="123.8" rx="3.9" ry="4"/>
		
			<ellipse transform="matrix(0.9993 -3.630149e-02 3.630149e-02 0.9993 -4.4585 2.1323)" class="st8" cx="56.5" cy="123.8" rx="3.1" ry="3.2"/>
		
			<ellipse transform="matrix(0.9993 -3.630149e-02 3.630149e-02 0.9993 -4.4311 3.7543)" class="st8" cx="101.2" cy="123.9" rx="3.1" ry="3.2"/>
		<polyline class="st9" points="55.6,122.2 55.6,123.9 54.9,124.3 		"/>
		<polyline class="st9" points="57.4,122.5 57.4,123.5 58,123.9 		"/>
		<polyline class="st9" points="55.6,123.9 56.5,124.6 57,124.2 		"/>
		<line class="st9" x1="56.5" y1="125.4" x2="56.5" y2="124.6"/>
		<g>
			<polyline class="st9" points="100.3,122.3 100.3,124.1 99.6,124.4 			"/>
			<polyline class="st9" points="102.1,122.7 102.1,123.7 102.7,124.1 			"/>
			<polyline class="st9" points="100.3,124.1 101.1,124.7 101.7,124.4 			"/>
			<line class="st9" x1="101.2" y1="125.5" x2="101.1" y2="124.7"/>
		</g>
		<polygon class="st10" points="58.4,112.9 62.4,112.9 67.7,109.5 62,109.5 		"/>
		<polygon class="st10" points="71.7,109.5 66.9,112.9 76.2,112.9 76.2,109.5 		"/>
		<rect x="78.1" y="109.5" class="st10" width="6.7" height="3"/>
		<path class="st10" d="M86.3,109.5v3l8.9,0.4c0,0-2.8-3.1-4-3.4S86.3,109.5,86.3,109.5z"/>
	</g>
</g>
<g id="Ciseaux">
</g>
</svg>
