<?xml version="1.0" encoding="utf-8"?>
<!-- Generator: Adobe Illustrator 28.1.0, SVG Export Plug-In . SVG Version: 6.00 Build 0)  -->
<svg version="1.1" id="Calque_1" xmlns="http://www.w3.org/2000/svg" xmlns:xlink="http://www.w3.org/1999/xlink" x="0px" y="0px"
	 viewBox="0 0 160 250" style="enable-background:new 0 0 160 250;" xml:space="preserve">
<style type="text/css">
	.st0{display:none;}
	.st1{fill:#ED45C5;}
	.st2{fill:#B22297;}
	.st3{fill:#DA7D00;}
	.st4{fill:#FBD35B;}
	.st5{fill:#FCFD8A;}
	.st6{fill:#FC531F;}
	.st7{fill:#443B26;}
	.st8{fill:#FCFAD0;}
</style>
<g id="Calque_1_00000020390702472583755190000005724482391012904066_" class="st0">
</g>
<g id="Grue" class="st0">
</g>
<g id="Calque_2_00000006703590068265749550000017836126626619437461_">
</g>
<g id="Show">
	<g>
		<polygon class="st1" points="72.8,103.3 80.2,91.2 93.6,112.8 116.6,119.2 101.6,138.8 102.9,163.8 80.2,155 57.2,164.5 59,146.8 
			55.2,131.7 43.4,119.4 55.7,115.9 		"/>
		<polygon class="st2" points="72.9,103 77.7,103 77.5,95.6 		"/>
		<rect x="73.4" y="105" class="st2" width="4.2" height="7.1"/>
		<rect x="73.8" y="113.9" class="st2" width="3.7" height="11.8"/>
		<rect x="74.3" y="128.2" class="st2" width="3.3" height="6.3"/>
		<path class="st3" d="M55.8,89.2C55,89.6,54,91.1,54,91.8c0,0.7,0,51.7,0,51.7s-0.1,2.2,2.1,2.4c0,0,24.6-2.2,24.6-1.9
			c0,0.2-0.3,2.1-0.6,3.7c-0.1,0.7,0.7,1.2,1.3,0.8c3.7-2.9,12.3-9.7,12.6-10.4c0.4-0.9-0.9-1.3-1.3-1.9c-0.4-0.4-8.3-5.8-11.2-7.7
			c-0.4-0.3-1,0-1,0.5v5.4l-8.2,0.2L71.4,91c0-0.8-0.7-1.5-1.5-1.5C69.8,89.5,56.6,88.9,55.8,89.2z"/>
		<path class="st4" d="M57.6,89.2c-0.8,0.3-1.8,1.9-1.8,2.6c0,0.7,0,51.7,0,51.7s-0.1,2.2,2.1,2.4c0,0,24.6-2.2,24.6-1.9
			c0,0.2-0.3,2.1-0.6,3.7c-0.1,0.7,0.7,1.2,1.3,0.8c3.7-2.9,12.3-9.7,12.6-10.4c0.4-0.9-0.9-1.3-1.3-1.9c-0.4-0.4-8.3-5.8-11.2-7.7
			c-0.4-0.3-1,0-1,0.5v5.4l-8.2,0.2L73.2,91c0-0.8-0.7-1.5-1.5-1.5C71.7,89.5,58.4,88.9,57.6,89.2z"/>
		<g>
			<g>
				
					<image style="overflow:visible;opacity:0.75;enable-background:new    ;" width="71" height="71" xlink:href="D063E797EDF65C31.png"  transform="matrix(0.4665 0 0 0.4665 41.64 125.16)">
				</image>
				<g>
					<circle class="st5" cx="57.9" cy="141.4" r="1.2"/>
				</g>
			</g>
			<g>
				
					<image style="overflow:visible;opacity:0.75;enable-background:new    ;" width="69" height="71" xlink:href="D063E797EDF65C33.png"  transform="matrix(0.4665 0 0 0.4665 45.2265 127.56)">
				</image>
				<g>
					<circle class="st5" cx="61.2" cy="144.1" r="1.2"/>
				</g>
			</g>
			<g>
				
					<image style="overflow:visible;opacity:0.75;enable-background:new    ;" width="71" height="71" xlink:href="D063E797EDF65C36.png"  transform="matrix(0.4597 0 0 0.4597 49.08 127.56)">
				</image>
				<g>
					<circle class="st5" cx="65.2" cy="143.8" r="1.2"/>
				</g>
			</g>
			<g>
				
					<image style="overflow:visible;opacity:0.75;enable-background:new    ;" width="71" height="71" xlink:href="D063E797EDF65C37.png"  transform="matrix(0.4665 0 0 0.4665 52.2 127.08)">
				</image>
				<g>
					<circle class="st5" cx="68.8" cy="143.4" r="1.2"/>
				</g>
			</g>
			<g>
				
					<image style="overflow:visible;opacity:0.75;enable-background:new    ;" width="71" height="71" xlink:href="D063E797EDF65C32.png"  transform="matrix(0.4597 0 0 0.4597 56.52 126.84)">
				</image>
				<g>
					<circle class="st5" cx="72.8" cy="143.2" r="1.2"/>
				</g>
			</g>
			<g>
				
					<image style="overflow:visible;opacity:0.75;enable-background:new    ;" width="71" height="71" xlink:href="D063E797EDF65C3D.png"  transform="matrix(0.4665 0 0 0.4665 60.36 126.6)">
				</image>
				<g>
					<circle class="st5" cx="76.8" cy="142.9" r="1.2"/>
				</g>
			</g>
			<g>
				
					<image style="overflow:visible;opacity:0.75;enable-background:new    ;" width="71" height="71" xlink:href="D063E797EDF65C3E.png"  transform="matrix(0.4597 0 0 0.4597 64.68 126.36)">
				</image>
				<g>
					<circle class="st5" cx="80.9" cy="142.4" r="1.2"/>
				</g>
			</g>
			<g>
				
					<image style="overflow:visible;opacity:0.75;enable-background:new    ;" width="71" height="71" xlink:href="D063E797EDF65C3F.png"  transform="matrix(0.4597 0 0 0.4597 68.76 125.64)">
				</image>
				<g>
					<circle class="st5" cx="85.1" cy="141.9" r="1.2"/>
				</g>
			</g>
			<g>
				
					<image style="overflow:visible;opacity:0.75;enable-background:new    ;" width="71" height="73" xlink:href="D063E797EDF65C34.png"  transform="matrix(0.4537 0 0 0.4537 68.9737 129.96)">
				</image>
				<g>
					<circle class="st5" cx="84.9" cy="146.5" r="1.2"/>
				</g>
			</g>
			<g>
				
					<image style="overflow:visible;opacity:0.75;enable-background:new    ;" width="71" height="71" xlink:href="1E7078F5649B532A.png"  transform="matrix(0.4665 0 0 0.4665 72.36 127.08)">
				</image>
				<g>
					<circle class="st5" cx="88.8" cy="143.6" r="1.2"/>
				</g>
			</g>
			<g>
				
					<image style="overflow:visible;opacity:0.75;enable-background:new    ;" width="69" height="71" xlink:href="1E7078F5649B532D.png"  transform="matrix(0.4665 0 0 0.4665 76.4265 124.2)">
				</image>
				<g>
					<circle class="st5" cx="92.4" cy="140.6" r="1.2"/>
				</g>
			</g>
			<g>
				
					<image style="overflow:visible;opacity:0.75;enable-background:new    ;" width="71" height="71" xlink:href="1E7078F5649B532E.png"  transform="matrix(0.4597 0 0 0.4597 79.56 121.56)">
				</image>
				<g>
					<circle class="st5" cx="95.8" cy="137.9" r="1.2"/>
				</g>
			</g>
			<g>
				
					<image style="overflow:visible;opacity:0.75;enable-background:new    ;" width="71" height="71" xlink:href="1E7078F5649B532C.png"  transform="matrix(0.4665 0 0 0.4665 75.72 119.4)">
				</image>
				<g>
					<circle class="st5" cx="92.1" cy="136" r="1.2"/>
				</g>
			</g>
			<g>
				
					<image style="overflow:visible;opacity:0.75;enable-background:new    ;" width="69" height="71" xlink:href="1E7078F5649B532B.png"  transform="matrix(0.4665 0 0 0.4665 72.5865 117.48)">
				</image>
				<g>
					<circle class="st5" cx="88.5" cy="133.8" r="1.2"/>
				</g>
			</g>
			<g>
				
					<image style="overflow:visible;opacity:0.75;enable-background:new    ;" width="71" height="71" xlink:href="1E7078F5649B5335.png"  transform="matrix(0.4665 0 0 0.4665 68.52 115.08)">
				</image>
				<g>
					<circle class="st5" cx="84.9" cy="131.4" r="1.2"/>
				</g>
			</g>
			<g>
				
					<image style="overflow:visible;opacity:0.75;enable-background:new    ;" width="71" height="71" xlink:href="1E7078F5649B5336.png"  transform="matrix(0.4665 0 0 0.4665 67.56 119.88)">
				</image>
				<g>
					<circle class="st5" cx="84.2" cy="136.2" r="1.2"/>
				</g>
			</g>
			<g>
				
					<image style="overflow:visible;opacity:0.75;enable-background:new    ;" width="71" height="71" xlink:href="1E7078F5649B5334.png"  transform="matrix(0.4665 0 0 0.4665 63.72 119.88)">
				</image>
				<g>
					<circle class="st5" cx="80" cy="136.4" r="1.2"/>
				</g>
			</g>
			<g>
				
					<image style="overflow:visible;opacity:0.75;enable-background:new    ;" width="71" height="71" xlink:href="1E7078F5649B533A.png"  transform="matrix(0.4665 0 0 0.4665 59.88 119.88)">
				</image>
				<g>
					<circle class="st5" cx="76.2" cy="136.4" r="1.2"/>
				</g>
			</g>
			<g>
				
					<image style="overflow:visible;opacity:0.75;enable-background:new    ;" width="71" height="71" xlink:href="1E7078F5649B533D.png"  transform="matrix(0.4665 0 0 0.4665 41.64 120.36)">
				</image>
				<g>
					<circle class="st5" cx="57.9" cy="136.7" r="1.2"/>
				</g>
			</g>
			<g>
				
					<image style="overflow:visible;opacity:0.75;enable-background:new    ;" width="71" height="71" xlink:href="1E7078F5649B5351.png"  transform="matrix(0.4665 0 0 0.4665 41.64 116.04)">
				</image>
				<g>
					<circle class="st5" cx="57.9" cy="132.4" r="1.2"/>
				</g>
			</g>
			<g>
				
					<image style="overflow:visible;opacity:0.75;enable-background:new    ;" width="71" height="71" xlink:href="1E7078F5649B5353.png"  transform="matrix(0.4665 0 0 0.4665 41.64 111.24)">
				</image>
				<g>
					<circle class="st5" cx="57.9" cy="127.8" r="1.2"/>
				</g>
			</g>
			<g>
				
					<image style="overflow:visible;opacity:0.75;enable-background:new    ;" width="71" height="73" xlink:href="1E7078F5649B5350.png"  transform="matrix(0.4537 0 0 0.4537 42.0937 106.92)">
				</image>
				<g>
					<circle class="st5" cx="57.9" cy="123.4" r="1.2"/>
				</g>
			</g>
			<g>
				
					<image style="overflow:visible;opacity:0.75;enable-background:new    ;" width="71" height="71" xlink:href="1E7078F5649B535F.png"  transform="matrix(0.4665 0 0 0.4665 41.64 102.6)">
				</image>
				<g>
					<circle class="st5" cx="57.9" cy="119.1" r="1.2"/>
				</g>
			</g>
			<g>
				
					<image style="overflow:visible;opacity:0.75;enable-background:new    ;" width="71" height="71" xlink:href="1E7078F5649B5352.png"  transform="matrix(0.4665 0 0 0.4665 41.64 97.8)">
				</image>
				<g>
					<circle class="st5" cx="57.9" cy="114.3" r="1.2"/>
				</g>
			</g>
			<g>
				
					<image style="overflow:visible;opacity:0.75;enable-background:new    ;" width="71" height="71" xlink:href="1E7078F5649B5356.png"  transform="matrix(0.4665 0 0 0.4665 41.64 93.48)">
				</image>
				<g>
					<circle class="st5" cx="57.9" cy="110" r="1.2"/>
				</g>
			</g>
			<g>
				
					<image style="overflow:visible;opacity:0.75;enable-background:new    ;" width="71" height="71" xlink:href="1E7078F5649B5357.png"  transform="matrix(0.4665 0 0 0.4665 41.64 89.16)">
				</image>
				<g>
					<circle class="st5" cx="57.9" cy="105.4" r="1.2"/>
				</g>
			</g>
			<g>
				
					<image style="overflow:visible;opacity:0.75;enable-background:new    ;" width="71" height="71" xlink:href="1E7078F5649B536C.png"  transform="matrix(0.4597 0 0 0.4597 41.88 84.84)">
				</image>
				<g>
					<circle class="st5" cx="57.9" cy="101" r="1.2"/>
				</g>
			</g>
			<g>
				
					<image style="overflow:visible;opacity:0.75;enable-background:new    ;" width="71" height="71" xlink:href="1E7078F5649B536D.png"  transform="matrix(0.4665 0 0 0.4665 41.16 80.04)">
				</image>
				<g>
					<circle class="st5" cx="57.6" cy="96.7" r="1.2"/>
				</g>
			</g>
			<g>
				
					<image style="overflow:visible;opacity:0.75;enable-background:new    ;" width="71" height="71" xlink:href="1E7078F5649B536E.png"  transform="matrix(0.4665 0 0 0.4665 41.16 75.72)">
				</image>
				<g>
					<circle class="st5" cx="57.6" cy="92.3" r="1.2"/>
				</g>
			</g>
		</g>
		<path class="st6" d="M61.2,84.2l0.2,12.6c0,0.3,0.2,0.6,0.5,0.6l9.1,0.9c0.3,0,0.7-0.2,0.7-0.6V85.4c0-0.3-0.2-0.6-0.5-0.6
			l-9.3-1.2C61.5,83.5,61.2,83.8,61.2,84.2z"/>
		<path class="st6" d="M61.5,99.3l0.2,11.3c0,0.3,0.2,0.5,0.5,0.5l9,0.3c0.3,0,0.7-0.2,0.7-0.5v-11c0-0.3-0.2-0.5-0.5-0.5l-9.2-0.6
			C61.8,98.7,61.5,99,61.5,99.3z"/>
		<path class="st6" d="M61.6,114.1l0.2,11.3c0,0.3,0.2,0.5,0.5,0.5l9.4,0.2c0.3,0,0.7-0.2,0.7-0.5v-11c0-0.3-0.2-0.5-0.5-0.5
			l-9.6-0.6C61.9,113.5,61.6,113.7,61.6,114.1z"/>
		<path class="st6" d="M62.1,128.4l0.2,11.3c0,0.3,0.2,0.5,0.5,0.5l8.9,0.2c0.3,0,0.7-0.2,0.7-0.5v-11c0-0.3-0.2-0.5-0.5-0.5
			l-9.1-0.6C62.4,127.8,62.1,128,62.1,128.4z"/>
		<path class="st7" d="M69.1,86.9c0,0.6-1.5,1.2-1.3,1.7c0.1,0.5,2,2.5,2,3.1c-0.1,0.8-0.7,3-2,3.3c-0.7,0.1-2.8,0-2.8-0.5
			c0-1,1.7-1.4,1.8-1.8c0.2-0.7-1.1-1.2-1.8-1.8c-0.7-0.6-0.8-2.3,0-3.3s2.2-1.7,2.8-1.6S69.1,86.5,69.1,86.9z"/>
		<g>
			<path class="st7" d="M64.6,120.7c0,0-0.1,0-0.1,0c-0.2,0-0.3-0.2-0.3-0.5s0.2-0.5,0.3-0.5c0,0,0,0,0,0c0-2.7,1.5-4.9,3.3-5.1
				c-0.1,0-0.1,0-0.2,0c-1.9,0-3.5,2.3-3.5,5.1c0,0,0,0,0,0c-0.2,0-0.3,0.2-0.3,0.5s0.2,0.5,0.3,0.5c0,0,0.1,0,0.1,0
				c0.3,2.3,1.7,4.1,3.4,4.1c0.1,0,0.1,0,0.2,0C66.2,124.7,64.9,123,64.6,120.7z"/>
			<path class="st8" d="M71.6,119.7L71.6,119.7L71.6,119.7c0-2.8-1.6-5.1-3.5-5.1c-0.1,0-0.1,0-0.2,0c1.9,0.1,3.3,2.3,3.3,5.1
				c0,0,0,0,0,0l0,0c0.2,0,0.3,0.2,0.3,0.5s-0.2,0.5-0.3,0.5c0,0-0.1,0-0.1,0c-0.3,2.2-1.7,3.9-3.3,4.1c0.1,0,0.1,0,0.2,0
				c1.7,0,3.1-1.8,3.4-4.1c0,0,0.1,0,0.1,0c0.2,0,0.3-0.2,0.3-0.5C71.9,120,71.8,119.7,71.6,119.7z"/>
			<path class="st8" d="M71.1,120.8C71.1,120.8,71.2,120.8,71.1,120.8c0.3,0,0.4-0.2,0.4-0.5s-0.2-0.5-0.3-0.5l0,0c0,0,0,0,0,0
				c0-2.7-1.5-4.9-3.3-5.1c-1.8,0.1-3.3,2.3-3.3,5.1c0,0,0,0,0,0c-0.2,0-0.3,0.2-0.3,0.5s0.2,0.5,0.3,0.5c0,0,0.1,0,0.1,0
				c0.3,2.3,1.6,4,3.3,4.1C69.5,124.7,70.8,123,71.1,120.8z M68,122.4c-1,0-1.8-1.2-1.8-2.8s0.8-2.8,1.8-2.8c1,0,1.8,1.2,1.8,2.8
				S68.9,122.4,68,122.4z"/>
			<g>
				<path class="st7" d="M68.2,116.9c-0.1,0-0.2,0-0.2,0c0.9,0.2,1.5,1.3,1.5,2.8s-0.7,2.6-1.5,2.8c0.1,0,0.1,0,0.2,0
					c1,0,1.8-1.2,1.8-2.8C69.9,118.1,69.1,116.9,68.2,116.9z"/>
			</g>
		</g>
		<path class="st7" d="M70.2,108.2c0,0,0.1-1.4,0.1-1.7c0-0.1,0-0.1,0.1-0.2l0,0c0.2,0,0.3-0.2,0.3-0.5c0-0.3-0.1-0.5-0.3-0.5l0-3
			c0.9-0.4,0.6-1.3,0.5-1.5s-2.3-0.1-2.3-0.1s-0.2,0.4-0.2,0.6c0.1,0.6,0.5,0.9,0.5,0.9l0.1,3.1h-2.8c0,0,0.1-2.2,0.1-3.6
			c0-0.2,0.8-0.1,0.9-0.3c0.1-0.4-0.1-0.8-0.1-0.8c-0.2-0.1-2.8-0.1-2.8-0.1c-0.5,0-0.5,0.7-0.5,0.9s0.5,0.4,0.5,0.4l0.1,3.5
			c0,0-0.1,0-0.1,0c-0.2,0-0.3,0.2-0.3,0.5s0.2,0.5,0.3,0.5c0,0,0.1,0,0.1,0c0.1,0,0.1,0,0.1,0l0,1.7c0,0,0,0-0.5,0.1
			c-0.5,0.1-0.4,0.8-0.3,0.9c0.3,0.2,2.2,0.1,2.3,0.1s0.2-0.3,0.2-0.5c0.1-0.2-0.2-0.6-0.2-0.6l0-1.6l2.6,0c0,0,0.1,2.6,0.1,2.7
			c0.1,0.1,1.8,0,2,0c0.1,0,0.2-0.2,0.2-0.3c0-0.2-0.1-0.3-0.2-0.4C70.5,108.3,70.2,108.2,70.2,108.2z"/>
		<path class="st8" d="M70.8,108.2c0,0,0.1-1.4,0.1-1.7c0-0.1,0-0.1,0.1-0.2l0,0c0.2,0,0.3-0.2,0.3-0.5c0-0.3-0.1-0.5-0.3-0.5l0-3
			c0.9-0.4,0.6-1.3,0.5-1.5s-2.3-0.1-2.3-0.1s-0.2,0.4-0.2,0.6c0.1,0.6,0.5,0.9,0.5,0.9l0.1,3.1h-2.8c0,0,0.1-2.2,0.1-3.6
			c0-0.2,0.8-0.1,0.9-0.3c0.1-0.4-0.1-0.8-0.1-0.8c-0.2-0.1-2.8-0.1-2.8-0.1c-0.5,0-0.5,0.7-0.5,0.9s0.5,0.4,0.5,0.4l0.1,3.5
			c0,0-0.1,0-0.1,0c-0.2,0-0.3,0.2-0.3,0.5s0.2,0.5,0.3,0.5c0,0,0.1,0,0.1,0c0.1,0,0.1,0,0.1,0l0,1.7c0,0,0,0-0.5,0.1
			s-0.4,0.8-0.3,0.9c0.3,0.2,2.2,0.1,2.3,0.1s0.2-0.3,0.2-0.5c0.1-0.2-0.2-0.6-0.2-0.6l0-1.6l2.6,0c0,0,0.1,2.6,0.1,2.7
			c0.1,0.1,1.8,0,2,0c0.1,0,0.2-0.2,0.2-0.3c0-0.2-0.1-0.3-0.2-0.4C71.1,108.3,70.8,108.2,70.8,108.2z"/>
		<path class="st8" d="M69.5,87c0,0.6-1.5,1.2-1.3,1.7c0.1,0.5,2,2.5,2,3.1c-0.1,0.8-0.7,3-2,3.3c-0.7,0.1-2.8,0-2.8-0.5
			c0-1,1.7-1.4,1.8-1.8c0.2-0.7-1.1-1.2-1.8-1.8c-0.7-0.6-0.8-2.3,0-3.3s2.2-1.7,2.8-1.6S69.5,86.6,69.5,87z"/>
		<path class="st7" d="M72.5,129.7c0-0.2-0.4-0.4-0.9-0.4s-0.9,0.2-0.9,0.4c0,0.1,0.2,0.3,0.5,0.3c-0.1,0.8-0.6,4.5-0.9,4.7
			c-0.4,0.2-0.4,0.2-0.6-0.1c-0.2-0.3-0.6-3.9-0.7-4.5c0.3-0.1,0.5-0.2,0.5-0.3c0-0.2-0.6-0.4-1.2-0.4s-1.2,0.2-1.2,0.4
			c0,0.2,0.3,0.3,0.7,0.4c0,0.8,0.2,4.1,0,4.5c-0.2,0.5-1.5,0.6-2-1c-0.4-1.3-0.6-2.8-0.6-3.3c0.5-0.1,0.9-0.2,0.9-0.4
			c0-0.2-0.6-0.4-1.2-0.4s-1.2,0.2-1.2,0.4c0,0.1,0.2,0.3,0.6,0.3c0,0.9,0.2,3.4,0.8,5c0.7,2,0.9,3.2,1.6,3.2s1.2-1.2,1.4-1.8
			c0.2-0.6,0.7-0.7,0.9-0.2c0.2,0.5,0.2,1.8,0.7,1.8c1.2,0.1,1.2-2.4,1.4-3.3c0.2-0.8,0.8-3.9,0.8-4.9
			C72.2,130,72.5,129.9,72.5,129.7z"/>
		<path class="st8" d="M72.8,129.6c0-0.2-0.4-0.4-0.9-0.4s-0.9,0.2-0.9,0.4c0,0.1,0.2,0.3,0.5,0.3c-0.1,0.8-0.6,4.5-0.9,4.7
			c-0.4,0.2-0.4,0.2-0.6-0.1c-0.2-0.3-0.6-3.9-0.7-4.5c0.3-0.1,0.5-0.2,0.5-0.3c0-0.2-0.6-0.4-1.2-0.4s-1.2,0.2-1.2,0.4
			c0,0.2,0.3,0.3,0.7,0.4c0,0.8,0.2,4.1,0,4.5c-0.2,0.5-1.5,0.6-2-1c-0.4-1.3-0.6-2.8-0.6-3.3c0.5-0.1,0.9-0.2,0.9-0.4
			c0-0.2-0.6-0.4-1.2-0.4s-1.2,0.2-1.2,0.4c0,0.1,0.3,0.3,0.6,0.3c0,0.9,0.2,3.4,0.8,5c0.7,2,0.9,3.2,1.6,3.2s1.2-1.2,1.4-1.8
			c0.2-0.6,0.7-0.7,0.9-0.2c0.2,0.5,0.2,1.8,0.7,1.8c1.2,0.1,1.2-2.4,1.4-3.3c0.2-0.8,0.8-3.9,0.8-4.9
			C72.5,129.9,72.8,129.8,72.8,129.6z"/>
	</g>
</g>
<g id="Calculatrice">
</g>
<g id="Voiture">
</g>
<g id="Ciseaux">
</g>
</svg>
