<?xml version="1.0" encoding="utf-8"?>
<!-- Generator: Adobe Illustrator 28.1.0, SVG Export Plug-In . SVG Version: 6.00 Build 0)  -->
<svg version="1.1" id="Calque_1" xmlns="http://www.w3.org/2000/svg" xmlns:xlink="http://www.w3.org/1999/xlink" x="0px" y="0px"
	 viewBox="0 0 160 250" style="enable-background:new 0 0 160 250;" xml:space="preserve">
<style type="text/css">
	.st0{display:none;}
	.st1{fill:#4DC0CE;}
	.st2{fill:#625047;}
	.st3{fill:none;stroke:#E48A01;stroke-width:2;stroke-miterlimit:10;}
	.st4{fill:none;stroke:#935402;stroke-width:0.5;stroke-miterlimit:10;}
	.st5{fill:#E48A01;}
	.st6{fill:none;stroke:#E48A01;stroke-linecap:round;stroke-linejoin:round;stroke-miterlimit:10;}
	.st7{fill:none;stroke:#625047;stroke-width:0.25;stroke-miterlimit:10;}
	.st8{fill:#251503;}
	.st9{fill:#DED3C1;}
</style>
<g id="Calque_1_00000024683360559029688770000015090216470931568029_" class="st0">
</g>
<g id="Grue" class="st0">
</g>
<g id="Calque_2_00000114066805148529508460000010524726496459533455_">
	<g>
		<polygon class="st1" points="47.2,120.3 65.1,101.7 103.6,101.2 119.9,120.3 119.9,150.1 99.5,169.7 68.1,169.7 47.2,150.1 		"/>
		<rect x="46.7" y="100.8" class="st2" width="9" height="5.2"/>
		<line class="st3" x1="70.4" y1="101.9" x2="70.4" y2="165.4"/>
		<line class="st3" x1="79.2" y1="114.3" x2="79.2" y2="165.8"/>
		<line class="st4" x1="78.5" y1="101.2" x2="82.6" y2="106.7"/>
		<rect x="103.6" y="101.1" class="st2" width="14.7" height="1.7"/>
		<path class="st5" d="M81.6,115.1H71.2c-1.1,0-1.9-0.8-1.9-1.9v-4.9c0-1.1,0.8-1.9,1.9-1.9h10.4c1.1,0,1.9,0.8,1.9,1.9v4.9
			C83.5,114.2,82.7,115.1,81.6,115.1z"/>
		<line class="st4" x1="49.1" y1="92.8" x2="73" y2="83.1"/>
		<line class="st4" x1="76.7" y1="82.5" x2="107.9" y2="93.1"/>
		<polyline class="st6" points="79.2,157.7 70.4,157.7 79.2,164.5 		"/>
		<polyline class="st6" points="71,149.6 79.2,149.6 70.4,157.7 		"/>
		<path class="st6" d="M79.2,149.6c-1-1-8.8-7.1-8.8-7.1h8.8"/>
		<polyline class="st6" points="70.4,142.5 79.2,135.6 70.4,135.6 		"/>
		<path class="st6" d="M79.2,135.6c-1-1-8.8-7.1-8.8-7.1h8.8"/>
		<polyline class="st6" points="70.4,128.5 79.2,121.5 70.4,121.5 		"/>
		<line class="st6" x1="78.3" y1="121.1" x2="70.6" y2="114.5"/>
		<path class="st2" d="M88.7,167.1h-4.2v-1c0-0.9-0.7-1.6-1.6-1.6H65c-0.9,0-1.6,0.7-1.6,1.6v1h-5c-0.9,0-1.6,0.7-1.6,1.6v2
			c0,0.9,0.7,1.6,1.6,1.6h30.2c0.9,0,1.6-0.7,1.6-1.6v-2C90.2,167.8,89.5,167.1,88.7,167.1z"/>
		<path class="st3" d="M46.7,100.8l72,0.4c0,0-4.2-5.9-9.1-7.8H46.7V100.8z"/>
		<polyline class="st3" points="70.6,92.8 73.5,80.8 76.4,80.8 78.5,92.8 		"/>
		<line class="st6" x1="72.1" y1="86.8" x2="77.9" y2="89.6"/>
		<polyline class="st6" points="46.7,100.8 53.3,93.4 53.3,100.8 		"/>
		<polyline class="st6" points="59.3,93.4 59.3,101.2 53.3,93.4 		"/>
		<polyline class="st6" points="72,93.4 72,101.2 66,93.4 		"/>
		<polyline class="st6" points="59.3,100.8 66,93.4 66,100.8 		"/>
		<line class="st6" x1="59.3" y1="101.2" x2="66" y2="93.4"/>
		<polyline class="st6" points="97.5,93.4 97.5,101.2 91.5,93.4 		"/>
		<line class="st6" x1="84.8" y1="101.2" x2="91.5" y2="93.4"/>
		<polyline class="st6" points="110.1,93.4 110.1,101.2 104.1,93.4 		"/>
		<line class="st6" x1="97.5" y1="101.2" x2="104.1" y2="93.4"/>
		<polyline class="st6" points="84.8,93.4 84.8,101.2 78.8,93.4 		"/>
		<line class="st6" x1="72.2" y1="101.2" x2="78.8" y2="93.4"/>
		<line class="st7" x1="110.9" y1="102.4" x2="110.9" y2="128.2"/>
		<polygon class="st8" points="112.7,131.4 112.7,133.4 111.8,133.6 111.8,131.3 		"/>
		<rect x="110.1" y="131.6" class="st9" width="1.7" height="2"/>
		<path class="st8" d="M112.9,128.5c0-0.8-1.1-0.9-2.2-0.9c-0.8,0-1.6,0.2-1.8,0.9v2.6c0.2,0.7,1.1,0.9,2,0.9s1.9-0.3,2-0.9
			L112.9,128.5L112.9,128.5z"/>
		<path class="st8" d="M113.1,133.7c0-0.4-1.1-0.5-2.2-0.5c-0.8,0-1.6,0.1-1.8,0.5v1.3c0.2,0.4,1.1,0.4,2,0.4s1.9-0.1,2-0.4
			L113.1,133.7L113.1,133.7z"/>
	</g>
</g>
<g id="Show">
</g>
<g id="Calculatrice">
</g>
<g id="Voiture">
</g>
<g id="Ciseaux">
</g>
</svg>
