<?xml version="1.0" encoding="utf-8"?>
<!-- Generator: Adobe Illustrator 28.1.0, SVG Export Plug-In . SVG Version: 6.00 Build 0)  -->
<svg version="1.1" id="Calque_1" xmlns="http://www.w3.org/2000/svg" xmlns:xlink="http://www.w3.org/1999/xlink" x="0px" y="0px"
	 viewBox="0 0 160 250" style="enable-background:new 0 0 160 250;" xml:space="preserve">
<style type="text/css">
	.st0{display:none;}
	.st1{display:inline;fill:#FFFFFF;stroke:#1D1D1B;stroke-miterlimit:10;}
	.st2{display:inline;}
	.st3{fill:#9B8AB8;}
	.st4{fill:none;}
	.st5{fill:#EAE100;}
	.st6{fill:url(#SVGID_1_);}
	.st7{fill:url(#SVGID_00000137831621215503347540000002282078762451839125_);}
	.st8{fill:url(#SVGID_00000095315591780249560900000005199307046074017683_);}
	.st9{fill:url(#SVGID_00000162329433261769916950000005031600666377745567_);}
	.st10{fill:url(#SVGID_00000151501500696361457400000003380764389744280506_);}
	.st11{fill:url(#SVGID_00000049204814679685935360000012077691787433738408_);}
	.st12{fill:url(#SVGID_00000030485643005107898640000010477181510964192644_);}
	.st13{fill:url(#SVGID_00000030465564177349882760000007767975435176316308_);}
	.st14{fill:url(#SVGID_00000124129054903119378250000015533687874801075604_);}
	.st15{fill:url(#SVGID_00000128485066599190039560000011071375767111879839_);}
	.st16{fill:url(#SVGID_00000131340031145821843980000006364601975580734099_);}
	.st17{fill:#D95232;}
</style>
<g id="Calque_1_00000003790424681967724080000015253458003109876369_" class="st0">
	<rect x="40" y="-250.7" class="st1" width="80" height="251.5"/>
</g>
<g id="Grue" class="st0">
	<g id="Cfe0Wv.tif" class="st2">
		
			<image style="overflow:visible;enable-background:new    ;" width="379" height="446" id="Calque_1_2_" xlink:href="D4672082ED36264.png"  transform="matrix(0.2381 0 0 0.2381 33.285 -182.7748)">
		</image>
	</g>
</g>
<g id="Calque_2_00000058591477096918749410000016481320970689585285_">
</g>
<g id="Show">
</g>
<g id="Calculatrice">
</g>
<g id="Voiture">
</g>
<g id="Ciseaux">
	<g>
		<ellipse class="st3" cx="80.2" cy="114.5" rx="33.1" ry="33.3"/>
		<g>
			<path class="st4" d="M93.7,146c-2.3,1.7-2,5.8,0.5,9.2c2.6,3.4,6.5,4.8,8.7,3.1c2.3-1.7,2-5.8-0.5-9.2
				C99.9,145.6,96,144.3,93.7,146z"/>
			<path class="st5" d="M82.5,124.3l1.3,2.2C83.7,126.3,83.3,125.5,82.5,124.3z"/>
			<path class="st5" d="M84.7,152.4c0.3,0.8,1.4,3.3,1.9,5.2C86.2,155.9,85.4,154,84.7,152.4z"/>
			<path class="st5" d="M72.1,157.5c-0.3,3.1,0.1,6.3,2.1,7.7C72.7,163.3,71.9,159.2,72.1,157.5z"/>
			<path class="st5" d="M86.9,159.3c-0.1,0.7-0.6,2.7-1.4,4.4C86.4,162.4,87,160.7,86.9,159.3z"/>
			<path class="st5" d="M75.6,149.4C75.6,149.4,75.6,149.4,75.6,149.4C75.6,149.4,75.6,149.4,75.6,149.4z"/>
			<path class="st5" d="M75.7,149.3c1.6-1.9,2.8-3.1,2.8-3.1S77.1,147.5,75.7,149.3z"/>
			<path class="st5" d="M78.2,166.6c1.8,0.3,3.6,0.1,4.6-0.2C81.5,166.6,79.8,166.7,78.2,166.6z"/>
			<path class="st5" d="M72.8,154.1c-0.3,1-0.6,2.2-0.7,3.4c0.2-1.6,1.7-5.6,3.2-7.7C74.3,151.1,73.3,152.7,72.8,154.1z"/>
			<path class="st5" d="M84,151.1c0.2,0.3,0.3,0.6,0.4,0.8C84.3,151.6,84.1,151.3,84,151.1z"/>
			<path class="st5" d="M81.3,143.6C81.3,143.6,81.3,143.6,81.3,143.6c0-0.4-0.1-0.8-0.1-1.1C81.3,142.8,81.3,143.2,81.3,143.6z"/>
			<path class="st5" d="M84.4,151.9c0,0.1,0.1,0.2,0.1,0.2C84.5,152.1,84.5,152,84.4,151.9z"/>
			<path class="st5" d="M107,154.1c-0.2-2.9-1.7-7.1-3.8-8.8c-2.1-1.7-7.9-2.9-9.2-4.2c-1.2-1.2-8.1-9.2-7.9-10.2
				s-0.4-13.2-0.4-15.4c0-2.3-0.2-4.6-0.2-4.6l-3.8-13.8l-3.2-10.2L77,101.1v2.5l1.8,14.2l3.7,6.5c0.8,1.3,1.2,2.1,1.3,2.2l-1.3-2.2
				c-2.2-3.7-7-11.5-11.4-18.5C66.2,98,61.9,91,61.9,91s0,7.1,3.1,13.8s7.1,18.8,7.8,19.6s5.6,4,5.7,5.4c0,0.5,0,2.2,0,4.5
				c0,0,1.7,3.7,4.3,4l0,0c0.3-0.3,0.5-0.5,0.8-0.5c1-0.2,3.8,0.4,5,2.5s1.5,5,1.7,7.3s0.4,7.9,2.9,10c2.5,2.1,6.1,4.2,8.8,4
				C104.7,161.4,107.2,157,107,154.1z M103,158.3c-2.3,1.7-6.2,0.3-8.7-3.1s-2.8-7.5-0.5-9.2c2.3-1.7,6.2-0.3,8.7,3.1
				C105,152.4,105.2,156.6,103,158.3z"/>
			<path class="st5" d="M82.2,147.8c0-0.1,0-0.1-0.1-0.2C82.2,147.7,82.2,147.8,82.2,147.8C82.2,147.8,82.2,147.8,82.2,147.8z"/>
			
				<linearGradient id="SVGID_1_" gradientUnits="userSpaceOnUse" x1="72.0807" y1="-402.2672" x2="86.9249" y2="-402.2672" gradientTransform="matrix(1 0 0 -1 0 -250)">
				<stop  offset="0" style="stop-color:#FFFFFF;stop-opacity:0.1"/>
				<stop  offset="1" style="stop-color:#000000;stop-opacity:0.2"/>
			</linearGradient>
			<path class="st6" d="M84.7,152.4c0-0.1-0.1-0.1-0.1-0.2C84.6,152.2,84.6,152.3,84.7,152.4C84.7,152.4,84.7,152.4,84.7,152.4z"/>
			
				<linearGradient id="SVGID_00000051382859892022994510000006276274445470457011_" gradientUnits="userSpaceOnUse" x1="72.0807" y1="-401.89" x2="86.9249" y2="-401.89" gradientTransform="matrix(1 0 0 -1 0 -250)">
				<stop  offset="0" style="stop-color:#FFFFFF;stop-opacity:0.1"/>
				<stop  offset="1" style="stop-color:#000000;stop-opacity:0.2"/>
			</linearGradient>
			<path style="fill:url(#SVGID_00000051382859892022994510000006276274445470457011_);" d="M84.4,151.9
				C84.4,151.9,84.4,151.9,84.4,151.9C84.4,151.9,84.4,151.9,84.4,151.9z"/>
			
				<linearGradient id="SVGID_00000127758913298656949470000011220254858831483543_" gradientUnits="userSpaceOnUse" x1="72.0807" y1="-415.06" x2="86.9249" y2="-415.06" gradientTransform="matrix(1 0 0 -1 0 -250)">
				<stop  offset="0" style="stop-color:#FFFFFF;stop-opacity:0.1"/>
				<stop  offset="1" style="stop-color:#000000;stop-opacity:0.2"/>
			</linearGradient>
			<path style="fill:url(#SVGID_00000127758913298656949470000011220254858831483543_);" d="M85.5,163.7c-0.8,1.3-1.9,2.4-2.7,2.7"
				/>
			
				<linearGradient id="SVGID_00000012472160337793062550000007045025835149667251_" gradientUnits="userSpaceOnUse" x1="72.13" y1="-407.46" x2="72.13" y2="-407.46" gradientTransform="matrix(1 0 0 -1 0 -250)">
				<stop  offset="0" style="stop-color:#FFFFFF;stop-opacity:0.1"/>
				<stop  offset="1" style="stop-color:#000000;stop-opacity:0.2"/>
			</linearGradient>
			<path style="fill:url(#SVGID_00000012472160337793062550000007045025835149667251_);" d="M72.1,157.4
				C72.1,157.5,72.1,157.5,72.1,157.4C72.1,157.5,72.1,157.5,72.1,157.4L72.1,157.4z"/>
			
				<linearGradient id="SVGID_00000119101615945718631530000002323999973783665578_" gradientUnits="userSpaceOnUse" x1="72.0807" y1="-390.385" x2="86.9249" y2="-390.385" gradientTransform="matrix(1 0 0 -1 0 -250)">
				<stop  offset="0" style="stop-color:#FFFFFF;stop-opacity:0.1"/>
				<stop  offset="1" style="stop-color:#000000;stop-opacity:0.2"/>
			</linearGradient>
			<path style="fill:url(#SVGID_00000119101615945718631530000002323999973783665578_);" d="M81.3,142.4c0.1-2.2,1.5-4.1,1.5-4.1
				C82,139.2,81.3,141,81.3,142.4C81.3,142.4,81.3,142.4,81.3,142.4z"/>
			
				<linearGradient id="SVGID_00000144338440453360539320000012152519409344250014_" gradientUnits="userSpaceOnUse" x1="72.0807" y1="-390.25" x2="86.9249" y2="-390.25" gradientTransform="matrix(1 0 0 -1 0 -250)">
				<stop  offset="0" style="stop-color:#FFFFFF;stop-opacity:0.1"/>
				<stop  offset="1" style="stop-color:#000000;stop-opacity:0.2"/>
			</linearGradient>
			<path style="fill:url(#SVGID_00000144338440453360539320000012152519409344250014_);" d="M78.5,134.4L78.5,134.4l0,11.8
				C78.5,146.1,78.5,139.2,78.5,134.4z"/>
			
				<linearGradient id="SVGID_00000016039648374893895560000008412070864318442126_" gradientUnits="userSpaceOnUse" x1="72.0807" y1="-399.575" x2="86.9249" y2="-399.575" gradientTransform="matrix(1 0 0 -1 0 -250)">
				<stop  offset="0" style="stop-color:#FFFFFF;stop-opacity:0.1"/>
				<stop  offset="1" style="stop-color:#000000;stop-opacity:0.2"/>
			</linearGradient>
			<path style="fill:url(#SVGID_00000016039648374893895560000008412070864318442126_);" d="M75.3,149.8c0.1-0.1,0.2-0.2,0.3-0.4
				C75.5,149.5,75.4,149.6,75.3,149.8z"/>
			
				<linearGradient id="SVGID_00000140014944347566665850000017187292199405685152_" gradientUnits="userSpaceOnUse" x1="72.0807" y1="-399.315" x2="86.9249" y2="-399.315" gradientTransform="matrix(1 0 0 -1 0 -250)">
				<stop  offset="0" style="stop-color:#FFFFFF;stop-opacity:0.1"/>
				<stop  offset="1" style="stop-color:#000000;stop-opacity:0.2"/>
			</linearGradient>
			<path style="fill:url(#SVGID_00000140014944347566665850000017187292199405685152_);" d="M75.7,149.3
				C75.7,149.3,75.6,149.3,75.7,149.3C75.6,149.3,75.7,149.3,75.7,149.3C75.7,149.3,75.7,149.3,75.7,149.3z"/>
			<path class="st5" d="M78.5,134.4c0,4.9,0,11.8,0,11.8s-1.2,1.2-2.8,3.1c0,0-0.1,0.1-0.1,0.1c0,0,0,0,0,0.1
				c-0.1,0.1-0.2,0.2-0.3,0.4c-1.5,2.1-2.9,6.1-3.2,7.7c0,0,0,0,0,0c-0.3,1.7,0.6,5.8,2.1,7.7c1.2,0.8,2.6,1.3,4,1.5
				c1.6,0.1,3.3,0,4.6-0.2c0.8-0.3,1.9-1.4,2.7-2.7c0.9-1.7,1.4-3.7,1.4-4.4c0-0.5-0.2-1.1-0.3-1.7c-0.5-1.9-1.6-4.4-1.9-5.2
				c0-0.1-0.1-0.2-0.1-0.2c0-0.1-0.1-0.1-0.1-0.2c0,0,0,0,0-0.1c-0.1-0.2-0.3-0.5-0.4-0.8c-0.3-0.6-0.6-1-0.8-1.4
				c-0.4-0.5-0.7-1.1-0.9-1.9c0,0,0,0,0,0s0-0.1,0-0.1c-0.4-1.3-0.7-2.8-0.8-4c0,0,0,0,0-0.1c-0.1-0.4-0.1-0.8-0.1-1.1
				c0,0,0,0,0-0.1c0-1.4,0.7-3.2,1.5-4.1l0,0C80.2,138,78.5,134.4,78.5,134.4z M84.4,157.6c0,4.2-2.3,7.7-5.1,7.7
				c-2.8,0-5.1-3.4-5.1-7.7c0-4.2,2.3-7.7,5.1-7.7C82.1,149.9,84.4,153.3,84.4,157.6z"/>
			
				<linearGradient id="SVGID_00000010279486266121986900000011022118912501277360_" gradientUnits="userSpaceOnUse" x1="72.0534" y1="-400.5714" x2="86.9161" y2="-400.5714" gradientTransform="matrix(1 0 0 -1 0 -250)">
				<stop  offset="0" style="stop-color:#FFFFFF;stop-opacity:0.1"/>
				<stop  offset="1" style="stop-color:#000000;stop-opacity:0.2"/>
			</linearGradient>
			<path style="fill:url(#SVGID_00000010279486266121986900000011022118912501277360_);" d="M78.5,134.4c0,4.9,0,11.8,0,11.8
				s-1.2,1.2-2.8,3.1c0,0-0.1,0.1-0.1,0.1c0,0,0,0,0,0.1c-0.1,0.1-0.2,0.2-0.3,0.4c-1.5,2.1-3.1,4.6-3.2,7.7c0,0,0,0,0,0
				c-0.4,5.2,1.1,7.1,2.1,7.7c1.2,0.8,2.6,1.3,4,1.5c1.6,0.2,3.2,0.3,4.6-0.2c0.8-0.3,1.9-1.4,2.7-2.7c1-1.6,1.4-2.9,1.4-4.4
				c0-0.5-0.2-1.1-0.3-1.7c-0.5-1.9-1.6-4.4-1.9-5.2c0-0.1-0.1-0.2-0.1-0.2c0-0.1-0.1-0.1-0.1-0.2c0,0,0,0,0-0.1
				c-0.1-0.2-0.3-0.5-0.4-0.8c-0.3-0.6-0.8-1.2-1-1.5c-0.4-0.5-0.5-1-0.8-1.7c0,0,0,0,0,0s0-0.1,0-0.1c-0.4-1.3-0.7-2.8-0.8-4
				c0,0,0,0,0-0.1c-0.1-0.4-0.1-0.8-0.1-1.1c0,0,0,0,0-0.1c0-1.4,0.7-3.2,1.5-4.1l0,0C80.2,138,78.5,134.4,78.5,134.4z M84.4,157.6
				c0,4.2-2.3,7.7-5.1,7.7c-2.8,0-5.1-3.4-5.1-7.7c0-4.2,2.3-7.7,5.1-7.7C82.1,149.9,84.4,153.3,84.4,157.6z"/>
		</g>
		
			<linearGradient id="SVGID_00000045601887655201117460000007690446559996928135_" gradientUnits="userSpaceOnUse" x1="76.97" y1="-358.875" x2="86.09" y2="-358.875" gradientTransform="matrix(1 0 0 -1 0 -250)">
			<stop  offset="0" style="stop-color:#FFFFFF;stop-opacity:0.1"/>
			<stop  offset="1" style="stop-color:#000000;stop-opacity:0.2"/>
		</linearGradient>
		<polygon style="fill:url(#SVGID_00000045601887655201117460000007690446559996928135_);" points="83.8,126.5 78.8,117.7 77,103.6 
			78.5,86.8 85.5,110.9 86.1,130.9 		"/>
		
			<radialGradient id="SVGID_00000156586520460947502770000015964918703818768039_" cx="82.2479" cy="-383.09" r="0.723" gradientTransform="matrix(1 0 0 -1 0 -250)" gradientUnits="userSpaceOnUse">
			<stop  offset="0" style="stop-color:#FFFFFF;stop-opacity:0.1"/>
			<stop  offset="1" style="stop-color:#000000;stop-opacity:0.4"/>
		</radialGradient>
		<circle style="fill:url(#SVGID_00000156586520460947502770000015964918703818768039_);" cx="82.2" cy="133.1" r="0.7"/>
		<path class="st17" d="M92.2,83.6c0,0-3.6,14.2-20.3,23.3l5.8,9.4c0,0,20.2-11.4,28-22.5c0,0-3.2-4.1-6.4-6.2
			C97.7,86.6,92.2,83.6,92.2,83.6z"/>
		<path class="st17" d="M46.7,116.3c0,0,11.8-0.7,20.5-6.4l3.6,9.6c0,0-14.1,6.9-21.3,5.8c0,0-1.3-3.2-1.7-4.3
			C47.5,119.9,46.7,116.3,46.7,116.3z"/>
	</g>
</g>
</svg>
