<?xml version="1.0" encoding="utf-8"?>
<!-- Generator: Adobe Illustrator 28.1.0, SVG Export Plug-In . SVG Version: 6.00 Build 0)  -->
<svg version="1.1" id="Calque_1" xmlns="http://www.w3.org/2000/svg" xmlns:xlink="http://www.w3.org/1999/xlink" x="0px" y="0px"
	 viewBox="0 0 160 250" style="enable-background:new 0 0 160 250;" xml:space="preserve">
<style type="text/css">
	.st0{display:none;}
	.st1{display:inline;}
	.st2{fill:#B5C71E;}
	.st3{fill:#86AE2A;}
</style>
<g id="Calque_1_00000176732461232888140590000017455847634064305577_" class="st0">
</g>
<g id="Calque_3" class="st0">
	<g id="tlxJHO_1_" class="st1">
	</g>
</g>
<g id="Plannification">
</g>
<g id="Plante">
	<path class="st2" d="M73.6,144.4c0,0-11.6-3.8-14.7-7.7c-2.4-3-4.1-9.7-4.1-9.7l1.1-0.1c0,0-1.2-5.2-1.2-8.7c0-3.6,0-3.6,0-3.6h1.2
		c0,0-2.1-9-1.9-9.8h1.8c0,0-0.9-4.9-1.8-6.6c-0.9-1.7-1.6-5.1-1-4.6c0.6,0.5,2.4,3.3,3.7,4.2c1.3,0.9,3.9,3.1,4.1,3
		c0.3-0.2,0.4-1.5,0.4-1.5s4.1,2.2,5.2,3.1c1.1,0.9,2.4,2.4,2.4,2.7c-0.1,0.3,0.8,0.4,0.8-0.2s-0.3-1.3-0.3-1.3s4,2,6,3.6
		s3.9,5.1,3.9,5.1s-2.4,2.1-3,3.9c-0.5,1.9-1.1,3.3-1.1,3.3c-0.6-0.2-1.6-1.1-1.6-1.1s-1.3,3.7-1.5,5.4c-0.2,1.7-0.7,3.9-1,4.1
		c-1,0.4-3.6-4.9-4-6.6c-0.4-1.7-0.6-4.5-1.1-5.7s-4.6-10.9-7.2-12.7c0,0,5.5,11.2,5.7,13.8c0.2,2.5,1.1,7,2.2,9.3
		c1.2,2.1,3.6,5.3,3.9,6.4c0.3,1,0.9,4.7,1.6,6.7C72.8,140.8,75.2,145,73.6,144.4z"/>
	<path class="st3" d="M107.1,98.2c-0.6,0.4-2.7,3.2-4,4c-1.3,0.8-4,2.9-4.3,2.7c-0.3-0.2-0.3-1.5-0.3-1.5s-4.3,2-5.4,2.8
		c-1.1,0.8-2.6,2.3-2.5,2.6c0.1,0.3-0.8,0.4-0.7-0.2c0.1-0.6,0.4-1.3,0.4-1.3s-4.1,1.7-6.2,3.1c-2.1,1.4-4.2,4.8-4.2,4.8
		c-0.5,1.3-3.7,6.3-3.7,6.3l-1.3-0.9c0,0-1.9,9.1-2.1,12.1c-0.3,3.7,0.9,6.4,2.4,9c0.3,0.5,1,0.7,1.5,0.2c3.2-2.8,7.9-6.3,10.6-9.3
		c5.2-5.8,13.8-18.8,11.3-23.8c2.9,5.9-4.9,20-10.1,25.8c-3,3.3-9.4,7.6-11.7,9.8c-0.4,0.4,1.1,1.8,1.3,2.1c0,0.1,0,0.1,0,0.3l0,0
		l0,0c-0.4,4.1-1.5,21.2-1.3,26.1c0.1,1,1.3,0,1.3,0c0,0,2.1-26.5,3.6-26.7c4.5-0.7,14.3-2.5,16.9-5.3c2.7-2.8,4.7-9.4,4.7-9.4
		l-1.1-0.2c0,0,1.5-5.1,1.8-8.7c0.2-3.6,0.2-3.6,0.2-3.6l-1.2-0.1c0,0,2.7-8.8,2.5-9.7l-1.8-0.1c0,0,1.3-4.8,2.2-6.4
		C106.7,101.2,107.8,97.8,107.1,98.2z"/>
</g>
<g id="Astronaute">
</g>
<g id="Robot">
</g>
<g id="Energie">
</g>
<g id="Eau">
</g>
</svg>
