<?xml version="1.0" encoding="utf-8"?>
<!-- Generator: Adobe Illustrator 28.1.0, SVG Export Plug-In . SVG Version: 6.00 Build 0)  -->
<svg version="1.1" id="Calque_1" xmlns="http://www.w3.org/2000/svg" xmlns:xlink="http://www.w3.org/1999/xlink" x="0px" y="0px"
	 viewBox="0 0 160 250" style="enable-background:new 0 0 160 250;" xml:space="preserve">
<style type="text/css">
	.st0{display:none;}
	.st1{fill:#505048;}
	.st2{fill:#938E84;}
	.st3{fill:#C1BFB9;}
	.st4{opacity:0.47;fill:url(#SVGID_1_);enable-background:new    ;}
	.st5{opacity:0.47;fill:url(#SVGID_00000078017587304110957150000011567274048264431032_);enable-background:new    ;}
</style>
<g id="Calque_1_00000129173508095265230410000004437504913528310175_" class="st0">
</g>
<g id="Calque_3" class="st0">
</g>
<g id="Plannification">
</g>
<g id="Plante">
</g>
<g id="Astronaute">
</g>
<g id="Robot">
	<g>
		<ellipse class="st1" cx="80" cy="125" rx="14.7" ry="15"/>
		<path class="st2" d="M58.6,114.5c0-0.2,0.1-0.4,0.2-0.5l1.1-1.8l5.3,1c0,0,0.4,2.3,0,3.3c-0.4,0.9-2.7,11.2-3.5,14.7
			c-0.1,0.6-0.7,1-1.4,0.9l-1.7-0.3c-0.6-0.1-1-0.6-1-1.2L58.6,114.5z"/>
		<path class="st2" d="M46.7,126.2c0.4-0.3,7.3-4.2,9.6-5.5c0.3-0.2,0.7,0.1,0.7,0.4v4.5c0,0.2-0.1,0.4-0.3,0.4l-7.4,4.2
			c0,0-0.2-1.5-0.7-2.3C48.1,126.9,46.7,126.2,46.7,126.2z"/>
		<path class="st2" d="M45.3,135.4l6.3,8.1c0.3,0.3,0.7,0.4,1.1,0.2l2.6-1.7c0.4-0.3,0.5-0.8,0.2-1.2l-6.6-8.1c0,0-0.9,1.2-1.6,1.7
			C46.5,134.8,45.3,135.4,45.3,135.4z"/>
		<circle class="st2" cx="44.8" cy="130.4" r="3.8"/>
		<circle class="st2" cx="44.8" cy="130.4" r="3.8"/>
		<g>
			<path class="st2" d="M60,154.2c-1.2-0.9-2.4-2-2.4-3.6c0-2.1,1.7-3.9,3.9-3.9c1.7,0,2.9,1.1,3.6,2.5c0.3,0.5,0.6,0.5,0.6,0.3
				c0.1-0.3,0.1-0.6,0.1-1c0-3.7-3-6.6-6.6-6.6c-3.7,0-6.6,3-6.6,6.6c0,3.7,3,6.6,6.6,6.6c0.2,0,0.4,0,0.6-0.1
				C60.4,155,60.3,154.4,60,154.2z"/>
		</g>
		<g>
			<path class="st3" d="M75.5,129.8c0-2.2,1.7-4.1,3.8-4.4c-0.1-6.6-0.3-13.3-0.3-15c0-0.2-0.2-0.4-0.4-0.4C71,110.4,65,117,65,125
				s6.2,14.5,13.7,15c0.5,0,1-0.4,0.9-0.9c0-1-0.1-2.7-0.1-4.9C77.3,134,75.5,132.1,75.5,129.8z"/>
			<path class="st3" d="M80.7,110c-0.2,0-0.4,0.2-0.4,0.4l0.3,15c2.1,0.3,3.8,2.1,3.8,4.4c0,2.2-1.6,4-3.6,4.3l0.1,5.1
				c0,0.4,0.4,0.8,0.8,0.7c7.4-0.6,13.3-7,13.3-15C95,116.7,88.6,110,80.7,110z"/>
		</g>
		<path class="st2" d="M101.4,114.5c0-0.2-0.1-0.4-0.2-0.5l-1.1-1.8l-5.3,1c0,0-0.4,2.3,0,3.3c0.4,0.9,2.7,11.2,3.5,14.7
			c0.1,0.6,0.7,1,1.4,0.9l1.7-0.3c0.6-0.1,1-0.6,1-1.2L101.4,114.5z"/>
		<path class="st2" d="M113.3,126.2c-0.4-0.3-7.3-4.2-9.6-5.5c-0.3-0.2-0.7,0.1-0.7,0.4v4.5c0,0.2,0.1,0.4,0.3,0.4l7.4,4.2
			c0,0,0.2-1.5,0.7-2.3C111.9,126.9,113.3,126.2,113.3,126.2z"/>
		<path class="st2" d="M114.7,135.4l-6.3,8.1c-0.3,0.3-0.7,0.4-1.1,0.2l-2.6-1.7c-0.4-0.3-0.5-0.8-0.2-1.2l6.6-8.1
			c0,0,0.9,1.2,1.6,1.7C113.5,134.8,114.7,135.4,114.7,135.4z"/>
		<circle class="st2" cx="115.2" cy="130.4" r="3.8"/>
		<g>
			<path class="st2" d="M100,154.2c1.2-0.9,2.4-2,2.4-3.6c0-2.1-1.7-3.9-3.9-3.9c-1.7,0-2.9,1.1-3.6,2.5c-0.3,0.5-0.6,0.5-0.6,0.3
				c-0.1-0.3-0.1-0.6-0.1-1c0-3.7,3-6.6,6.6-6.6c3.7,0,6.6,3,6.6,6.6c0,3.7-3,6.6-6.6,6.6c-0.2,0-0.4,0-0.6-0.1
				C99.6,155,99.7,154.4,100,154.2z"/>
		</g>
	</g>
	
		<linearGradient id="SVGID_1_" gradientUnits="userSpaceOnUse" x1="72.364" y1="627.4721" x2="72.364" y2="639.9721" gradientTransform="matrix(1 0 0 1 0 -500)">
		<stop  offset="0" style="stop-color:#BBB596;stop-opacity:0"/>
		<stop  offset="1" style="stop-color:#BBB596"/>
	</linearGradient>
	<path class="st4" d="M78.8,140c-11.9-0.7-13.7-12.5-13.7-12.5s3.8,3.4,11.6,5.3c0.1,0,1.2,1.3,2.8,1.4c0,0,0.2,4.8,0.1,5
		s-0.1,0.5-0.4,0.7C79.1,139.9,78.8,140,78.8,140z"/>
	
		<linearGradient id="SVGID_00000163782098493370929240000004078314951632529578_" gradientUnits="userSpaceOnUse" x1="-1012.5565" y1="627.5" x2="-1012.5565" y2="639.9594" gradientTransform="matrix(-1 0 0 1 -924.7272 -500)">
		<stop  offset="0" style="stop-color:#BBB596;stop-opacity:0"/>
		<stop  offset="1" style="stop-color:#BBB596"/>
	</linearGradient>
	<path style="opacity:0.47;fill:url(#SVGID_00000163782098493370929240000004078314951632529578_);enable-background:new    ;" d="
		M81.7,140c11.1-0.9,13.2-12.5,13.2-12.5s-3.8,3.4-11.6,5.3c-0.1,0-1.1,1.1-2.5,1.4c-0.1,0,0,4.8,0.1,5c0,0.2,0.1,0.5,0.4,0.7
		C81.4,139.9,81.7,140,81.7,140z"/>
</g>
<g id="Energie">
</g>
<g id="Eau">
</g>
</svg>
