<?xml version="1.0" encoding="utf-8"?>
<!-- Generator: Adobe Illustrator 28.1.0, SVG Export Plug-In . SVG Version: 6.00 Build 0)  -->
<svg version="1.1" id="Calque_1" xmlns="http://www.w3.org/2000/svg" xmlns:xlink="http://www.w3.org/1999/xlink" x="0px" y="0px"
	 viewBox="0 0 160 250" style="enable-background:new 0 0 160 250;" xml:space="preserve">
<style type="text/css">
	.st0{display:none;}
	.st1{fill:#DE7A00;}
	.st2{fill:#FBC346;}
</style>
<g id="Calque_1_00000080180651270135533490000000941030312986246319_" class="st0">
</g>
<g id="Calque_3" class="st0">
</g>
<g id="Plannification">
</g>
<g id="Plante">
</g>
<g id="Astronaute">
	<g>
		<path class="st1" d="M101.7,101.4l-4.3,7.5c2.6,2.6,5.3,7.9,5.6,8.7c0.3,0.8-2.6,20.4-2.6,20.4s-6.6,6.6-19.7,7.2
			c-13.2,0.6-21.1-7.7-21.1-7.7s-2.8-17.3-2-20.4c0.8-3,4-6.6,4-6.6l-5-6.9c-4.1,5.2-6.6,11.7-6.6,18.8c0,16.7,13.5,30.2,30.2,30.2
			s30.2-13.5,30.2-30.2C110.3,114.2,107,106.8,101.7,101.4z"/>
		<path class="st1" d="M82.3,103.3c8.5,0.7,12.8,4,12.8,4l4.4-7.9c-5.2-4.4-12-7.1-19.4-7.1c-8.1,0-15.4,3.2-20.8,8.4l5,7.1
			C64.3,107.8,71.2,102.3,82.3,103.3z"/>
		<path class="st2" d="M57.6,117.1c-0.8,3.1,2,20.4,2,20.4s7.9,8.3,21.1,7.7s19.7-7.2,19.7-7.2s2.9-19.6,2.6-20.4s-3.1-6.1-5.6-8.7
			l4.3-7.5c-0.7-0.7-1.4-1.4-2.2-2l-4.4,7.9c0,0-4.4-3.3-12.8-4c-11.2-1-18,4.5-18,4.5l-5-7.1c-1,0.9-1.9,1.9-2.7,3l5,6.9
			C61.6,110.5,58.4,114.1,57.6,117.1z"/>
	</g>
	<path class="st1" d="M50,111.4c0,2.5-2.1,5.3-1.7,10.9c0.3,5.6,2.3,10.2,1.8,11.1c-0.4,0.8-3.7-1.4-4.5-1.9s-2.4-3.7-2.4-4.5
		s-0.3-12.2,0-13c0.2-0.4,1.3-2.3,3-2.7C47.9,110.8,50,111.1,50,111.4z"/>
	<path class="st1" d="M116.7,114c-0.2-0.4-1.3-2.3-3-2.7c-0.5-0.1-1-0.2-1.5-0.2l-0.4-20.7h-1.4l0.4,20.8c-0.5,0.1-0.8,0.2-0.8,0.3
		c0,2.5,2.1,5.3,1.7,10.9c-0.3,5.6-2.3,10.2-1.8,11.1c0.4,0.8,3.7-1.4,4.5-1.9s2.4-3.7,2.4-4.5C116.8,126.2,117.1,114.8,116.7,114z"
		/>
	<circle class="st2" cx="111.4" cy="87.8" r="3"/>
	<path class="st1" d="M79.6,164.4c-16.6,0-27.3-9.8-30.6-13.3c-0.6-0.7-0.5-1.7,0.2-2.3l4.4-3.5c0.6-0.5,1.5-0.5,2.1,0.1
		c2.8,2.9,11.6,10.8,25.3,10.2c13.7-0.5,22-8.2,24.6-11.1c0.5-0.6,1.4-0.7,2.1-0.2l4.5,3.4c0.7,0.5,0.8,1.6,0.2,2.3
		c-3.2,3.6-13.7,13.6-31,14.3C80.7,164.4,80.1,164.4,79.6,164.4z"/>
</g>
<g id="Robot">
</g>
<g id="Energie">
</g>
<g id="Eau">
</g>
</svg>
