<?xml version="1.0" encoding="utf-8"?>
<!-- Generator: Adobe Illustrator 28.1.0, SVG Export Plug-In . SVG Version: 6.00 Build 0)  -->
<svg version="1.1" id="Calque_1" xmlns="http://www.w3.org/2000/svg" xmlns:xlink="http://www.w3.org/1999/xlink" x="0px" y="0px"
	 viewBox="0 0 160 250" style="enable-background:new 0 0 160 250;" xml:space="preserve">
<style type="text/css">
	.st0{fill:#BA3354;}
	.st1{fill:#C9AAAA;}
	.st2{fill:#8B6954;}
	.st3{fill:#E1A3A3;}
	.st4{fill:#E2687C;}
	.st5{fill:none;stroke:#B91432;stroke-width:3.338;stroke-linecap:round;stroke-miterlimit:10;}
</style>
<g id="Plannification">
	<g>
		<path class="st0" d="M71.2,103.5c-1.9,0-3.1-1.1-3-2.7v-4.6H54.1v4.6c0,1.3-1.2,3.2-3.1,3.1c-2.4-0.1-3-1.8-3-3.1v-4.6h-3.6
			c-1.3,0-2.3,1-2.3,2.3v18.1h76.8V98.5c0-1.3-1-2.3-2.3-2.3h-2.2v4.6c0,1.3-0.8,2.9-2.8,2.9s-2.9-1.6-2.9-2.9v-4.6H94.3v4.6
			c0,1.3-1.1,2.8-2.9,2.9c-1.9,0-2.9-1.6-2.9-2.9v-4.6H74.2v4.6C74.1,102.1,73.6,103.4,71.2,103.5z"/>
		<path class="st1" d="M51,89.2c-1.3,0-2.4,1.1-2.4,2.4v4.6H51V89.2z"/>
		<path class="st1" d="M53.4,91.6v4.6l0,0V91.6c0-1.3-1.1-2.4-2.4-2.4C52.3,89.2,53.4,90.3,53.4,91.6z"/>
		<path class="st1" d="M51,103.1v-7h-2.4v4.6C48.7,102.1,49.7,103.1,51,103.1z"/>
		<path class="st1" d="M53.4,100.8c0,1.3-1.1,2.4-2.4,2.4C52.3,103.1,53.4,102.1,53.4,100.8v-4.6l0,0V100.8z"/>
		<path class="st2" d="M53.4,96.2v-4.6c0-1.3-1.1-2.4-2.4-2.4v7H53.4z"/>
		<path class="st2" d="M53.4,100.8v-4.6H51v7C52.3,103.1,53.4,102.1,53.4,100.8z"/>
		<path class="st1" d="M73.6,96.2L73.6,96.2v-4.6c0-0.7-0.3-1.2-0.7-1.7c0.4,0.4,0.7,1,0.7,1.7V96.2z"/>
		<path class="st1" d="M71.2,89.2c0.7,0,1.2,0.3,1.7,0.7C72.4,89.5,71.8,89.2,71.2,89.2z"/>
		<path class="st1" d="M71.2,89.2c-1.3,0-2.4,1.1-2.4,2.4v4.6h2.4V89.2z"/>
		<path class="st1" d="M72.9,102.5c-0.4,0.4-1,0.7-1.7,0.7C71.8,103.1,72.4,102.9,72.9,102.5z"/>
		<path class="st1" d="M71.2,103.1v-7h-2.4v4.6C68.8,102.1,69.9,103.1,71.2,103.1z"/>
		<path class="st1" d="M73.6,100.8c0,0.7-0.3,1.2-0.7,1.7C73.3,102,73.6,101.4,73.6,100.8v-4.6l0,0V100.8z"/>
		<path class="st2" d="M73.6,96.2v-4.6c0-0.7-0.3-1.2-0.7-1.7c-0.4-0.4-1-0.7-1.7-0.7v7C71.2,96.2,73.6,96.2,73.6,96.2z"/>
		<path class="st2" d="M73.6,96.2h-2.4v7c0.7,0,1.2-0.3,1.7-0.7s0.7-1,0.7-1.7C73.6,100.8,73.6,96.2,73.6,96.2z"/>
		<path class="st1" d="M91.4,89.2c-1.3,0-2.4,1.1-2.4,2.4v4.6h2.4V89.2z"/>
		<path class="st1" d="M93.7,91.6v4.6l0,0V91.6c0-1.3-1.1-2.4-2.4-2.4C92.7,89.2,93.7,90.3,93.7,91.6z"/>
		<path class="st1" d="M93.7,100.8c0,1.3-1.1,2.4-2.4,2.4C92.7,103.1,93.7,102.1,93.7,100.8v-4.6l0,0V100.8z"/>
		<path class="st1" d="M91.4,103.1v-7H89v4.6C89,102.1,90.1,103.1,91.4,103.1z"/>
		<path class="st2" d="M93.7,96.2v-4.6c0-1.3-1.1-2.4-2.4-2.4v7H93.7z"/>
		<path class="st2" d="M93.7,100.8v-4.6h-2.4v7C92.7,103.1,93.7,102.1,93.7,100.8z"/>
		<path class="st1" d="M113.9,91.6v4.6l0,0V91.6c0-1.3-1.1-2.4-2.4-2.4C112.9,89.2,113.9,90.3,113.9,91.6z"/>
		<path class="st1" d="M111.6,89.2c-1.3,0-2.4,1.1-2.4,2.4v4.6h2.4V89.2z"/>
		<path class="st1" d="M113.9,100.8c0,1.3-1.1,2.4-2.4,2.4C112.9,103.1,113.9,102.1,113.9,100.8v-4.6l0,0V100.8z"/>
		<path class="st1" d="M111.6,103.1v-7h-2.4v4.6C109.2,102.1,110.3,103.1,111.6,103.1z"/>
		<path class="st2" d="M113.9,96.2v-4.6c0-1.3-1.1-2.4-2.4-2.4v7H113.9z"/>
		<path class="st2" d="M113.9,100.8v-4.6h-2.4v7C112.9,103.1,113.9,102.1,113.9,100.8z"/>
	</g>
	<path class="st3" d="M117.8,153.9H43.3c-0.6,0-1.2-0.5-1.2-1.2V114h76.8v38.7C118.9,153.4,118.4,153.9,117.8,153.9z"/>
	<g>
		<rect x="57.9" y="117.7" class="st4" width="6.8" height="6.8"/>
		<rect x="57.9" y="126.3" class="st4" width="6.8" height="6.8"/>
		<rect x="57.9" y="134.9" class="st4" width="6.8" height="6.8"/>
		<rect x="57.9" y="143.5" class="st4" width="6.8" height="6.8"/>
	</g>
	<g>
		<rect x="68.2" y="117.7" class="st4" width="6.8" height="6.8"/>
		<rect x="68.2" y="126.3" class="st4" width="6.8" height="6.8"/>
		<rect x="68.2" y="134.9" class="st4" width="6.8" height="6.8"/>
		<rect x="68.2" y="143.5" class="st4" width="6.8" height="6.8"/>
	</g>
	<g>
		<rect x="78.5" y="117.7" class="st4" width="6.8" height="6.8"/>
		<rect x="78.5" y="126.3" class="st4" width="6.8" height="6.8"/>
		<rect x="78.5" y="134.9" class="st4" width="6.8" height="6.8"/>
		<rect x="78.5" y="143.5" class="st4" width="6.8" height="6.8"/>
	</g>
	<g>
		<rect x="88.7" y="117.7" class="st4" width="6.8" height="6.8"/>
		<rect x="88.7" y="126.3" class="st4" width="6.8" height="6.8"/>
		<rect x="88.7" y="134.9" class="st4" width="6.8" height="6.8"/>
		<rect x="88.7" y="143.5" class="st4" width="6.8" height="6.8"/>
	</g>
	<g>
		<rect x="99" y="117.7" class="st4" width="6.8" height="6.8"/>
		<rect x="99" y="126.3" class="st4" width="6.8" height="6.8"/>
		<rect x="99" y="134.9" class="st4" width="6.8" height="6.8"/>
		<rect x="99" y="143.5" class="st4" width="6.8" height="6.8"/>
	</g>
	<g>
		<rect x="109.3" y="117.7" class="st4" width="6.8" height="6.8"/>
		<rect x="109.3" y="126.3" class="st4" width="6.8" height="6.8"/>
		<rect x="109.3" y="134.9" class="st4" width="6.8" height="6.8"/>
	</g>
	<g>
		<rect x="47.6" y="143.5" class="st4" width="6.8" height="6.8"/>
		<rect x="47.6" y="134.9" class="st4" width="6.8" height="6.8"/>
		<rect x="47.6" y="126.3" class="st4" width="6.8" height="6.8"/>
	</g>
	<g>
		<line class="st5" x1="71.8" y1="121.2" x2="92.4" y2="141.7"/>
		<line class="st5" x1="92.4" y1="121.2" x2="71.8" y2="141.7"/>
	</g>
</g>
</svg>
